ISO-10303-21;
HEADER;
/* Generated by software containing ST-Developer
 * from STEP Tools, Inc. (www.steptools.com) 
 */
/* OPTION: using custom renumber hook */

FILE_DESCRIPTION(
/* description */ ('STEP AP242 Edition 2',
'CAx-IF Rec.Pracs.---Representation and Presentation of Product Manufa
cturing Information (PMI)---4.0---2014-10-13',
'CAx-IF Rec.Pracs.---3D Tessellated Geometry---0.4---2014-09-14','2;1',
'CAx-IF Rec.Pracs.---User Defined Attributes---1.5---2016-08-15'),
/* implementation_level */ '2;1');

FILE_NAME(
/* name */ 'Part Studio 3',
/* time_stamp */ '2026-09-09T15:03:22Z',
/* author */ (''),
/* organization */ (''),
/* preprocessor_version */ 'ST-DEVELOPER v20',
/* originating_system */ 'ONSHAPE BY PTC INC, 1.220',
/* authorisation */ '  ');

FILE_SCHEMA (('AP242_MANAGED_MODEL_BASED_3D_ENGINEERING_MIM_LF { 1 0 10303 442 3 1 4 }'));
ENDSEC;

DATA;
#10=SHAPE_REPRESENTATION_RELATIONSHIP('','',#509,#11);
#11=ADVANCED_BREP_SHAPE_REPRESENTATION('',(#507),#917);
#12=PLANE('',#532);
#13=PLANE('',#538);
#14=PLANE('',#541);
#15=PLANE('',#547);
#16=PLANE('',#553);
#17=PLANE('',#559);
#18=PLANE('',#565);
#19=PLANE('',#566);
#20=PLANE('',#567);
#21=PLANE('',#568);
#22=PLANE('',#569);
#23=PLANE('',#570);
#24=PLANE('',#588);
#25=B_SPLINE_CURVE_WITH_KNOTS('',3,(#753,#754,#755,#756,#757,#758,#759,
#760,#761,#762,#763),.UNSPECIFIED.,.T.,.F.,(1,1,1,1,1,1,1,1,1,1,1,1,1,1,
1),(-0.00588335880891108,-0.00392223920594072,-0.00196111960297036,6.85162762418402E-20,
0.00196111960297036,0.00392223920594072,0.00588335880891108,0.00784447841188144,
0.0098055980148518,0.0117667176178222,0.0137278372207925,0.0156889568237629,
0.0176500764267332,0.0196111960297036,0.021572315632674),.UNSPECIFIED.);
#26=B_SPLINE_CURVE_WITH_KNOTS('',3,(#765,#766,#767,#768,#769,#770,#771,
#772,#773,#774,#775),.UNSPECIFIED.,.T.,.F.,(1,1,1,1,1,1,1,1,1,1,1,1,1,1,
1),(-0.00588335880891108,-0.00392223920594072,-0.00196111960297036,8.4471223523987E-20,
0.00196111960297036,0.00392223920594072,0.00588335880891108,0.00784447841188144,
0.0098055980148518,0.0117667176178222,0.0137278372207925,0.0156889568237629,
0.0176500764267332,0.0196111960297036,0.021572315632674),.UNSPECIFIED.);
#27=B_SPLINE_CURVE_WITH_KNOTS('',3,(#782,#783,#784,#785,#786,#787,#788,
#789,#790,#791,#792),.UNSPECIFIED.,.T.,.F.,(1,1,1,1,1,1,1,1,1,1,1,1,1,1,
1),(-0.00587443858582335,-0.0039162923905489,-0.00195814619527445,3.58010606766322E-19,
0.00195814619527445,0.0039162923905489,0.00587443858582335,0.00783258478109781,
0.00979073097637226,0.0117488771716467,0.0137070233669212,0.0156651695621956,
0.0176233157574701,0.0195814619527445,0.021539608148019),.UNSPECIFIED.);
#28=B_SPLINE_CURVE_WITH_KNOTS('',3,(#794,#795,#796,#797,#798,#799,#800,
#801,#802,#803,#804),.UNSPECIFIED.,.T.,.F.,(1,1,1,1,1,1,1,1,1,1,1,1,1,1,
1),(-0.00587443858582336,-0.0039162923905489,-0.00195814619527445,1.25547709942205E-19,
0.00195814619527445,0.0039162923905489,0.00587443858582336,0.00783258478109781,
0.00979073097637226,0.0117488771716467,0.0137070233669212,0.0156651695621956,
0.0176233157574701,0.0195814619527445,0.021539608148019),.UNSPECIFIED.);
#29=ORIENTED_EDGE('',*,*,#121,.F.);
#30=ORIENTED_EDGE('',*,*,#122,.T.);
#31=ORIENTED_EDGE('',*,*,#123,.F.);
#32=ORIENTED_EDGE('',*,*,#124,.T.);
#33=ORIENTED_EDGE('',*,*,#125,.F.);
#34=ORIENTED_EDGE('',*,*,#126,.F.);
#35=ORIENTED_EDGE('',*,*,#127,.F.);
#36=ORIENTED_EDGE('',*,*,#128,.T.);
#37=ORIENTED_EDGE('',*,*,#129,.T.);
#38=ORIENTED_EDGE('',*,*,#130,.F.);
#39=ORIENTED_EDGE('',*,*,#131,.T.);
#40=ORIENTED_EDGE('',*,*,#132,.F.);
#41=ORIENTED_EDGE('',*,*,#133,.T.);
#42=ORIENTED_EDGE('',*,*,#134,.F.);
#43=ORIENTED_EDGE('',*,*,#135,.T.);
#44=ORIENTED_EDGE('',*,*,#136,.F.);
#45=ORIENTED_EDGE('',*,*,#137,.F.);
#46=ORIENTED_EDGE('',*,*,#138,.T.);
#47=ORIENTED_EDGE('',*,*,#139,.F.);
#48=ORIENTED_EDGE('',*,*,#140,.F.);
#49=ORIENTED_EDGE('',*,*,#135,.F.);
#50=ORIENTED_EDGE('',*,*,#141,.F.);
#51=ORIENTED_EDGE('',*,*,#133,.F.);
#52=ORIENTED_EDGE('',*,*,#142,.F.);
#53=ORIENTED_EDGE('',*,*,#131,.F.);
#54=ORIENTED_EDGE('',*,*,#143,.F.);
#55=ORIENTED_EDGE('',*,*,#129,.F.);
#56=ORIENTED_EDGE('',*,*,#137,.T.);
#57=ORIENTED_EDGE('',*,*,#126,.T.);
#58=ORIENTED_EDGE('',*,*,#136,.T.);
#59=ORIENTED_EDGE('',*,*,#134,.T.);
#60=ORIENTED_EDGE('',*,*,#132,.T.);
#61=ORIENTED_EDGE('',*,*,#130,.T.);
#62=ORIENTED_EDGE('',*,*,#138,.F.);
#63=ORIENTED_EDGE('',*,*,#139,.T.);
#64=ORIENTED_EDGE('',*,*,#144,.F.);
#65=ORIENTED_EDGE('',*,*,#122,.F.);
#66=ORIENTED_EDGE('',*,*,#144,.T.);
#67=ORIENTED_EDGE('',*,*,#145,.F.);
#68=ORIENTED_EDGE('',*,*,#146,.T.);
#69=ORIENTED_EDGE('',*,*,#143,.T.);
#70=ORIENTED_EDGE('',*,*,#147,.F.);
#71=ORIENTED_EDGE('',*,*,#146,.F.);
#72=ORIENTED_EDGE('',*,*,#147,.T.);
#73=ORIENTED_EDGE('',*,*,#148,.F.);
#74=ORIENTED_EDGE('',*,*,#149,.T.);
#75=ORIENTED_EDGE('',*,*,#142,.T.);
#76=ORIENTED_EDGE('',*,*,#150,.F.);
#77=ORIENTED_EDGE('',*,*,#149,.F.);
#78=ORIENTED_EDGE('',*,*,#150,.T.);
#79=ORIENTED_EDGE('',*,*,#151,.F.);
#80=ORIENTED_EDGE('',*,*,#152,.T.);
#81=ORIENTED_EDGE('',*,*,#141,.T.);
#82=ORIENTED_EDGE('',*,*,#153,.F.);
#83=ORIENTED_EDGE('',*,*,#152,.F.);
#84=ORIENTED_EDGE('',*,*,#153,.T.);
#85=ORIENTED_EDGE('',*,*,#154,.F.);
#86=ORIENTED_EDGE('',*,*,#155,.T.);
#87=ORIENTED_EDGE('',*,*,#140,.T.);
#88=ORIENTED_EDGE('',*,*,#156,.F.);
#89=ORIENTED_EDGE('',*,*,#155,.F.);
#90=ORIENTED_EDGE('',*,*,#156,.T.);
#91=ORIENTED_EDGE('',*,*,#154,.T.);
#92=ORIENTED_EDGE('',*,*,#151,.T.);
#93=ORIENTED_EDGE('',*,*,#148,.T.);
#94=ORIENTED_EDGE('',*,*,#145,.T.);
#95=ORIENTED_EDGE('',*,*,#121,.T.);
#96=ORIENTED_EDGE('',*,*,#157,.T.);
#97=ORIENTED_EDGE('',*,*,#158,.T.);
#98=ORIENTED_EDGE('',*,*,#159,.T.);
#99=ORIENTED_EDGE('',*,*,#160,.T.);
#100=ORIENTED_EDGE('',*,*,#161,.F.);
#101=ORIENTED_EDGE('',*,*,#123,.T.);
#102=ORIENTED_EDGE('',*,*,#127,.T.);
#103=ORIENTED_EDGE('',*,*,#124,.F.);
#104=ORIENTED_EDGE('',*,*,#128,.F.);
#105=ORIENTED_EDGE('',*,*,#160,.F.);
#106=ORIENTED_EDGE('',*,*,#162,.T.);
#107=ORIENTED_EDGE('',*,*,#159,.F.);
#108=ORIENTED_EDGE('',*,*,#163,.T.);
#109=ORIENTED_EDGE('',*,*,#158,.F.);
#110=ORIENTED_EDGE('',*,*,#164,.T.);
#111=ORIENTED_EDGE('',*,*,#157,.F.);
#112=ORIENTED_EDGE('',*,*,#165,.T.);
#113=ORIENTED_EDGE('',*,*,#161,.T.);
#114=ORIENTED_EDGE('',*,*,#166,.F.);
#115=ORIENTED_EDGE('',*,*,#125,.T.);
#116=ORIENTED_EDGE('',*,*,#165,.F.);
#117=ORIENTED_EDGE('',*,*,#164,.F.);
#118=ORIENTED_EDGE('',*,*,#163,.F.);
#119=ORIENTED_EDGE('',*,*,#162,.F.);
#120=ORIENTED_EDGE('',*,*,#166,.T.);
#121=EDGE_CURVE('',#167,#167,#213,.T.);
#122=EDGE_CURVE('',#168,#168,#214,.T.);
#123=EDGE_CURVE('',#169,#169,#25,.T.);
#124=EDGE_CURVE('',#170,#170,#26,.T.);
#125=EDGE_CURVE('',#171,#171,#215,.F.);
#126=EDGE_CURVE('',#172,#172,#216,.T.);
#127=EDGE_CURVE('',#173,#173,#27,.T.);
#128=EDGE_CURVE('',#174,#174,#28,.T.);
#129=EDGE_CURVE('',#175,#175,#217,.T.);
#130=EDGE_CURVE('',#176,#176,#218,.T.);
#131=EDGE_CURVE('',#177,#177,#219,.T.);
#132=EDGE_CURVE('',#178,#178,#220,.T.);
#133=EDGE_CURVE('',#179,#179,#221,.T.);
#134=EDGE_CURVE('',#180,#180,#222,.T.);
#135=EDGE_CURVE('',#181,#181,#223,.T.);
#136=EDGE_CURVE('',#182,#182,#224,.T.);
#137=EDGE_CURVE('',#183,#183,#225,.T.);
#138=EDGE_CURVE('',#184,#184,#226,.T.);
#139=EDGE_CURVE('',#185,#185,#227,.T.);
#140=EDGE_CURVE('',#186,#186,#228,.T.);
#141=EDGE_CURVE('',#187,#187,#229,.T.);
#142=EDGE_CURVE('',#188,#188,#230,.T.);
#143=EDGE_CURVE('',#189,#189,#231,.T.);
#144=EDGE_CURVE('',#190,#190,#232,.T.);
#145=EDGE_CURVE('',#191,#191,#233,.T.);
#146=EDGE_CURVE('',#192,#192,#234,.T.);
#147=EDGE_CURVE('',#193,#193,#235,.T.);
#148=EDGE_CURVE('',#194,#194,#236,.T.);
#149=EDGE_CURVE('',#195,#195,#237,.T.);
#150=EDGE_CURVE('',#196,#196,#238,.T.);
#151=EDGE_CURVE('',#197,#197,#239,.T.);
#152=EDGE_CURVE('',#198,#198,#240,.T.);
#153=EDGE_CURVE('',#199,#199,#241,.T.);
#154=EDGE_CURVE('',#200,#200,#242,.T.);
#155=EDGE_CURVE('',#201,#201,#243,.T.);
#156=EDGE_CURVE('',#202,#202,#244,.T.);
#157=EDGE_CURVE('',#203,#203,#245,.T.);
#158=EDGE_CURVE('',#204,#204,#246,.T.);
#159=EDGE_CURVE('',#205,#205,#247,.T.);
#160=EDGE_CURVE('',#206,#206,#248,.T.);
#161=EDGE_CURVE('',#207,#207,#249,.T.);
#162=EDGE_CURVE('',#208,#208,#250,.T.);
#163=EDGE_CURVE('',#209,#209,#251,.T.);
#164=EDGE_CURVE('',#210,#210,#252,.T.);
#165=EDGE_CURVE('',#211,#211,#253,.T.);
#166=EDGE_CURVE('',#212,#212,#254,.T.);
#167=VERTEX_POINT('',#750);
#168=VERTEX_POINT('',#752);
#169=VERTEX_POINT('',#764);
#170=VERTEX_POINT('',#776);
#171=VERTEX_POINT('',#779);
#172=VERTEX_POINT('',#781);
#173=VERTEX_POINT('',#793);
#174=VERTEX_POINT('',#805);
#175=VERTEX_POINT('',#808);
#176=VERTEX_POINT('',#810);
#177=VERTEX_POINT('',#813);
#178=VERTEX_POINT('',#815);
#179=VERTEX_POINT('',#818);
#180=VERTEX_POINT('',#820);
#181=VERTEX_POINT('',#823);
#182=VERTEX_POINT('',#825);
#183=VERTEX_POINT('',#828);
#184=VERTEX_POINT('',#830);
#185=VERTEX_POINT('',#833);
#186=VERTEX_POINT('',#835);
#187=VERTEX_POINT('',#837);
#188=VERTEX_POINT('',#839);
#189=VERTEX_POINT('',#841);
#190=VERTEX_POINT('',#845);
#191=VERTEX_POINT('',#849);
#192=VERTEX_POINT('',#851);
#193=VERTEX_POINT('',#854);
#194=VERTEX_POINT('',#858);
#195=VERTEX_POINT('',#860);
#196=VERTEX_POINT('',#863);
#197=VERTEX_POINT('',#867);
#198=VERTEX_POINT('',#869);
#199=VERTEX_POINT('',#872);
#200=VERTEX_POINT('',#876);
#201=VERTEX_POINT('',#878);
#202=VERTEX_POINT('',#881);
#203=VERTEX_POINT('',#889);
#204=VERTEX_POINT('',#891);
#205=VERTEX_POINT('',#893);
#206=VERTEX_POINT('',#895);
#207=VERTEX_POINT('',#897);
#208=VERTEX_POINT('',#902);
#209=VERTEX_POINT('',#905);
#210=VERTEX_POINT('',#908);
#211=VERTEX_POINT('',#911);
#212=VERTEX_POINT('',#914);
#213=CIRCLE('',#512,0.0103);
#214=CIRCLE('',#513,0.0103);
#215=CIRCLE('',#515,0.0133);
#216=CIRCLE('',#516,0.0133);
#217=CIRCLE('',#518,0.004);
#218=CIRCLE('',#519,0.004);
#219=CIRCLE('',#521,0.004);
#220=CIRCLE('',#522,0.004);
#221=CIRCLE('',#524,0.004);
#222=CIRCLE('',#525,0.004);
#223=CIRCLE('',#527,0.004);
#224=CIRCLE('',#528,0.004);
#225=CIRCLE('',#530,0.028);
#226=CIRCLE('',#531,0.028);
#227=CIRCLE('',#533,0.0133);
#228=CIRCLE('',#534,0.004);
#229=CIRCLE('',#535,0.004);
#230=CIRCLE('',#536,0.004);
#231=CIRCLE('',#537,0.004);
#232=CIRCLE('',#540,0.0133);
#233=CIRCLE('',#543,0.001);
#234=CIRCLE('',#544,0.001);
#235=CIRCLE('',#546,0.004);
#236=CIRCLE('',#549,0.001);
#237=CIRCLE('',#550,0.001);
#238=CIRCLE('',#552,0.004);
#239=CIRCLE('',#555,0.001);
#240=CIRCLE('',#556,0.001);
#241=CIRCLE('',#558,0.004);
#242=CIRCLE('',#561,0.001);
#243=CIRCLE('',#562,0.001);
#244=CIRCLE('',#564,0.004);
#245=CIRCLE('',#571,0.004);
#246=CIRCLE('',#572,0.004);
#247=CIRCLE('',#573,0.004);
#248=CIRCLE('',#574,0.004);
#249=CIRCLE('',#575,0.028);
#250=CIRCLE('',#579,0.004);
#251=CIRCLE('',#581,0.004);
#252=CIRCLE('',#583,0.004);
#253=CIRCLE('',#585,0.004);
#254=CIRCLE('',#587,0.028);
#255=EDGE_LOOP('',(#29));
#256=EDGE_LOOP('',(#30));
#257=EDGE_LOOP('',(#31));
#258=EDGE_LOOP('',(#32));
#259=EDGE_LOOP('',(#33));
#260=EDGE_LOOP('',(#34));
#261=EDGE_LOOP('',(#35));
#262=EDGE_LOOP('',(#36));
#263=EDGE_LOOP('',(#37));
#264=EDGE_LOOP('',(#38));
#265=EDGE_LOOP('',(#39));
#266=EDGE_LOOP('',(#40));
#267=EDGE_LOOP('',(#41));
#268=EDGE_LOOP('',(#42));
#269=EDGE_LOOP('',(#43));
#270=EDGE_LOOP('',(#44));
#271=EDGE_LOOP('',(#45));
#272=EDGE_LOOP('',(#46));
#273=EDGE_LOOP('',(#47));
#274=EDGE_LOOP('',(#48));
#275=EDGE_LOOP('',(#49));
#276=EDGE_LOOP('',(#50));
#277=EDGE_LOOP('',(#51));
#278=EDGE_LOOP('',(#52));
#279=EDGE_LOOP('',(#53));
#280=EDGE_LOOP('',(#54));
#281=EDGE_LOOP('',(#55));
#282=EDGE_LOOP('',(#56));
#283=EDGE_LOOP('',(#57));
#284=EDGE_LOOP('',(#58));
#285=EDGE_LOOP('',(#59));
#286=EDGE_LOOP('',(#60));
#287=EDGE_LOOP('',(#61));
#288=EDGE_LOOP('',(#62));
#289=EDGE_LOOP('',(#63));
#290=EDGE_LOOP('',(#64));
#291=EDGE_LOOP('',(#65));
#292=EDGE_LOOP('',(#66));
#293=EDGE_LOOP('',(#67));
#294=EDGE_LOOP('',(#68));
#295=EDGE_LOOP('',(#69));
#296=EDGE_LOOP('',(#70));
#297=EDGE_LOOP('',(#71));
#298=EDGE_LOOP('',(#72));
#299=EDGE_LOOP('',(#73));
#300=EDGE_LOOP('',(#74));
#301=EDGE_LOOP('',(#75));
#302=EDGE_LOOP('',(#76));
#303=EDGE_LOOP('',(#77));
#304=EDGE_LOOP('',(#78));
#305=EDGE_LOOP('',(#79));
#306=EDGE_LOOP('',(#80));
#307=EDGE_LOOP('',(#81));
#308=EDGE_LOOP('',(#82));
#309=EDGE_LOOP('',(#83));
#310=EDGE_LOOP('',(#84));
#311=EDGE_LOOP('',(#85));
#312=EDGE_LOOP('',(#86));
#313=EDGE_LOOP('',(#87));
#314=EDGE_LOOP('',(#88));
#315=EDGE_LOOP('',(#89));
#316=EDGE_LOOP('',(#90));
#317=EDGE_LOOP('',(#91));
#318=EDGE_LOOP('',(#92));
#319=EDGE_LOOP('',(#93));
#320=EDGE_LOOP('',(#94));
#321=EDGE_LOOP('',(#95));
#322=EDGE_LOOP('',(#96));
#323=EDGE_LOOP('',(#97));
#324=EDGE_LOOP('',(#98));
#325=EDGE_LOOP('',(#99));
#326=EDGE_LOOP('',(#100));
#327=EDGE_LOOP('',(#101));
#328=EDGE_LOOP('',(#102));
#329=EDGE_LOOP('',(#103));
#330=EDGE_LOOP('',(#104));
#331=EDGE_LOOP('',(#105));
#332=EDGE_LOOP('',(#106));
#333=EDGE_LOOP('',(#107));
#334=EDGE_LOOP('',(#108));
#335=EDGE_LOOP('',(#109));
#336=EDGE_LOOP('',(#110));
#337=EDGE_LOOP('',(#111));
#338=EDGE_LOOP('',(#112));
#339=EDGE_LOOP('',(#113));
#340=EDGE_LOOP('',(#114));
#341=EDGE_LOOP('',(#115));
#342=EDGE_LOOP('',(#116));
#343=EDGE_LOOP('',(#117));
#344=EDGE_LOOP('',(#118));
#345=EDGE_LOOP('',(#119));
#346=EDGE_LOOP('',(#120));
#347=FACE_BOUND('',#255,.T.);
#348=FACE_BOUND('',#256,.T.);
#349=FACE_BOUND('',#257,.T.);
#350=FACE_BOUND('',#258,.T.);
#351=FACE_BOUND('',#259,.T.);
#352=FACE_BOUND('',#260,.T.);
#353=FACE_BOUND('',#261,.T.);
#354=FACE_BOUND('',#262,.T.);
#355=FACE_BOUND('',#263,.T.);
#356=FACE_BOUND('',#264,.T.);
#357=FACE_BOUND('',#265,.T.);
#358=FACE_BOUND('',#266,.T.);
#359=FACE_BOUND('',#267,.T.);
#360=FACE_BOUND('',#268,.T.);
#361=FACE_BOUND('',#269,.T.);
#362=FACE_BOUND('',#270,.T.);
#363=FACE_BOUND('',#271,.T.);
#364=FACE_BOUND('',#272,.T.);
#365=FACE_BOUND('',#273,.T.);
#366=FACE_BOUND('',#274,.T.);
#367=FACE_BOUND('',#275,.T.);
#368=FACE_BOUND('',#276,.T.);
#369=FACE_BOUND('',#277,.T.);
#370=FACE_BOUND('',#278,.T.);
#371=FACE_BOUND('',#279,.T.);
#372=FACE_BOUND('',#280,.T.);
#373=FACE_BOUND('',#281,.T.);
#374=FACE_BOUND('',#282,.T.);
#375=FACE_BOUND('',#283,.T.);
#376=FACE_BOUND('',#284,.T.);
#377=FACE_BOUND('',#285,.T.);
#378=FACE_BOUND('',#286,.T.);
#379=FACE_BOUND('',#287,.T.);
#380=FACE_BOUND('',#288,.T.);
#381=FACE_BOUND('',#289,.T.);
#382=FACE_BOUND('',#290,.T.);
#383=FACE_BOUND('',#291,.T.);
#384=FACE_BOUND('',#292,.T.);
#385=FACE_BOUND('',#293,.T.);
#386=FACE_BOUND('',#294,.T.);
#387=FACE_BOUND('',#295,.T.);
#388=FACE_BOUND('',#296,.T.);
#389=FACE_BOUND('',#297,.T.);
#390=FACE_BOUND('',#298,.T.);
#391=FACE_BOUND('',#299,.T.);
#392=FACE_BOUND('',#300,.T.);
#393=FACE_BOUND('',#301,.T.);
#394=FACE_BOUND('',#302,.T.);
#395=FACE_BOUND('',#303,.T.);
#396=FACE_BOUND('',#304,.T.);
#397=FACE_BOUND('',#305,.T.);
#398=FACE_BOUND('',#306,.T.);
#399=FACE_BOUND('',#307,.T.);
#400=FACE_BOUND('',#308,.T.);
#401=FACE_BOUND('',#309,.T.);
#402=FACE_BOUND('',#310,.T.);
#403=FACE_BOUND('',#311,.T.);
#404=FACE_BOUND('',#312,.T.);
#405=FACE_BOUND('',#313,.T.);
#406=FACE_BOUND('',#314,.T.);
#407=FACE_BOUND('',#315,.T.);
#408=FACE_BOUND('',#316,.T.);
#409=FACE_BOUND('',#317,.T.);
#410=FACE_BOUND('',#318,.T.);
#411=FACE_BOUND('',#319,.T.);
#412=FACE_BOUND('',#320,.T.);
#413=FACE_BOUND('',#321,.T.);
#414=FACE_BOUND('',#322,.T.);
#415=FACE_BOUND('',#323,.T.);
#416=FACE_BOUND('',#324,.T.);
#417=FACE_BOUND('',#325,.T.);
#418=FACE_BOUND('',#326,.T.);
#419=FACE_BOUND('',#327,.T.);
#420=FACE_BOUND('',#328,.T.);
#421=FACE_BOUND('',#329,.T.);
#422=FACE_BOUND('',#330,.T.);
#423=FACE_BOUND('',#331,.T.);
#424=FACE_BOUND('',#332,.T.);
#425=FACE_BOUND('',#333,.T.);
#426=FACE_BOUND('',#334,.T.);
#427=FACE_BOUND('',#335,.T.);
#428=FACE_BOUND('',#336,.T.);
#429=FACE_BOUND('',#337,.T.);
#430=FACE_BOUND('',#338,.T.);
#431=FACE_BOUND('',#339,.T.);
#432=FACE_BOUND('',#340,.T.);
#433=FACE_BOUND('',#341,.T.);
#434=FACE_BOUND('',#342,.T.);
#435=FACE_BOUND('',#343,.T.);
#436=FACE_BOUND('',#344,.T.);
#437=FACE_BOUND('',#345,.T.);
#438=FACE_BOUND('',#346,.T.);
#439=CYLINDRICAL_SURFACE('',#511,0.0103);
#440=CYLINDRICAL_SURFACE('',#514,0.0133);
#441=CYLINDRICAL_SURFACE('',#517,0.004);
#442=CYLINDRICAL_SURFACE('',#520,0.004);
#443=CYLINDRICAL_SURFACE('',#523,0.004);
#444=CYLINDRICAL_SURFACE('',#526,0.004);
#445=CYLINDRICAL_SURFACE('',#529,0.028);
#446=CYLINDRICAL_SURFACE('',#539,0.0133);
#447=CYLINDRICAL_SURFACE('',#542,0.001);
#448=CYLINDRICAL_SURFACE('',#545,0.004);
#449=CYLINDRICAL_SURFACE('',#548,0.001);
#450=CYLINDRICAL_SURFACE('',#551,0.004);
#451=CYLINDRICAL_SURFACE('',#554,0.001);
#452=CYLINDRICAL_SURFACE('',#557,0.004);
#453=CYLINDRICAL_SURFACE('',#560,0.001);
#454=CYLINDRICAL_SURFACE('',#563,0.004);
#455=CYLINDRICAL_SURFACE('',#576,0.0025);
#456=CYLINDRICAL_SURFACE('',#577,0.0025);
#457=CYLINDRICAL_SURFACE('',#578,0.004);
#458=CYLINDRICAL_SURFACE('',#580,0.004);
#459=CYLINDRICAL_SURFACE('',#582,0.004);
#460=CYLINDRICAL_SURFACE('',#584,0.004);
#461=CYLINDRICAL_SURFACE('',#586,0.028);
#462=ADVANCED_FACE('',(#347,#348,#349,#350),#439,.F.);
#463=ADVANCED_FACE('',(#351,#352,#353,#354),#440,.T.);
#464=ADVANCED_FACE('',(#355,#356),#441,.F.);
#465=ADVANCED_FACE('',(#357,#358),#442,.F.);
#466=ADVANCED_FACE('',(#359,#360),#443,.F.);
#467=ADVANCED_FACE('',(#361,#362),#444,.F.);
#468=ADVANCED_FACE('',(#363,#364),#445,.T.);
#469=ADVANCED_FACE('',(#365,#366,#367,#368,#369,#370,#371,#372,#373,#374),
#12,.T.);
#470=ADVANCED_FACE('',(#375,#376,#377,#378,#379,#380),#13,.F.);
#471=ADVANCED_FACE('',(#381,#382),#446,.T.);
#472=ADVANCED_FACE('',(#383,#384),#14,.T.);
#473=ADVANCED_FACE('',(#385,#386),#447,.F.);
#474=ADVANCED_FACE('',(#387,#388),#448,.T.);
#475=ADVANCED_FACE('',(#389,#390),#15,.T.);
#476=ADVANCED_FACE('',(#391,#392),#449,.F.);
#477=ADVANCED_FACE('',(#393,#394),#450,.T.);
#478=ADVANCED_FACE('',(#395,#396),#16,.T.);
#479=ADVANCED_FACE('',(#397,#398),#451,.F.);
#480=ADVANCED_FACE('',(#399,#400),#452,.T.);
#481=ADVANCED_FACE('',(#401,#402),#17,.T.);
#482=ADVANCED_FACE('',(#403,#404),#453,.F.);
#483=ADVANCED_FACE('',(#405,#406),#454,.T.);
#484=ADVANCED_FACE('',(#407,#408),#18,.T.);
#485=ADVANCED_FACE('',(#409),#19,.T.);
#486=ADVANCED_FACE('',(#410),#20,.T.);
#487=ADVANCED_FACE('',(#411),#21,.T.);
#488=ADVANCED_FACE('',(#412),#22,.T.);
#489=ADVANCED_FACE('',(#413,#414,#415,#416,#417,#418),#23,.F.);
#490=ADVANCED_FACE('',(#419,#420),#455,.F.);
#491=ADVANCED_FACE('',(#421,#422),#456,.F.);
#492=ADVANCED_FACE('',(#423,#424),#457,.F.);
#493=ADVANCED_FACE('',(#425,#426),#458,.F.);
#494=ADVANCED_FACE('',(#427,#428),#459,.F.);
#495=ADVANCED_FACE('',(#429,#430),#460,.F.);
#496=ADVANCED_FACE('',(#431,#432),#461,.T.);
#497=ADVANCED_FACE('',(#433,#434,#435,#436,#437,#438),#24,.T.);
#498=CLOSED_SHELL('',(#462,#463,#464,#465,#466,#467,#468,#469,#470,#471,
#472,#473,#474,#475,#476,#477,#478,#479,#480,#481,#482,#483,#484,#485,#486,
#487,#488,#489,#490,#491,#492,#493,#494,#495,#496,#497));
#499=STYLED_ITEM('',(#500),#507);
#500=PRESENTATION_STYLE_ASSIGNMENT((#501));
#501=SURFACE_STYLE_USAGE(.BOTH.,#502);
#502=SURFACE_SIDE_STYLE('',(#503));
#503=SURFACE_STYLE_FILL_AREA(#504);
#504=FILL_AREA_STYLE('',(#505));
#505=FILL_AREA_STYLE_COLOUR('',#506);
#506=COLOUR_RGB('',0.615686274509804,0.811764705882353,0.929411764705882);
#507=MANIFOLD_SOLID_BREP('Part 1',#498);
#508=SHAPE_DEFINITION_REPRESENTATION(#922,#509);
#509=SHAPE_REPRESENTATION('Part 1',(#510),#917);
#510=AXIS2_PLACEMENT_3D('',#747,#589,#590);
#511=AXIS2_PLACEMENT_3D('',#748,#591,#592);
#512=AXIS2_PLACEMENT_3D('',#749,#593,#594);
#513=AXIS2_PLACEMENT_3D('',#751,#595,#596);
#514=AXIS2_PLACEMENT_3D('',#777,#597,#598);
#515=AXIS2_PLACEMENT_3D('',#778,#599,#600);
#516=AXIS2_PLACEMENT_3D('',#780,#601,#602);
#517=AXIS2_PLACEMENT_3D('',#806,#603,#604);
#518=AXIS2_PLACEMENT_3D('',#807,#605,#606);
#519=AXIS2_PLACEMENT_3D('',#809,#607,#608);
#520=AXIS2_PLACEMENT_3D('',#811,#609,#610);
#521=AXIS2_PLACEMENT_3D('',#812,#611,#612);
#522=AXIS2_PLACEMENT_3D('',#814,#613,#614);
#523=AXIS2_PLACEMENT_3D('',#816,#615,#616);
#524=AXIS2_PLACEMENT_3D('',#817,#617,#618);
#525=AXIS2_PLACEMENT_3D('',#819,#619,#620);
#526=AXIS2_PLACEMENT_3D('',#821,#621,#622);
#527=AXIS2_PLACEMENT_3D('',#822,#623,#624);
#528=AXIS2_PLACEMENT_3D('',#824,#625,#626);
#529=AXIS2_PLACEMENT_3D('',#826,#627,#628);
#530=AXIS2_PLACEMENT_3D('',#827,#629,#630);
#531=AXIS2_PLACEMENT_3D('',#829,#631,#632);
#532=AXIS2_PLACEMENT_3D('',#831,#633,#634);
#533=AXIS2_PLACEMENT_3D('',#832,#635,#636);
#534=AXIS2_PLACEMENT_3D('',#834,#637,#638);
#535=AXIS2_PLACEMENT_3D('',#836,#639,#640);
#536=AXIS2_PLACEMENT_3D('',#838,#641,#642);
#537=AXIS2_PLACEMENT_3D('',#840,#643,#644);
#538=AXIS2_PLACEMENT_3D('',#842,#645,#646);
#539=AXIS2_PLACEMENT_3D('',#843,#647,#648);
#540=AXIS2_PLACEMENT_3D('',#844,#649,#650);
#541=AXIS2_PLACEMENT_3D('',#846,#651,#652);
#542=AXIS2_PLACEMENT_3D('',#847,#653,#654);
#543=AXIS2_PLACEMENT_3D('',#848,#655,#656);
#544=AXIS2_PLACEMENT_3D('',#850,#657,#658);
#545=AXIS2_PLACEMENT_3D('',#852,#659,#660);
#546=AXIS2_PLACEMENT_3D('',#853,#661,#662);
#547=AXIS2_PLACEMENT_3D('',#855,#663,#664);
#548=AXIS2_PLACEMENT_3D('',#856,#665,#666);
#549=AXIS2_PLACEMENT_3D('',#857,#667,#668);
#550=AXIS2_PLACEMENT_3D('',#859,#669,#670);
#551=AXIS2_PLACEMENT_3D('',#861,#671,#672);
#552=AXIS2_PLACEMENT_3D('',#862,#673,#674);
#553=AXIS2_PLACEMENT_3D('',#864,#675,#676);
#554=AXIS2_PLACEMENT_3D('',#865,#677,#678);
#555=AXIS2_PLACEMENT_3D('',#866,#679,#680);
#556=AXIS2_PLACEMENT_3D('',#868,#681,#682);
#557=AXIS2_PLACEMENT_3D('',#870,#683,#684);
#558=AXIS2_PLACEMENT_3D('',#871,#685,#686);
#559=AXIS2_PLACEMENT_3D('',#873,#687,#688);
#560=AXIS2_PLACEMENT_3D('',#874,#689,#690);
#561=AXIS2_PLACEMENT_3D('',#875,#691,#692);
#562=AXIS2_PLACEMENT_3D('',#877,#693,#694);
#563=AXIS2_PLACEMENT_3D('',#879,#695,#696);
#564=AXIS2_PLACEMENT_3D('',#880,#697,#698);
#565=AXIS2_PLACEMENT_3D('',#882,#699,#700);
#566=AXIS2_PLACEMENT_3D('',#883,#701,#702);
#567=AXIS2_PLACEMENT_3D('',#884,#703,#704);
#568=AXIS2_PLACEMENT_3D('',#885,#705,#706);
#569=AXIS2_PLACEMENT_3D('',#886,#707,#708);
#570=AXIS2_PLACEMENT_3D('',#887,#709,#710);
#571=AXIS2_PLACEMENT_3D('',#888,#711,#712);
#572=AXIS2_PLACEMENT_3D('',#890,#713,#714);
#573=AXIS2_PLACEMENT_3D('',#892,#715,#716);
#574=AXIS2_PLACEMENT_3D('',#894,#717,#718);
#575=AXIS2_PLACEMENT_3D('',#896,#719,#720);
#576=AXIS2_PLACEMENT_3D('',#898,#721,#722);
#577=AXIS2_PLACEMENT_3D('',#899,#723,#724);
#578=AXIS2_PLACEMENT_3D('',#900,#725,#726);
#579=AXIS2_PLACEMENT_3D('',#901,#727,#728);
#580=AXIS2_PLACEMENT_3D('',#903,#729,#730);
#581=AXIS2_PLACEMENT_3D('',#904,#731,#732);
#582=AXIS2_PLACEMENT_3D('',#906,#733,#734);
#583=AXIS2_PLACEMENT_3D('',#907,#735,#736);
#584=AXIS2_PLACEMENT_3D('',#909,#737,#738);
#585=AXIS2_PLACEMENT_3D('',#910,#739,#740);
#586=AXIS2_PLACEMENT_3D('',#912,#741,#742);
#587=AXIS2_PLACEMENT_3D('',#913,#743,#744);
#588=AXIS2_PLACEMENT_3D('',#915,#745,#746);
#589=DIRECTION('',(0.,0.,1.));
#590=DIRECTION('',(1.,0.,0.));
#591=DIRECTION('',(0.,0.,-1.));
#592=DIRECTION('',(-1.,0.,0.));
#593=DIRECTION('',(0.,0.,1.));
#594=DIRECTION('',(1.,0.,0.));
#595=DIRECTION('',(0.,0.,1.));
#596=DIRECTION('',(1.,0.,0.));
#597=DIRECTION('',(0.,0.,1.));
#598=DIRECTION('',(1.,0.,0.));
#599=DIRECTION('',(0.,0.,1.));
#600=DIRECTION('',(1.,0.,0.));
#601=DIRECTION('',(0.,0.,1.));
#602=DIRECTION('',(1.,0.,0.));
#603=DIRECTION('',(0.,0.,-1.));
#604=DIRECTION('',(-1.,0.,0.));
#605=DIRECTION('',(0.,0.,1.));
#606=DIRECTION('',(1.,0.,0.));
#607=DIRECTION('',(0.,0.,1.));
#608=DIRECTION('',(1.,0.,0.));
#609=DIRECTION('',(0.,0.,-1.));
#610=DIRECTION('',(-1.,0.,0.));
#611=DIRECTION('',(0.,0.,1.));
#612=DIRECTION('',(1.,0.,0.));
#613=DIRECTION('',(0.,0.,1.));
#614=DIRECTION('',(1.,0.,0.));
#615=DIRECTION('',(0.,0.,-1.));
#616=DIRECTION('',(-1.,0.,0.));
#617=DIRECTION('',(0.,0.,1.));
#618=DIRECTION('',(1.,0.,0.));
#619=DIRECTION('',(0.,0.,1.));
#620=DIRECTION('',(1.,0.,0.));
#621=DIRECTION('',(0.,0.,-1.));
#622=DIRECTION('',(-1.,0.,0.));
#623=DIRECTION('',(0.,0.,1.));
#624=DIRECTION('',(1.,0.,0.));
#625=DIRECTION('',(0.,0.,1.));
#626=DIRECTION('',(1.,0.,0.));
#627=DIRECTION('',(0.,0.,-1.));
#628=DIRECTION('',(-1.,0.,0.));
#629=DIRECTION('',(0.,0.,1.));
#630=DIRECTION('',(1.,0.,0.));
#631=DIRECTION('',(0.,0.,1.));
#632=DIRECTION('',(1.,0.,0.));
#633=DIRECTION('',(0.,0.,1.));
#634=DIRECTION('',(1.,0.,0.));
#635=DIRECTION('',(0.,0.,1.));
#636=DIRECTION('',(1.,0.,0.));
#637=DIRECTION('',(0.,0.,1.));
#638=DIRECTION('',(1.,0.,0.));
#639=DIRECTION('',(0.,0.,1.));
#640=DIRECTION('',(1.,0.,0.));
#641=DIRECTION('',(0.,0.,1.));
#642=DIRECTION('',(1.,0.,0.));
#643=DIRECTION('',(0.,0.,1.));
#644=DIRECTION('',(1.,0.,0.));
#645=DIRECTION('',(0.,0.,1.));
#646=DIRECTION('',(1.,0.,0.));
#647=DIRECTION('',(0.,0.,-1.));
#648=DIRECTION('',(-1.,0.,0.));
#649=DIRECTION('',(0.,0.,1.));
#650=DIRECTION('',(1.,0.,0.));
#651=DIRECTION('',(0.,0.,1.));
#652=DIRECTION('',(1.,0.,0.));
#653=DIRECTION('',(0.,0.,-1.));
#654=DIRECTION('',(-1.,0.,0.));
#655=DIRECTION('',(0.,0.,1.));
#656=DIRECTION('',(1.,0.,0.));
#657=DIRECTION('',(0.,0.,1.));
#658=DIRECTION('',(1.,0.,0.));
#659=DIRECTION('',(0.,0.,-1.));
#660=DIRECTION('',(-1.,0.,0.));
#661=DIRECTION('',(0.,0.,1.));
#662=DIRECTION('',(1.,0.,0.));
#663=DIRECTION('',(0.,0.,1.));
#664=DIRECTION('',(1.,0.,0.));
#665=DIRECTION('',(0.,0.,-1.));
#666=DIRECTION('',(-1.,0.,0.));
#667=DIRECTION('',(0.,0.,1.));
#668=DIRECTION('',(1.,0.,0.));
#669=DIRECTION('',(0.,0.,1.));
#670=DIRECTION('',(1.,0.,0.));
#671=DIRECTION('',(0.,0.,-1.));
#672=DIRECTION('',(-1.,0.,0.));
#673=DIRECTION('',(0.,0.,1.));
#674=DIRECTION('',(1.,0.,0.));
#675=DIRECTION('',(0.,0.,1.));
#676=DIRECTION('',(1.,0.,0.));
#677=DIRECTION('',(0.,0.,-1.));
#678=DIRECTION('',(-1.,0.,0.));
#679=DIRECTION('',(0.,0.,1.));
#680=DIRECTION('',(1.,0.,0.));
#681=DIRECTION('',(0.,0.,1.));
#682=DIRECTION('',(1.,0.,0.));
#683=DIRECTION('',(0.,0.,-1.));
#684=DIRECTION('',(-1.,0.,0.));
#685=DIRECTION('',(0.,0.,1.));
#686=DIRECTION('',(1.,0.,0.));
#687=DIRECTION('',(0.,0.,1.));
#688=DIRECTION('',(1.,0.,0.));
#689=DIRECTION('',(0.,0.,-1.));
#690=DIRECTION('',(-1.,0.,0.));
#691=DIRECTION('',(0.,0.,1.));
#692=DIRECTION('',(1.,0.,0.));
#693=DIRECTION('',(0.,0.,1.));
#694=DIRECTION('',(1.,0.,0.));
#695=DIRECTION('',(0.,0.,-1.));
#696=DIRECTION('',(-1.,0.,0.));
#697=DIRECTION('',(0.,0.,1.));
#698=DIRECTION('',(1.,0.,0.));
#699=DIRECTION('',(0.,0.,1.));
#700=DIRECTION('',(1.,0.,0.));
#701=DIRECTION('',(0.,0.,1.));
#702=DIRECTION('',(1.,0.,0.));
#703=DIRECTION('',(0.,0.,1.));
#704=DIRECTION('',(1.,0.,0.));
#705=DIRECTION('',(0.,0.,1.));
#706=DIRECTION('',(1.,0.,0.));
#707=DIRECTION('',(0.,0.,1.));
#708=DIRECTION('',(1.,0.,0.));
#709=DIRECTION('',(0.,0.,1.));
#710=DIRECTION('',(1.,0.,0.));
#711=DIRECTION('',(0.,0.,1.));
#712=DIRECTION('',(1.,0.,0.));
#713=DIRECTION('',(0.,0.,1.));
#714=DIRECTION('',(1.,0.,0.));
#715=DIRECTION('',(0.,0.,1.));
#716=DIRECTION('',(1.,0.,0.));
#717=DIRECTION('',(0.,0.,1.));
#718=DIRECTION('',(1.,0.,0.));
#719=DIRECTION('',(0.,0.,1.));
#720=DIRECTION('',(1.,0.,0.));
#721=DIRECTION('',(1.,0.,0.));
#722=DIRECTION('',(0.,0.,-1.));
#723=DIRECTION('',(-1.,0.,0.));
#724=DIRECTION('',(0.,0.,1.));
#725=DIRECTION('',(0.,0.,1.));
#726=DIRECTION('',(1.,0.,0.));
#727=DIRECTION('',(0.,0.,1.));
#728=DIRECTION('',(1.,0.,0.));
#729=DIRECTION('',(0.,0.,1.));
#730=DIRECTION('',(1.,0.,0.));
#731=DIRECTION('',(0.,0.,1.));
#732=DIRECTION('',(1.,0.,0.));
#733=DIRECTION('',(0.,0.,1.));
#734=DIRECTION('',(1.,0.,0.));
#735=DIRECTION('',(0.,0.,1.));
#736=DIRECTION('',(1.,0.,0.));
#737=DIRECTION('',(0.,0.,1.));
#738=DIRECTION('',(1.,0.,0.));
#739=DIRECTION('',(0.,0.,1.));
#740=DIRECTION('',(1.,0.,0.));
#741=DIRECTION('',(0.,0.,1.));
#742=DIRECTION('',(1.,0.,0.));
#743=DIRECTION('',(0.,0.,1.));
#744=DIRECTION('',(1.,0.,0.));
#745=DIRECTION('',(0.,0.,1.));
#746=DIRECTION('',(1.,0.,0.));
#747=CARTESIAN_POINT('',(0.,0.,0.));
#748=CARTESIAN_POINT('',(0.,6.30693101560887E-19,0.015));
#749=CARTESIAN_POINT('',(0.,6.30693101560887E-19,-0.025));
#750=CARTESIAN_POINT('',(0.0103,6.30693101560887E-19,-0.025));
#751=CARTESIAN_POINT('',(0.,6.30693101560887E-19,0.015));
#752=CARTESIAN_POINT('',(0.0103,6.30693101560887E-19,0.015));
#753=CARTESIAN_POINT('',(-0.0101479886563571,0.00196096685589563,-0.00304268190277773));
#754=CARTESIAN_POINT('',(-0.010375950991332,-3.74008771591181E-7,-0.00222871365392235));
#755=CARTESIAN_POINT('',(-0.010148207378315,-0.00195947082080926,-0.00304236222814258));
#756=CARTESIAN_POINT('',(-0.00991387100101867,-0.00277035928350985,-0.00499714970285945));
#757=CARTESIAN_POINT('',(-0.0101482901365347,-0.00195908911030291,-0.00695955445359193));
#758=CARTESIAN_POINT('',(-0.010375751804901,-1.14415870165405E-6,-0.00776987463229329));
#759=CARTESIAN_POINT('',(-0.0101487023209955,0.00195734860701368,-0.00696084443363675));
#760=CARTESIAN_POINT('',(-0.00991382259614134,0.00277042055744133,-0.00500117306282303));
#761=CARTESIAN_POINT('',(-0.0101479886563571,0.00196096685589563,-0.00304268190277773));
#762=CARTESIAN_POINT('',(-0.010375950991332,-3.74008771591181E-7,-0.00222871365392235));
#763=CARTESIAN_POINT('',(-0.010148207378315,-0.00195947082080926,-0.00304236222814258));
#764=CARTESIAN_POINT('',(-0.0103,5.60150368828885E-19,-0.00249998312443495));
#765=CARTESIAN_POINT('',(0.0101479886563571,0.00196096685589563,-0.00304268190277773));
#766=CARTESIAN_POINT('',(0.010375950991332,-3.7400877159259E-7,-0.00222871365392235));
#767=CARTESIAN_POINT('',(0.010148207378315,-0.00195947082080926,-0.00304236222814258));
#768=CARTESIAN_POINT('',(0.00991387100101867,-0.00277035928350984,-0.00499714970285944));
#769=CARTESIAN_POINT('',(0.0101482901365347,-0.00195908911030291,-0.00695955445359193));
#770=CARTESIAN_POINT('',(0.010375751804901,-1.14415870165302E-6,-0.00776987463229329));
#771=CARTESIAN_POINT('',(0.0101487023209955,0.00195734860701368,-0.00696084443363675));
#772=CARTESIAN_POINT('',(0.00991382259614134,0.00277042055744133,-0.00500117306282303));
#773=CARTESIAN_POINT('',(0.0101479886563571,0.00196096685589563,-0.00304268190277773));
#774=CARTESIAN_POINT('',(0.010375950991332,-3.7400877159259E-7,-0.00222871365392235));
#775=CARTESIAN_POINT('',(0.010148207378315,-0.00195947082080926,-0.00304236222814258));
#776=CARTESIAN_POINT('',(0.0103,-8.69695679835997E-20,-0.00249998312443495));
#777=CARTESIAN_POINT('',(0.,8.1439012143299E-19,-0.025));
#778=CARTESIAN_POINT('',(0.,8.1439012143299E-19,-0.02));
#779=CARTESIAN_POINT('',(0.0133,8.1439012143299E-19,-0.02));
#780=CARTESIAN_POINT('',(0.,8.1439012143299E-19,0.));
#781=CARTESIAN_POINT('',(0.0133,8.1439012143299E-19,0.));
#782=CARTESIAN_POINT('',(-0.0131822392312658,0.00196114042292931,-0.00695728992756451));
#783=CARTESIAN_POINT('',(-0.0133588292201779,-4.48875165571096E-7,-0.00777119662841916));
#784=CARTESIAN_POINT('',(-0.0131824438880226,-0.00195934492226702,-0.00695782230536856));
#785=CARTESIAN_POINT('',(-0.0130031651011852,-0.00277027863190048,-0.00500250892246388));
#786=CARTESIAN_POINT('',(-0.0131824440084624,-0.00195953795976436,-0.00304085613531979));
#787=CARTESIAN_POINT('',(-0.0133586732829073,-8.35703646049688E-7,-0.00223002869137366));
#788=CARTESIAN_POINT('',(-0.0131828626342038,0.00195687890322219,-0.0030389290465439));
#789=CARTESIAN_POINT('',(-0.0130031116832196,0.00277049413274193,-0.00499813284779799));
#790=CARTESIAN_POINT('',(-0.0131822392312658,0.00196114042292931,-0.00695728992756451));
#791=CARTESIAN_POINT('',(-0.0133588292201779,-4.48875165571096E-7,-0.00777119662841916));
#792=CARTESIAN_POINT('',(-0.0131824438880226,-0.00195934492226702,-0.00695782230536856));
#793=CARTESIAN_POINT('',(-0.0133,-3.68518364145367E-19,-0.00749998312443495));
#794=CARTESIAN_POINT('',(0.0131822392312658,0.00196114042292931,-0.00695728992756451));
#795=CARTESIAN_POINT('',(0.0133588292201779,-4.48875165569794E-7,-0.00777119662841916));
#796=CARTESIAN_POINT('',(0.0131824438880226,-0.00195934492226702,-0.00695782230536856));
#797=CARTESIAN_POINT('',(0.0130031651011852,-0.00277027863190048,-0.00500250892246388));
#798=CARTESIAN_POINT('',(0.0131824440084624,-0.00195953795976436,-0.00304085613531979));
#799=CARTESIAN_POINT('',(0.0133586732829073,-8.35703646051504E-7,-0.00223002869137366));
#800=CARTESIAN_POINT('',(0.0131828626342038,0.00195687890322219,-0.0030389290465439));
#801=CARTESIAN_POINT('',(0.0130031116832196,0.00277049413274193,-0.00499813284779798));
#802=CARTESIAN_POINT('',(0.0131822392312658,0.00196114042292931,-0.00695728992756451));
#803=CARTESIAN_POINT('',(0.0133588292201779,-4.48875165569794E-7,-0.00777119662841916));
#804=CARTESIAN_POINT('',(0.0131824438880226,-0.00195934492226702,-0.00695782230536856));
#805=CARTESIAN_POINT('',(0.0133,6.8515753497977E-19,-0.00749998312443495));
#806=CARTESIAN_POINT('',(0.0134350288425444,-0.0134350288425444,0.005));
#807=CARTESIAN_POINT('',(0.0134350288425444,-0.0134350288425444,0.005));
#808=CARTESIAN_POINT('',(0.0174350288425444,-0.0134350288425444,0.005));
#809=CARTESIAN_POINT('',(0.0134350288425444,-0.0134350288425444,0.));
#810=CARTESIAN_POINT('',(0.0174350288425444,-0.0134350288425444,0.));
#811=CARTESIAN_POINT('',(0.0134350288425444,0.0134350288425444,0.005));
#812=CARTESIAN_POINT('',(0.0134350288425444,0.0134350288425444,0.005));
#813=CARTESIAN_POINT('',(0.0174350288425444,0.0134350288425444,0.005));
#814=CARTESIAN_POINT('',(0.0134350288425444,0.0134350288425444,0.));
#815=CARTESIAN_POINT('',(0.0174350288425444,0.0134350288425444,0.));
#816=CARTESIAN_POINT('',(-0.0134350288425444,0.0134350288425444,0.005));
#817=CARTESIAN_POINT('',(-0.0134350288425444,0.0134350288425444,0.005));
#818=CARTESIAN_POINT('',(-0.0094350288425444,0.0134350288425444,0.005));
#819=CARTESIAN_POINT('',(-0.0134350288425444,0.0134350288425444,0.));
#820=CARTESIAN_POINT('',(-0.0094350288425444,0.0134350288425444,0.));
#821=CARTESIAN_POINT('',(-0.0134350288425444,-0.0134350288425444,0.005));
#822=CARTESIAN_POINT('',(-0.0134350288425444,-0.0134350288425444,0.005));
#823=CARTESIAN_POINT('',(-0.0094350288425444,-0.0134350288425444,0.005));
#824=CARTESIAN_POINT('',(-0.0134350288425444,-0.0134350288425444,0.));
#825=CARTESIAN_POINT('',(-0.0094350288425444,-0.0134350288425444,0.));
#826=CARTESIAN_POINT('',(0.,1.71450551880629E-18,0.005));
#827=CARTESIAN_POINT('',(0.,1.71450551880629E-18,0.005));
#828=CARTESIAN_POINT('',(0.028,1.71450551880629E-18,0.005));
#829=CARTESIAN_POINT('',(0.,1.71450551880629E-18,0.));
#830=CARTESIAN_POINT('',(0.028,1.71450551880629E-18,0.));
#831=CARTESIAN_POINT('',(0.,0.,0.005));
#832=CARTESIAN_POINT('',(0.,8.1439012143299E-19,0.005));
#833=CARTESIAN_POINT('',(0.0133,8.1439012143299E-19,0.005));
#834=CARTESIAN_POINT('',(-3.46944695195361E-18,-0.019,0.005));
#835=CARTESIAN_POINT('',(0.004,-0.019,0.005));
#836=CARTESIAN_POINT('',(-0.019,2.4492935982947E-19,0.005));
#837=CARTESIAN_POINT('',(-0.015,2.4492935982947E-19,0.005));
#838=CARTESIAN_POINT('',(3.46944695195361E-18,0.019,0.005));
#839=CARTESIAN_POINT('',(0.004,0.019,0.005));
#840=CARTESIAN_POINT('',(0.019,2.4492935982947E-19,0.005));
#841=CARTESIAN_POINT('',(0.023,2.4492935982947E-19,0.005));
#842=CARTESIAN_POINT('',(0.,0.,0.));
#843=CARTESIAN_POINT('',(0.,8.1439012143299E-19,0.015));
#844=CARTESIAN_POINT('',(0.,8.1439012143299E-19,0.015));
#845=CARTESIAN_POINT('',(0.0133,8.1439012143299E-19,0.015));
#846=CARTESIAN_POINT('',(0.,0.,0.015));
#847=CARTESIAN_POINT('',(0.019,6.12323399573677E-20,0.015));
#848=CARTESIAN_POINT('',(0.019,6.12323399573677E-20,0.0146));
#849=CARTESIAN_POINT('',(0.02,6.12323399573677E-20,0.0146));
#850=CARTESIAN_POINT('',(0.019,6.12323399573677E-20,0.015));
#851=CARTESIAN_POINT('',(0.02,6.12323399573677E-20,0.015));
#852=CARTESIAN_POINT('',(0.019,2.4492935982947E-19,0.015));
#853=CARTESIAN_POINT('',(0.019,2.4492935982947E-19,0.015));
#854=CARTESIAN_POINT('',(0.023,2.4492935982947E-19,0.015));
#855=CARTESIAN_POINT('',(0.,0.,0.015));
#856=CARTESIAN_POINT('',(3.46944695195361E-18,0.019,0.015));
#857=CARTESIAN_POINT('',(3.46944695195361E-18,0.019,0.0146));
#858=CARTESIAN_POINT('',(0.001,0.019,0.0146));
#859=CARTESIAN_POINT('',(3.46944695195361E-18,0.019,0.015));
#860=CARTESIAN_POINT('',(0.001,0.019,0.015));
#861=CARTESIAN_POINT('',(3.46944695195361E-18,0.019,0.015));
#862=CARTESIAN_POINT('',(3.46944695195361E-18,0.019,0.015));
#863=CARTESIAN_POINT('',(0.004,0.019,0.015));
#864=CARTESIAN_POINT('',(0.,0.,0.015));
#865=CARTESIAN_POINT('',(-0.019,6.12323399573677E-20,0.015));
#866=CARTESIAN_POINT('',(-0.019,6.12323399573677E-20,0.0146));
#867=CARTESIAN_POINT('',(-0.018,6.12323399573677E-20,0.0146));
#868=CARTESIAN_POINT('',(-0.019,6.12323399573677E-20,0.015));
#869=CARTESIAN_POINT('',(-0.018,6.12323399573677E-20,0.015));
#870=CARTESIAN_POINT('',(-0.019,2.4492935982947E-19,0.015));
#871=CARTESIAN_POINT('',(-0.019,2.4492935982947E-19,0.015));
#872=CARTESIAN_POINT('',(-0.015,2.4492935982947E-19,0.015));
#873=CARTESIAN_POINT('',(0.,0.,0.015));
#874=CARTESIAN_POINT('',(-3.46944695195361E-18,-0.019,0.015));
#875=CARTESIAN_POINT('',(-3.46944695195361E-18,-0.019,0.0146));
#876=CARTESIAN_POINT('',(0.000999999999999997,-0.019,0.0146));
#877=CARTESIAN_POINT('',(-3.46944695195361E-18,-0.019,0.015));
#878=CARTESIAN_POINT('',(0.000999999999999997,-0.019,0.015));
#879=CARTESIAN_POINT('',(-3.46944695195361E-18,-0.019,0.015));
#880=CARTESIAN_POINT('',(-3.46944695195361E-18,-0.019,0.015));
#881=CARTESIAN_POINT('',(0.004,-0.019,0.015));
#882=CARTESIAN_POINT('',(0.,0.,0.015));
#883=CARTESIAN_POINT('',(0.,0.,0.0146));
#884=CARTESIAN_POINT('',(0.,0.,0.0146));
#885=CARTESIAN_POINT('',(0.,0.,0.0146));
#886=CARTESIAN_POINT('',(0.,0.,0.0146));
#887=CARTESIAN_POINT('',(0.,0.,-0.025));
#888=CARTESIAN_POINT('',(-0.0134350288425444,-0.0134350288425444,-0.025));
#889=CARTESIAN_POINT('',(-0.0094350288425444,-0.0134350288425444,-0.025));
#890=CARTESIAN_POINT('',(-0.0134350288425444,0.0134350288425444,-0.025));
#891=CARTESIAN_POINT('',(-0.0094350288425444,0.0134350288425444,-0.025));
#892=CARTESIAN_POINT('',(0.0134350288425444,0.0134350288425444,-0.025));
#893=CARTESIAN_POINT('',(0.0174350288425444,0.0134350288425444,-0.025));
#894=CARTESIAN_POINT('',(0.0134350288425444,-0.0134350288425444,-0.025));
#895=CARTESIAN_POINT('',(0.0174350288425444,-0.0134350288425444,-0.025));
#896=CARTESIAN_POINT('',(0.,1.71450551880629E-18,-0.025));
#897=CARTESIAN_POINT('',(0.028,1.71450551880629E-18,-0.025));
#898=CARTESIAN_POINT('',(-0.025,0.,-0.00499998312443495));
#899=CARTESIAN_POINT('',(0.025,0.,-0.00499998312443495));
#900=CARTESIAN_POINT('',(0.0134350288425444,-0.0134350288425444,-0.025));
#901=CARTESIAN_POINT('',(0.0134350288425444,-0.0134350288425444,-0.02));
#902=CARTESIAN_POINT('',(0.0174350288425444,-0.0134350288425444,-0.02));
#903=CARTESIAN_POINT('',(0.0134350288425444,0.0134350288425444,-0.025));
#904=CARTESIAN_POINT('',(0.0134350288425444,0.0134350288425444,-0.02));
#905=CARTESIAN_POINT('',(0.0174350288425444,0.0134350288425444,-0.02));
#906=CARTESIAN_POINT('',(-0.0134350288425444,0.0134350288425444,-0.025));
#907=CARTESIAN_POINT('',(-0.0134350288425444,0.0134350288425444,-0.02));
#908=CARTESIAN_POINT('',(-0.0094350288425444,0.0134350288425444,-0.02));
#909=CARTESIAN_POINT('',(-0.0134350288425444,-0.0134350288425444,-0.025));
#910=CARTESIAN_POINT('',(-0.0134350288425444,-0.0134350288425444,-0.02));
#911=CARTESIAN_POINT('',(-0.0094350288425444,-0.0134350288425444,-0.02));
#912=CARTESIAN_POINT('',(0.,1.71450551880629E-18,-0.025));
#913=CARTESIAN_POINT('',(0.,1.71450551880629E-18,-0.02));
#914=CARTESIAN_POINT('',(0.028,1.71450551880629E-18,-0.02));
#915=CARTESIAN_POINT('',(0.,0.,-0.02));
#916=MECHANICAL_DESIGN_GEOMETRIC_PRESENTATION_REPRESENTATION('',(#499),
#917);
#917=(
GEOMETRIC_REPRESENTATION_CONTEXT(3)
GLOBAL_UNCERTAINTY_ASSIGNED_CONTEXT((#918))
GLOBAL_UNIT_ASSIGNED_CONTEXT((#921,#920,#919))
REPRESENTATION_CONTEXT('Part 1','TOP_LEVEL_ASSEMBLY_PART')
);
#918=UNCERTAINTY_MEASURE_WITH_UNIT(LENGTH_MEASURE(2.E-5),#921,
'DISTANCE_ACCURACY_VALUE','Maximum Tolerance applied to model');
#919=(
NAMED_UNIT(*)
SI_UNIT($,.STERADIAN.)
SOLID_ANGLE_UNIT()
);
#920=(
NAMED_UNIT(*)
PLANE_ANGLE_UNIT()
SI_UNIT($,.RADIAN.)
);
#921=(
LENGTH_UNIT()
NAMED_UNIT(*)
SI_UNIT($,.METRE.)
);
#922=PRODUCT_DEFINITION_SHAPE('','',#923);
#923=PRODUCT_DEFINITION('','',#925,#924);
#924=PRODUCT_DEFINITION_CONTEXT('',#931,'design');
#925=PRODUCT_DEFINITION_FORMATION_WITH_SPECIFIED_SOURCE('','',#927,
 .NOT_KNOWN.);
#926=PRODUCT_RELATED_PRODUCT_CATEGORY('','',(#927));
#927=PRODUCT('Part 1','Part 1','Part 1',(#929));
#928=PRODUCT_CATEGORY('','');
#929=PRODUCT_CONTEXT('',#931,'mechanical');
#930=APPLICATION_PROTOCOL_DEFINITION('international standard',
'ap242_managed_model_based_3d_engineering',2020,#931);
#931=APPLICATION_CONTEXT('managed model based 3d engineering');
ENDSEC;
END-ISO-10303-21;
