ISO-10303-21;
HEADER;
/* Generated by software containing ST-Developer
 * from STEP Tools, Inc. (www.steptools.com) 
 */
/* OPTION: using custom renumber hook */

FILE_DESCRIPTION(
/* description */ ('STEP AP242 Edition 2',
'CAx-IF Rec.Pracs.---Representation and Presentation of Product Manufa
cturing Information (PMI)---4.0---2014-10-13',
'CAx-IF Rec.Pracs.---3D Tessellated Geometry---0.4---2014-09-14','2;1',
'CAx-IF Rec.Pracs.---User Defined Attributes---1.5---2016-08-15'),
/* implementation_level */ '2;1');

FILE_NAME(
/* name */ 'Part Studio 8',
/* time_stamp */ '2026-09-09T15:03:53Z',
/* author */ (''),
/* organization */ (''),
/* preprocessor_version */ 'ST-DEVELOPER v20',
/* originating_system */ 'ONSHAPE BY PTC INC, 1.220',
/* authorisation */ '  ');

FILE_SCHEMA (('AP242_MANAGED_MODEL_BASED_3D_ENGINEERING_MIM_LF { 1 0 10303 442 3 1 4 }'));
ENDSEC;

DATA;
#10=SHAPE_REPRESENTATION_RELATIONSHIP('','',#865,#11);
#11=ADVANCED_BREP_SHAPE_REPRESENTATION('',(#863),#1347);
#12=ORIENTED_EDGE('',*,*,#252,.F.);
#13=ORIENTED_EDGE('',*,*,#253,.F.);
#14=ORIENTED_EDGE('',*,*,#254,.T.);
#15=ORIENTED_EDGE('',*,*,#255,.F.);
#16=ORIENTED_EDGE('',*,*,#256,.F.);
#17=ORIENTED_EDGE('',*,*,#257,.T.);
#18=ORIENTED_EDGE('',*,*,#258,.T.);
#19=ORIENTED_EDGE('',*,*,#259,.F.);
#20=ORIENTED_EDGE('',*,*,#260,.F.);
#21=ORIENTED_EDGE('',*,*,#261,.F.);
#22=ORIENTED_EDGE('',*,*,#262,.T.);
#23=ORIENTED_EDGE('',*,*,#263,.F.);
#24=ORIENTED_EDGE('',*,*,#264,.F.);
#25=ORIENTED_EDGE('',*,*,#265,.F.);
#26=ORIENTED_EDGE('',*,*,#266,.T.);
#27=ORIENTED_EDGE('',*,*,#256,.T.);
#28=ORIENTED_EDGE('',*,*,#267,.T.);
#29=ORIENTED_EDGE('',*,*,#268,.F.);
#30=ORIENTED_EDGE('',*,*,#269,.F.);
#31=ORIENTED_EDGE('',*,*,#265,.T.);
#32=ORIENTED_EDGE('',*,*,#270,.T.);
#33=ORIENTED_EDGE('',*,*,#258,.F.);
#34=ORIENTED_EDGE('',*,*,#271,.F.);
#35=ORIENTED_EDGE('',*,*,#268,.T.);
#36=ORIENTED_EDGE('',*,*,#257,.F.);
#37=ORIENTED_EDGE('',*,*,#266,.F.);
#38=ORIENTED_EDGE('',*,*,#269,.T.);
#39=ORIENTED_EDGE('',*,*,#271,.T.);
#40=ORIENTED_EDGE('',*,*,#272,.F.);
#41=ORIENTED_EDGE('',*,*,#263,.T.);
#42=ORIENTED_EDGE('',*,*,#273,.T.);
#43=ORIENTED_EDGE('',*,*,#274,.F.);
#44=ORIENTED_EDGE('',*,*,#255,.T.);
#45=ORIENTED_EDGE('',*,*,#275,.T.);
#46=ORIENTED_EDGE('',*,*,#276,.F.);
#47=ORIENTED_EDGE('',*,*,#277,.T.);
#48=ORIENTED_EDGE('',*,*,#278,.T.);
#49=ORIENTED_EDGE('',*,*,#279,.T.);
#50=ORIENTED_EDGE('',*,*,#280,.F.);
#51=ORIENTED_EDGE('',*,*,#281,.T.);
#52=ORIENTED_EDGE('',*,*,#282,.T.);
#53=ORIENTED_EDGE('',*,*,#283,.T.);
#54=ORIENTED_EDGE('',*,*,#284,.F.);
#55=ORIENTED_EDGE('',*,*,#285,.T.);
#56=ORIENTED_EDGE('',*,*,#286,.T.);
#57=ORIENTED_EDGE('',*,*,#287,.F.);
#58=ORIENTED_EDGE('',*,*,#288,.F.);
#59=ORIENTED_EDGE('',*,*,#289,.F.);
#60=ORIENTED_EDGE('',*,*,#290,.T.);
#61=ORIENTED_EDGE('',*,*,#291,.F.);
#62=ORIENTED_EDGE('',*,*,#292,.F.);
#63=ORIENTED_EDGE('',*,*,#293,.F.);
#64=ORIENTED_EDGE('',*,*,#294,.T.);
#65=ORIENTED_EDGE('',*,*,#295,.F.);
#66=ORIENTED_EDGE('',*,*,#296,.F.);
#67=ORIENTED_EDGE('',*,*,#297,.F.);
#68=ORIENTED_EDGE('',*,*,#259,.T.);
#69=ORIENTED_EDGE('',*,*,#270,.F.);
#70=ORIENTED_EDGE('',*,*,#267,.F.);
#71=ORIENTED_EDGE('',*,*,#264,.T.);
#72=ORIENTED_EDGE('',*,*,#298,.F.);
#73=ORIENTED_EDGE('',*,*,#299,.T.);
#74=ORIENTED_EDGE('',*,*,#300,.T.);
#75=ORIENTED_EDGE('',*,*,#301,.F.);
#76=ORIENTED_EDGE('',*,*,#302,.F.);
#77=ORIENTED_EDGE('',*,*,#303,.T.);
#78=ORIENTED_EDGE('',*,*,#304,.T.);
#79=ORIENTED_EDGE('',*,*,#305,.F.);
#80=ORIENTED_EDGE('',*,*,#306,.F.);
#81=ORIENTED_EDGE('',*,*,#307,.T.);
#82=ORIENTED_EDGE('',*,*,#308,.T.);
#83=ORIENTED_EDGE('',*,*,#296,.T.);
#84=ORIENTED_EDGE('',*,*,#309,.F.);
#85=ORIENTED_EDGE('',*,*,#310,.F.);
#86=ORIENTED_EDGE('',*,*,#311,.T.);
#87=ORIENTED_EDGE('',*,*,#276,.T.);
#88=ORIENTED_EDGE('',*,*,#312,.F.);
#89=ORIENTED_EDGE('',*,*,#313,.T.);
#90=ORIENTED_EDGE('',*,*,#314,.T.);
#91=ORIENTED_EDGE('',*,*,#274,.T.);
#92=ORIENTED_EDGE('',*,*,#295,.T.);
#93=ORIENTED_EDGE('',*,*,#315,.F.);
#94=ORIENTED_EDGE('',*,*,#316,.F.);
#95=ORIENTED_EDGE('',*,*,#309,.T.);
#96=ORIENTED_EDGE('',*,*,#317,.F.);
#97=ORIENTED_EDGE('',*,*,#318,.F.);
#98=ORIENTED_EDGE('',*,*,#319,.T.);
#99=ORIENTED_EDGE('',*,*,#278,.F.);
#100=ORIENTED_EDGE('',*,*,#320,.F.);
#101=ORIENTED_EDGE('',*,*,#321,.T.);
#102=ORIENTED_EDGE('',*,*,#315,.T.);
#103=ORIENTED_EDGE('',*,*,#294,.F.);
#104=ORIENTED_EDGE('',*,*,#322,.F.);
#105=ORIENTED_EDGE('',*,*,#323,.F.);
#106=ORIENTED_EDGE('',*,*,#324,.T.);
#107=ORIENTED_EDGE('',*,*,#299,.F.);
#108=ORIENTED_EDGE('',*,*,#277,.F.);
#109=ORIENTED_EDGE('',*,*,#311,.F.);
#110=ORIENTED_EDGE('',*,*,#325,.T.);
#111=ORIENTED_EDGE('',*,*,#320,.T.);
#112=ORIENTED_EDGE('',*,*,#310,.T.);
#113=ORIENTED_EDGE('',*,*,#316,.T.);
#114=ORIENTED_EDGE('',*,*,#321,.F.);
#115=ORIENTED_EDGE('',*,*,#325,.F.);
#116=ORIENTED_EDGE('',*,*,#326,.F.);
#117=ORIENTED_EDGE('',*,*,#327,.T.);
#118=ORIENTED_EDGE('',*,*,#328,.T.);
#119=ORIENTED_EDGE('',*,*,#292,.T.);
#120=ORIENTED_EDGE('',*,*,#329,.F.);
#121=ORIENTED_EDGE('',*,*,#330,.F.);
#122=ORIENTED_EDGE('',*,*,#331,.T.);
#123=ORIENTED_EDGE('',*,*,#280,.T.);
#124=ORIENTED_EDGE('',*,*,#332,.F.);
#125=ORIENTED_EDGE('',*,*,#333,.T.);
#126=ORIENTED_EDGE('',*,*,#334,.T.);
#127=ORIENTED_EDGE('',*,*,#301,.T.);
#128=ORIENTED_EDGE('',*,*,#335,.F.);
#129=ORIENTED_EDGE('',*,*,#336,.F.);
#130=ORIENTED_EDGE('',*,*,#337,.T.);
#131=ORIENTED_EDGE('',*,*,#282,.F.);
#132=ORIENTED_EDGE('',*,*,#338,.F.);
#133=ORIENTED_EDGE('',*,*,#339,.T.);
#134=ORIENTED_EDGE('',*,*,#340,.T.);
#135=ORIENTED_EDGE('',*,*,#290,.F.);
#136=ORIENTED_EDGE('',*,*,#341,.F.);
#137=ORIENTED_EDGE('',*,*,#342,.F.);
#138=ORIENTED_EDGE('',*,*,#343,.T.);
#139=ORIENTED_EDGE('',*,*,#303,.F.);
#140=ORIENTED_EDGE('',*,*,#281,.F.);
#141=ORIENTED_EDGE('',*,*,#331,.F.);
#142=ORIENTED_EDGE('',*,*,#344,.T.);
#143=ORIENTED_EDGE('',*,*,#338,.T.);
#144=ORIENTED_EDGE('',*,*,#291,.T.);
#145=ORIENTED_EDGE('',*,*,#340,.F.);
#146=ORIENTED_EDGE('',*,*,#345,.F.);
#147=ORIENTED_EDGE('',*,*,#329,.T.);
#148=ORIENTED_EDGE('',*,*,#339,.F.);
#149=ORIENTED_EDGE('',*,*,#344,.F.);
#150=ORIENTED_EDGE('',*,*,#330,.T.);
#151=ORIENTED_EDGE('',*,*,#345,.T.);
#152=ORIENTED_EDGE('',*,*,#346,.F.);
#153=ORIENTED_EDGE('',*,*,#347,.T.);
#154=ORIENTED_EDGE('',*,*,#348,.T.);
#155=ORIENTED_EDGE('',*,*,#288,.T.);
#156=ORIENTED_EDGE('',*,*,#349,.F.);
#157=ORIENTED_EDGE('',*,*,#350,.F.);
#158=ORIENTED_EDGE('',*,*,#351,.T.);
#159=ORIENTED_EDGE('',*,*,#284,.T.);
#160=ORIENTED_EDGE('',*,*,#352,.F.);
#161=ORIENTED_EDGE('',*,*,#353,.T.);
#162=ORIENTED_EDGE('',*,*,#354,.T.);
#163=ORIENTED_EDGE('',*,*,#305,.T.);
#164=ORIENTED_EDGE('',*,*,#287,.T.);
#165=ORIENTED_EDGE('',*,*,#355,.F.);
#166=ORIENTED_EDGE('',*,*,#356,.F.);
#167=ORIENTED_EDGE('',*,*,#349,.T.);
#168=ORIENTED_EDGE('',*,*,#286,.F.);
#169=ORIENTED_EDGE('',*,*,#357,.F.);
#170=ORIENTED_EDGE('',*,*,#358,.T.);
#171=ORIENTED_EDGE('',*,*,#355,.T.);
#172=ORIENTED_EDGE('',*,*,#285,.F.);
#173=ORIENTED_EDGE('',*,*,#351,.F.);
#174=ORIENTED_EDGE('',*,*,#359,.T.);
#175=ORIENTED_EDGE('',*,*,#357,.T.);
#176=ORIENTED_EDGE('',*,*,#350,.T.);
#177=ORIENTED_EDGE('',*,*,#356,.T.);
#178=ORIENTED_EDGE('',*,*,#358,.F.);
#179=ORIENTED_EDGE('',*,*,#359,.F.);
#180=ORIENTED_EDGE('',*,*,#283,.F.);
#181=ORIENTED_EDGE('',*,*,#337,.F.);
#182=ORIENTED_EDGE('',*,*,#360,.T.);
#183=ORIENTED_EDGE('',*,*,#352,.T.);
#184=ORIENTED_EDGE('',*,*,#302,.T.);
#185=ORIENTED_EDGE('',*,*,#354,.F.);
#186=ORIENTED_EDGE('',*,*,#361,.F.);
#187=ORIENTED_EDGE('',*,*,#335,.T.);
#188=ORIENTED_EDGE('',*,*,#360,.F.);
#189=ORIENTED_EDGE('',*,*,#336,.T.);
#190=ORIENTED_EDGE('',*,*,#361,.T.);
#191=ORIENTED_EDGE('',*,*,#353,.F.);
#192=ORIENTED_EDGE('',*,*,#304,.F.);
#193=ORIENTED_EDGE('',*,*,#343,.F.);
#194=ORIENTED_EDGE('',*,*,#362,.T.);
#195=ORIENTED_EDGE('',*,*,#346,.T.);
#196=ORIENTED_EDGE('',*,*,#289,.T.);
#197=ORIENTED_EDGE('',*,*,#348,.F.);
#198=ORIENTED_EDGE('',*,*,#363,.F.);
#199=ORIENTED_EDGE('',*,*,#341,.T.);
#200=ORIENTED_EDGE('',*,*,#362,.F.);
#201=ORIENTED_EDGE('',*,*,#342,.T.);
#202=ORIENTED_EDGE('',*,*,#363,.T.);
#203=ORIENTED_EDGE('',*,*,#347,.F.);
#204=ORIENTED_EDGE('',*,*,#279,.F.);
#205=ORIENTED_EDGE('',*,*,#319,.F.);
#206=ORIENTED_EDGE('',*,*,#364,.T.);
#207=ORIENTED_EDGE('',*,*,#332,.T.);
#208=ORIENTED_EDGE('',*,*,#298,.T.);
#209=ORIENTED_EDGE('',*,*,#334,.F.);
#210=ORIENTED_EDGE('',*,*,#365,.F.);
#211=ORIENTED_EDGE('',*,*,#317,.T.);
#212=ORIENTED_EDGE('',*,*,#364,.F.);
#213=ORIENTED_EDGE('',*,*,#318,.T.);
#214=ORIENTED_EDGE('',*,*,#365,.T.);
#215=ORIENTED_EDGE('',*,*,#333,.F.);
#216=ORIENTED_EDGE('',*,*,#300,.F.);
#217=ORIENTED_EDGE('',*,*,#324,.F.);
#218=ORIENTED_EDGE('',*,*,#366,.T.);
#219=ORIENTED_EDGE('',*,*,#326,.T.);
#220=ORIENTED_EDGE('',*,*,#293,.T.);
#221=ORIENTED_EDGE('',*,*,#328,.F.);
#222=ORIENTED_EDGE('',*,*,#367,.F.);
#223=ORIENTED_EDGE('',*,*,#322,.T.);
#224=ORIENTED_EDGE('',*,*,#366,.F.);
#225=ORIENTED_EDGE('',*,*,#323,.T.);
#226=ORIENTED_EDGE('',*,*,#367,.T.);
#227=ORIENTED_EDGE('',*,*,#327,.F.);
#228=ORIENTED_EDGE('',*,*,#275,.F.);
#229=ORIENTED_EDGE('',*,*,#254,.F.);
#230=ORIENTED_EDGE('',*,*,#368,.T.);
#231=ORIENTED_EDGE('',*,*,#312,.T.);
#232=ORIENTED_EDGE('',*,*,#272,.T.);
#233=ORIENTED_EDGE('',*,*,#314,.F.);
#234=ORIENTED_EDGE('',*,*,#369,.F.);
#235=ORIENTED_EDGE('',*,*,#252,.T.);
#236=ORIENTED_EDGE('',*,*,#368,.F.);
#237=ORIENTED_EDGE('',*,*,#253,.T.);
#238=ORIENTED_EDGE('',*,*,#369,.T.);
#239=ORIENTED_EDGE('',*,*,#313,.F.);
#240=ORIENTED_EDGE('',*,*,#273,.F.);
#241=ORIENTED_EDGE('',*,*,#262,.F.);
#242=ORIENTED_EDGE('',*,*,#370,.T.);
#243=ORIENTED_EDGE('',*,*,#306,.T.);
#244=ORIENTED_EDGE('',*,*,#297,.T.);
#245=ORIENTED_EDGE('',*,*,#308,.F.);
#246=ORIENTED_EDGE('',*,*,#371,.F.);
#247=ORIENTED_EDGE('',*,*,#260,.T.);
#248=ORIENTED_EDGE('',*,*,#370,.F.);
#249=ORIENTED_EDGE('',*,*,#261,.T.);
#250=ORIENTED_EDGE('',*,*,#371,.T.);
#251=ORIENTED_EDGE('',*,*,#307,.F.);
#252=EDGE_CURVE('',#372,#373,#452,.T.);
#253=EDGE_CURVE('',#374,#372,#453,.T.);
#254=EDGE_CURVE('',#374,#375,#454,.T.);
#255=EDGE_CURVE('',#376,#375,#455,.T.);
#256=EDGE_CURVE('',#377,#376,#456,.T.);
#257=EDGE_CURVE('',#377,#378,#457,.T.);
#258=EDGE_CURVE('',#378,#379,#458,.T.);
#259=EDGE_CURVE('',#380,#379,#459,.T.);
#260=EDGE_CURVE('',#381,#380,#460,.T.);
#261=EDGE_CURVE('',#382,#381,#461,.T.);
#262=EDGE_CURVE('',#382,#383,#462,.T.);
#263=EDGE_CURVE('',#373,#383,#463,.T.);
#264=EDGE_CURVE('',#384,#376,#464,.T.);
#265=EDGE_CURVE('',#385,#384,#465,.T.);
#266=EDGE_CURVE('',#385,#377,#466,.T.);
#267=EDGE_CURVE('',#384,#386,#467,.T.);
#268=EDGE_CURVE('',#387,#386,#468,.T.);
#269=EDGE_CURVE('',#385,#387,#469,.T.);
#270=EDGE_CURVE('',#386,#379,#470,.T.);
#271=EDGE_CURVE('',#387,#378,#471,.T.);
#272=EDGE_CURVE('',#373,#388,#472,.T.);
#273=EDGE_CURVE('',#383,#389,#473,.T.);
#274=EDGE_CURVE('',#388,#389,#474,.T.);
#275=EDGE_CURVE('',#375,#390,#475,.T.);
#276=EDGE_CURVE('',#391,#390,#476,.T.);
#277=EDGE_CURVE('',#391,#392,#477,.T.);
#278=EDGE_CURVE('',#392,#393,#478,.T.);
#279=EDGE_CURVE('',#393,#394,#479,.T.);
#280=EDGE_CURVE('',#395,#394,#480,.T.);
#281=EDGE_CURVE('',#395,#396,#481,.T.);
#282=EDGE_CURVE('',#396,#397,#482,.T.);
#283=EDGE_CURVE('',#397,#398,#483,.T.);
#284=EDGE_CURVE('',#399,#398,#484,.T.);
#285=EDGE_CURVE('',#399,#400,#485,.T.);
#286=EDGE_CURVE('',#400,#401,#486,.T.);
#287=EDGE_CURVE('',#402,#401,#487,.T.);
#288=EDGE_CURVE('',#403,#402,#488,.T.);
#289=EDGE_CURVE('',#404,#403,#489,.T.);
#290=EDGE_CURVE('',#404,#405,#490,.T.);
#291=EDGE_CURVE('',#406,#405,#491,.T.);
#292=EDGE_CURVE('',#407,#406,#492,.T.);
#293=EDGE_CURVE('',#408,#407,#493,.T.);
#294=EDGE_CURVE('',#408,#409,#494,.T.);
#295=EDGE_CURVE('',#410,#409,#495,.T.);
#296=EDGE_CURVE('',#411,#410,#496,.T.);
#297=EDGE_CURVE('',#380,#411,#497,.T.);
#298=EDGE_CURVE('',#412,#413,#498,.T.);
#299=EDGE_CURVE('',#412,#414,#499,.T.);
#300=EDGE_CURVE('',#414,#415,#500,.T.);
#301=EDGE_CURVE('',#413,#415,#501,.T.);
#302=EDGE_CURVE('',#416,#417,#502,.T.);
#303=EDGE_CURVE('',#416,#418,#503,.T.);
#304=EDGE_CURVE('',#418,#419,#504,.T.);
#305=EDGE_CURVE('',#417,#419,#505,.T.);
#306=EDGE_CURVE('',#420,#389,#506,.T.);
#307=EDGE_CURVE('',#420,#421,#507,.T.);
#308=EDGE_CURVE('',#421,#411,#508,.T.);
#309=EDGE_CURVE('',#422,#410,#509,.T.);
#310=EDGE_CURVE('',#423,#422,#510,.T.);
#311=EDGE_CURVE('',#423,#391,#511,.T.);
#312=EDGE_CURVE('',#424,#390,#512,.T.);
#313=EDGE_CURVE('',#424,#425,#513,.T.);
#314=EDGE_CURVE('',#425,#388,#514,.T.);
#315=EDGE_CURVE('',#426,#409,#515,.T.);
#316=EDGE_CURVE('',#422,#426,#516,.T.);
#317=EDGE_CURVE('',#427,#412,#517,.T.);
#318=EDGE_CURVE('',#428,#427,#518,.T.);
#319=EDGE_CURVE('',#428,#393,#519,.T.);
#320=EDGE_CURVE('',#429,#392,#520,.T.);
#321=EDGE_CURVE('',#429,#426,#521,.T.);
#322=EDGE_CURVE('',#430,#408,#522,.T.);
#323=EDGE_CURVE('',#431,#430,#523,.T.);
#324=EDGE_CURVE('',#431,#414,#524,.T.);
#325=EDGE_CURVE('',#423,#429,#525,.T.);
#326=EDGE_CURVE('',#432,#415,#526,.T.);
#327=EDGE_CURVE('',#432,#433,#527,.T.);
#328=EDGE_CURVE('',#433,#407,#528,.T.);
#329=EDGE_CURVE('',#434,#406,#529,.T.);
#330=EDGE_CURVE('',#435,#434,#530,.T.);
#331=EDGE_CURVE('',#435,#395,#531,.T.);
#332=EDGE_CURVE('',#436,#394,#532,.T.);
#333=EDGE_CURVE('',#436,#437,#533,.T.);
#334=EDGE_CURVE('',#437,#413,#534,.T.);
#335=EDGE_CURVE('',#438,#416,#535,.T.);
#336=EDGE_CURVE('',#439,#438,#536,.T.);
#337=EDGE_CURVE('',#439,#397,#537,.T.);
#338=EDGE_CURVE('',#440,#396,#538,.T.);
#339=EDGE_CURVE('',#440,#441,#539,.T.);
#340=EDGE_CURVE('',#441,#405,#540,.T.);
#341=EDGE_CURVE('',#442,#404,#541,.T.);
#342=EDGE_CURVE('',#443,#442,#542,.T.);
#343=EDGE_CURVE('',#443,#418,#543,.T.);
#344=EDGE_CURVE('',#435,#440,#544,.T.);
#345=EDGE_CURVE('',#434,#441,#545,.T.);
#346=EDGE_CURVE('',#444,#419,#546,.T.);
#347=EDGE_CURVE('',#444,#445,#547,.T.);
#348=EDGE_CURVE('',#445,#403,#548,.T.);
#349=EDGE_CURVE('',#446,#402,#549,.T.);
#350=EDGE_CURVE('',#447,#446,#550,.T.);
#351=EDGE_CURVE('',#447,#399,#551,.T.);
#352=EDGE_CURVE('',#448,#398,#552,.T.);
#353=EDGE_CURVE('',#448,#449,#553,.T.);
#354=EDGE_CURVE('',#449,#417,#554,.T.);
#355=EDGE_CURVE('',#450,#401,#555,.T.);
#356=EDGE_CURVE('',#446,#450,#556,.T.);
#357=EDGE_CURVE('',#451,#400,#557,.T.);
#358=EDGE_CURVE('',#451,#450,#558,.T.);
#359=EDGE_CURVE('',#447,#451,#559,.T.);
#360=EDGE_CURVE('',#439,#448,#560,.T.);
#361=EDGE_CURVE('',#438,#449,#561,.T.);
#362=EDGE_CURVE('',#443,#444,#562,.T.);
#363=EDGE_CURVE('',#442,#445,#563,.T.);
#364=EDGE_CURVE('',#428,#436,#564,.T.);
#365=EDGE_CURVE('',#427,#437,#565,.T.);
#366=EDGE_CURVE('',#431,#432,#566,.T.);
#367=EDGE_CURVE('',#430,#433,#567,.T.);
#368=EDGE_CURVE('',#374,#424,#568,.T.);
#369=EDGE_CURVE('',#372,#425,#569,.T.);
#370=EDGE_CURVE('',#382,#420,#570,.T.);
#371=EDGE_CURVE('',#381,#421,#571,.T.);
#372=VERTEX_POINT('',#1109);
#373=VERTEX_POINT('',#1110);
#374=VERTEX_POINT('',#1112);
#375=VERTEX_POINT('',#1114);
#376=VERTEX_POINT('',#1116);
#377=VERTEX_POINT('',#1118);
#378=VERTEX_POINT('',#1120);
#379=VERTEX_POINT('',#1122);
#380=VERTEX_POINT('',#1124);
#381=VERTEX_POINT('',#1126);
#382=VERTEX_POINT('',#1128);
#383=VERTEX_POINT('',#1130);
#384=VERTEX_POINT('',#1134);
#385=VERTEX_POINT('',#1136);
#386=VERTEX_POINT('',#1140);
#387=VERTEX_POINT('',#1142);
#388=VERTEX_POINT('',#1150);
#389=VERTEX_POINT('',#1152);
#390=VERTEX_POINT('',#1155);
#391=VERTEX_POINT('',#1157);
#392=VERTEX_POINT('',#1159);
#393=VERTEX_POINT('',#1161);
#394=VERTEX_POINT('',#1163);
#395=VERTEX_POINT('',#1165);
#396=VERTEX_POINT('',#1167);
#397=VERTEX_POINT('',#1169);
#398=VERTEX_POINT('',#1171);
#399=VERTEX_POINT('',#1173);
#400=VERTEX_POINT('',#1175);
#401=VERTEX_POINT('',#1177);
#402=VERTEX_POINT('',#1179);
#403=VERTEX_POINT('',#1181);
#404=VERTEX_POINT('',#1183);
#405=VERTEX_POINT('',#1185);
#406=VERTEX_POINT('',#1187);
#407=VERTEX_POINT('',#1189);
#408=VERTEX_POINT('',#1191);
#409=VERTEX_POINT('',#1193);
#410=VERTEX_POINT('',#1195);
#411=VERTEX_POINT('',#1197);
#412=VERTEX_POINT('',#1200);
#413=VERTEX_POINT('',#1201);
#414=VERTEX_POINT('',#1203);
#415=VERTEX_POINT('',#1205);
#416=VERTEX_POINT('',#1208);
#417=VERTEX_POINT('',#1209);
#418=VERTEX_POINT('',#1211);
#419=VERTEX_POINT('',#1213);
#420=VERTEX_POINT('',#1217);
#421=VERTEX_POINT('',#1219);
#422=VERTEX_POINT('',#1222);
#423=VERTEX_POINT('',#1224);
#424=VERTEX_POINT('',#1227);
#425=VERTEX_POINT('',#1229);
#426=VERTEX_POINT('',#1233);
#427=VERTEX_POINT('',#1237);
#428=VERTEX_POINT('',#1239);
#429=VERTEX_POINT('',#1242);
#430=VERTEX_POINT('',#1245);
#431=VERTEX_POINT('',#1247);
#432=VERTEX_POINT('',#1254);
#433=VERTEX_POINT('',#1256);
#434=VERTEX_POINT('',#1259);
#435=VERTEX_POINT('',#1261);
#436=VERTEX_POINT('',#1264);
#437=VERTEX_POINT('',#1266);
#438=VERTEX_POINT('',#1270);
#439=VERTEX_POINT('',#1272);
#440=VERTEX_POINT('',#1275);
#441=VERTEX_POINT('',#1277);
#442=VERTEX_POINT('',#1280);
#443=VERTEX_POINT('',#1282);
#444=VERTEX_POINT('',#1291);
#445=VERTEX_POINT('',#1293);
#446=VERTEX_POINT('',#1296);
#447=VERTEX_POINT('',#1298);
#448=VERTEX_POINT('',#1301);
#449=VERTEX_POINT('',#1303);
#450=VERTEX_POINT('',#1307);
#451=VERTEX_POINT('',#1311);
#452=LINE('',#1108,#572);
#453=LINE('',#1111,#573);
#454=LINE('',#1113,#574);
#455=LINE('',#1115,#575);
#456=LINE('',#1117,#576);
#457=LINE('',#1119,#577);
#458=LINE('',#1121,#578);
#459=LINE('',#1123,#579);
#460=LINE('',#1125,#580);
#461=LINE('',#1127,#581);
#462=LINE('',#1129,#582);
#463=LINE('',#1131,#583);
#464=LINE('',#1133,#584);
#465=LINE('',#1135,#585);
#466=LINE('',#1137,#586);
#467=LINE('',#1139,#587);
#468=LINE('',#1141,#588);
#469=LINE('',#1143,#589);
#470=LINE('',#1145,#590);
#471=LINE('',#1146,#591);
#472=LINE('',#1149,#592);
#473=LINE('',#1151,#593);
#474=LINE('',#1153,#594);
#475=LINE('',#1154,#595);
#476=LINE('',#1156,#596);
#477=LINE('',#1158,#597);
#478=LINE('',#1160,#598);
#479=LINE('',#1162,#599);
#480=LINE('',#1164,#600);
#481=LINE('',#1166,#601);
#482=LINE('',#1168,#602);
#483=LINE('',#1170,#603);
#484=LINE('',#1172,#604);
#485=LINE('',#1174,#605);
#486=LINE('',#1176,#606);
#487=LINE('',#1178,#607);
#488=LINE('',#1180,#608);
#489=LINE('',#1182,#609);
#490=LINE('',#1184,#610);
#491=LINE('',#1186,#611);
#492=LINE('',#1188,#612);
#493=LINE('',#1190,#613);
#494=LINE('',#1192,#614);
#495=LINE('',#1194,#615);
#496=LINE('',#1196,#616);
#497=LINE('',#1198,#617);
#498=LINE('',#1199,#618);
#499=LINE('',#1202,#619);
#500=LINE('',#1204,#620);
#501=LINE('',#1206,#621);
#502=LINE('',#1207,#622);
#503=LINE('',#1210,#623);
#504=LINE('',#1212,#624);
#505=LINE('',#1214,#625);
#506=LINE('',#1216,#626);
#507=LINE('',#1218,#627);
#508=LINE('',#1220,#628);
#509=LINE('',#1221,#629);
#510=LINE('',#1223,#630);
#511=LINE('',#1225,#631);
#512=LINE('',#1226,#632);
#513=LINE('',#1228,#633);
#514=LINE('',#1230,#634);
#515=LINE('',#1232,#635);
#516=LINE('',#1234,#636);
#517=LINE('',#1236,#637);
#518=LINE('',#1238,#638);
#519=LINE('',#1240,#639);
#520=LINE('',#1241,#640);
#521=LINE('',#1243,#641);
#522=LINE('',#1244,#642);
#523=LINE('',#1246,#643);
#524=LINE('',#1248,#644);
#525=LINE('',#1250,#645);
#526=LINE('',#1253,#646);
#527=LINE('',#1255,#647);
#528=LINE('',#1257,#648);
#529=LINE('',#1258,#649);
#530=LINE('',#1260,#650);
#531=LINE('',#1262,#651);
#532=LINE('',#1263,#652);
#533=LINE('',#1265,#653);
#534=LINE('',#1267,#654);
#535=LINE('',#1269,#655);
#536=LINE('',#1271,#656);
#537=LINE('',#1273,#657);
#538=LINE('',#1274,#658);
#539=LINE('',#1276,#659);
#540=LINE('',#1278,#660);
#541=LINE('',#1279,#661);
#542=LINE('',#1281,#662);
#543=LINE('',#1283,#663);
#544=LINE('',#1285,#664);
#545=LINE('',#1287,#665);
#546=LINE('',#1290,#666);
#547=LINE('',#1292,#667);
#548=LINE('',#1294,#668);
#549=LINE('',#1295,#669);
#550=LINE('',#1297,#670);
#551=LINE('',#1299,#671);
#552=LINE('',#1300,#672);
#553=LINE('',#1302,#673);
#554=LINE('',#1304,#674);
#555=LINE('',#1306,#675);
#556=LINE('',#1308,#676);
#557=LINE('',#1310,#677);
#558=LINE('',#1312,#678);
#559=LINE('',#1314,#679);
#560=LINE('',#1317,#680);
#561=LINE('',#1319,#681);
#562=LINE('',#1322,#682);
#563=LINE('',#1324,#683);
#564=LINE('',#1327,#684);
#565=LINE('',#1329,#685);
#566=LINE('',#1332,#686);
#567=LINE('',#1334,#687);
#568=LINE('',#1337,#688);
#569=LINE('',#1339,#689);
#570=LINE('',#1342,#690);
#571=LINE('',#1344,#691);
#572=VECTOR('',#910,1.);
#573=VECTOR('',#911,1.);
#574=VECTOR('',#912,1.);
#575=VECTOR('',#913,1.);
#576=VECTOR('',#914,1.);
#577=VECTOR('',#915,1.);
#578=VECTOR('',#916,1.);
#579=VECTOR('',#917,1.);
#580=VECTOR('',#918,1.);
#581=VECTOR('',#919,1.);
#582=VECTOR('',#920,1.);
#583=VECTOR('',#921,1.);
#584=VECTOR('',#924,1.);
#585=VECTOR('',#925,1.);
#586=VECTOR('',#926,1.);
#587=VECTOR('',#929,1.);
#588=VECTOR('',#930,1.);
#589=VECTOR('',#931,1.);
#590=VECTOR('',#934,1.);
#591=VECTOR('',#935,1.);
#592=VECTOR('',#940,1.);
#593=VECTOR('',#941,1.);
#594=VECTOR('',#942,1.);
#595=VECTOR('',#943,1.);
#596=VECTOR('',#944,1.);
#597=VECTOR('',#945,1.);
#598=VECTOR('',#946,1.);
#599=VECTOR('',#947,1.);
#600=VECTOR('',#948,1.);
#601=VECTOR('',#949,1.);
#602=VECTOR('',#950,1.);
#603=VECTOR('',#951,1.);
#604=VECTOR('',#952,1.);
#605=VECTOR('',#953,1.);
#606=VECTOR('',#954,1.);
#607=VECTOR('',#955,1.);
#608=VECTOR('',#956,1.);
#609=VECTOR('',#957,1.);
#610=VECTOR('',#958,1.);
#611=VECTOR('',#959,1.);
#612=VECTOR('',#960,1.);
#613=VECTOR('',#961,1.);
#614=VECTOR('',#962,1.);
#615=VECTOR('',#963,1.);
#616=VECTOR('',#964,1.);
#617=VECTOR('',#965,1.);
#618=VECTOR('',#966,1.);
#619=VECTOR('',#967,1.);
#620=VECTOR('',#968,1.);
#621=VECTOR('',#969,1.);
#622=VECTOR('',#970,1.);
#623=VECTOR('',#971,1.);
#624=VECTOR('',#972,1.);
#625=VECTOR('',#973,1.);
#626=VECTOR('',#976,1.);
#627=VECTOR('',#977,1.);
#628=VECTOR('',#978,1.);
#629=VECTOR('',#979,1.);
#630=VECTOR('',#980,1.);
#631=VECTOR('',#981,1.);
#632=VECTOR('',#982,1.);
#633=VECTOR('',#983,1.);
#634=VECTOR('',#984,1.);
#635=VECTOR('',#987,1.);
#636=VECTOR('',#988,1.);
#637=VECTOR('',#991,1.);
#638=VECTOR('',#992,1.);
#639=VECTOR('',#993,1.);
#640=VECTOR('',#994,1.);
#641=VECTOR('',#995,1.);
#642=VECTOR('',#996,1.);
#643=VECTOR('',#997,1.);
#644=VECTOR('',#998,1.);
#645=VECTOR('',#1001,1.);
#646=VECTOR('',#1006,1.);
#647=VECTOR('',#1007,1.);
#648=VECTOR('',#1008,1.);
#649=VECTOR('',#1009,1.);
#650=VECTOR('',#1010,1.);
#651=VECTOR('',#1011,1.);
#652=VECTOR('',#1012,1.);
#653=VECTOR('',#1013,1.);
#654=VECTOR('',#1014,1.);
#655=VECTOR('',#1017,1.);
#656=VECTOR('',#1018,1.);
#657=VECTOR('',#1019,1.);
#658=VECTOR('',#1020,1.);
#659=VECTOR('',#1021,1.);
#660=VECTOR('',#1022,1.);
#661=VECTOR('',#1023,1.);
#662=VECTOR('',#1024,1.);
#663=VECTOR('',#1025,1.);
#664=VECTOR('',#1028,1.);
#665=VECTOR('',#1031,1.);
#666=VECTOR('',#1036,1.);
#667=VECTOR('',#1037,1.);
#668=VECTOR('',#1038,1.);
#669=VECTOR('',#1039,1.);
#670=VECTOR('',#1040,1.);
#671=VECTOR('',#1041,1.);
#672=VECTOR('',#1042,1.);
#673=VECTOR('',#1043,1.);
#674=VECTOR('',#1044,1.);
#675=VECTOR('',#1047,1.);
#676=VECTOR('',#1048,1.);
#677=VECTOR('',#1051,1.);
#678=VECTOR('',#1052,1.);
#679=VECTOR('',#1055,1.);
#680=VECTOR('',#1060,1.);
#681=VECTOR('',#1063,1.);
#682=VECTOR('',#1068,1.);
#683=VECTOR('',#1071,1.);
#684=VECTOR('',#1076,1.);
#685=VECTOR('',#1079,1.);
#686=VECTOR('',#1084,1.);
#687=VECTOR('',#1087,1.);
#688=VECTOR('',#1092,1.);
#689=VECTOR('',#1095,1.);
#690=VECTOR('',#1100,1.);
#691=VECTOR('',#1103,1.);
#692=EDGE_LOOP('',(#12,#13,#14,#15,#16,#17,#18,#19,#20,#21,#22,#23));
#693=EDGE_LOOP('',(#24,#25,#26,#27));
#694=EDGE_LOOP('',(#28,#29,#30,#31));
#695=EDGE_LOOP('',(#32,#33,#34,#35));
#696=EDGE_LOOP('',(#36,#37,#38,#39));
#697=EDGE_LOOP('',(#40,#41,#42,#43));
#698=EDGE_LOOP('',(#44,#45,#46,#47,#48,#49,#50,#51,#52,#53,#54,#55,#56,
#57,#58,#59,#60,#61,#62,#63,#64,#65,#66,#67,#68,#69,#70,#71));
#699=EDGE_LOOP('',(#72,#73,#74,#75));
#700=EDGE_LOOP('',(#76,#77,#78,#79));
#701=EDGE_LOOP('',(#80,#81,#82,#83,#84,#85,#86,#87,#88,#89,#90,#91));
#702=EDGE_LOOP('',(#92,#93,#94,#95));
#703=EDGE_LOOP('',(#96,#97,#98,#99,#100,#101,#102,#103,#104,#105,#106,#107));
#704=EDGE_LOOP('',(#108,#109,#110,#111));
#705=EDGE_LOOP('',(#112,#113,#114,#115));
#706=EDGE_LOOP('',(#116,#117,#118,#119,#120,#121,#122,#123,#124,#125,#126,
#127));
#707=EDGE_LOOP('',(#128,#129,#130,#131,#132,#133,#134,#135,#136,#137,#138,
#139));
#708=EDGE_LOOP('',(#140,#141,#142,#143));
#709=EDGE_LOOP('',(#144,#145,#146,#147));
#710=EDGE_LOOP('',(#148,#149,#150,#151));
#711=EDGE_LOOP('',(#152,#153,#154,#155,#156,#157,#158,#159,#160,#161,#162,
#163));
#712=EDGE_LOOP('',(#164,#165,#166,#167));
#713=EDGE_LOOP('',(#168,#169,#170,#171));
#714=EDGE_LOOP('',(#172,#173,#174,#175));
#715=EDGE_LOOP('',(#176,#177,#178,#179));
#716=EDGE_LOOP('',(#180,#181,#182,#183));
#717=EDGE_LOOP('',(#184,#185,#186,#187));
#718=EDGE_LOOP('',(#188,#189,#190,#191));
#719=EDGE_LOOP('',(#192,#193,#194,#195));
#720=EDGE_LOOP('',(#196,#197,#198,#199));
#721=EDGE_LOOP('',(#200,#201,#202,#203));
#722=EDGE_LOOP('',(#204,#205,#206,#207));
#723=EDGE_LOOP('',(#208,#209,#210,#211));
#724=EDGE_LOOP('',(#212,#213,#214,#215));
#725=EDGE_LOOP('',(#216,#217,#218,#219));
#726=EDGE_LOOP('',(#220,#221,#222,#223));
#727=EDGE_LOOP('',(#224,#225,#226,#227));
#728=EDGE_LOOP('',(#228,#229,#230,#231));
#729=EDGE_LOOP('',(#232,#233,#234,#235));
#730=EDGE_LOOP('',(#236,#237,#238,#239));
#731=EDGE_LOOP('',(#240,#241,#242,#243));
#732=EDGE_LOOP('',(#244,#245,#246,#247));
#733=EDGE_LOOP('',(#248,#249,#250,#251));
#734=FACE_BOUND('',#692,.T.);
#735=FACE_BOUND('',#693,.T.);
#736=FACE_BOUND('',#694,.T.);
#737=FACE_BOUND('',#695,.T.);
#738=FACE_BOUND('',#696,.T.);
#739=FACE_BOUND('',#697,.T.);
#740=FACE_BOUND('',#698,.T.);
#741=FACE_BOUND('',#699,.T.);
#742=FACE_BOUND('',#700,.T.);
#743=FACE_BOUND('',#701,.T.);
#744=FACE_BOUND('',#702,.T.);
#745=FACE_BOUND('',#703,.T.);
#746=FACE_BOUND('',#704,.T.);
#747=FACE_BOUND('',#705,.T.);
#748=FACE_BOUND('',#706,.T.);
#749=FACE_BOUND('',#707,.T.);
#750=FACE_BOUND('',#708,.T.);
#751=FACE_BOUND('',#709,.T.);
#752=FACE_BOUND('',#710,.T.);
#753=FACE_BOUND('',#711,.T.);
#754=FACE_BOUND('',#712,.T.);
#755=FACE_BOUND('',#713,.T.);
#756=FACE_BOUND('',#714,.T.);
#757=FACE_BOUND('',#715,.T.);
#758=FACE_BOUND('',#716,.T.);
#759=FACE_BOUND('',#717,.T.);
#760=FACE_BOUND('',#718,.T.);
#761=FACE_BOUND('',#719,.T.);
#762=FACE_BOUND('',#720,.T.);
#763=FACE_BOUND('',#721,.T.);
#764=FACE_BOUND('',#722,.T.);
#765=FACE_BOUND('',#723,.T.);
#766=FACE_BOUND('',#724,.T.);
#767=FACE_BOUND('',#725,.T.);
#768=FACE_BOUND('',#726,.T.);
#769=FACE_BOUND('',#727,.T.);
#770=FACE_BOUND('',#728,.T.);
#771=FACE_BOUND('',#729,.T.);
#772=FACE_BOUND('',#730,.T.);
#773=FACE_BOUND('',#731,.T.);
#774=FACE_BOUND('',#732,.T.);
#775=FACE_BOUND('',#733,.T.);
#776=PLANE('',#867);
#777=PLANE('',#868);
#778=PLANE('',#869);
#779=PLANE('',#870);
#780=PLANE('',#871);
#781=PLANE('',#872);
#782=PLANE('',#873);
#783=PLANE('',#874);
#784=PLANE('',#875);
#785=PLANE('',#876);
#786=PLANE('',#877);
#787=PLANE('',#878);
#788=PLANE('',#879);
#789=PLANE('',#880);
#790=PLANE('',#881);
#791=PLANE('',#882);
#792=PLANE('',#883);
#793=PLANE('',#884);
#794=PLANE('',#885);
#795=PLANE('',#886);
#796=PLANE('',#887);
#797=PLANE('',#888);
#798=PLANE('',#889);
#799=PLANE('',#890);
#800=PLANE('',#891);
#801=PLANE('',#892);
#802=PLANE('',#893);
#803=PLANE('',#894);
#804=PLANE('',#895);
#805=PLANE('',#896);
#806=PLANE('',#897);
#807=PLANE('',#898);
#808=PLANE('',#899);
#809=PLANE('',#900);
#810=PLANE('',#901);
#811=PLANE('',#902);
#812=PLANE('',#903);
#813=PLANE('',#904);
#814=PLANE('',#905);
#815=ADVANCED_FACE('',(#734),#776,.T.);
#816=ADVANCED_FACE('',(#735),#777,.T.);
#817=ADVANCED_FACE('',(#736),#778,.F.);
#818=ADVANCED_FACE('',(#737),#779,.F.);
#819=ADVANCED_FACE('',(#738),#780,.T.);
#820=ADVANCED_FACE('',(#739,#740,#741,#742),#781,.F.);
#821=ADVANCED_FACE('',(#743),#782,.F.);
#822=ADVANCED_FACE('',(#744),#783,.F.);
#823=ADVANCED_FACE('',(#745),#784,.T.);
#824=ADVANCED_FACE('',(#746),#785,.T.);
#825=ADVANCED_FACE('',(#747),#786,.T.);
#826=ADVANCED_FACE('',(#748),#787,.F.);
#827=ADVANCED_FACE('',(#749),#788,.T.);
#828=ADVANCED_FACE('',(#750),#789,.T.);
#829=ADVANCED_FACE('',(#751),#790,.F.);
#830=ADVANCED_FACE('',(#752),#791,.T.);
#831=ADVANCED_FACE('',(#753),#792,.F.);
#832=ADVANCED_FACE('',(#754),#793,.F.);
#833=ADVANCED_FACE('',(#755),#794,.T.);
#834=ADVANCED_FACE('',(#756),#795,.T.);
#835=ADVANCED_FACE('',(#757),#796,.T.);
#836=ADVANCED_FACE('',(#758),#797,.T.);
#837=ADVANCED_FACE('',(#759),#798,.F.);
#838=ADVANCED_FACE('',(#760),#799,.T.);
#839=ADVANCED_FACE('',(#761),#800,.T.);
#840=ADVANCED_FACE('',(#762),#801,.F.);
#841=ADVANCED_FACE('',(#763),#802,.T.);
#842=ADVANCED_FACE('',(#764),#803,.T.);
#843=ADVANCED_FACE('',(#765),#804,.F.);
#844=ADVANCED_FACE('',(#766),#805,.T.);
#845=ADVANCED_FACE('',(#767),#806,.T.);
#846=ADVANCED_FACE('',(#768),#807,.F.);
#847=ADVANCED_FACE('',(#769),#808,.T.);
#848=ADVANCED_FACE('',(#770),#809,.T.);
#849=ADVANCED_FACE('',(#771),#810,.F.);
#850=ADVANCED_FACE('',(#772),#811,.T.);
#851=ADVANCED_FACE('',(#773),#812,.T.);
#852=ADVANCED_FACE('',(#774),#813,.F.);
#853=ADVANCED_FACE('',(#775),#814,.T.);
#854=CLOSED_SHELL('',(#815,#816,#817,#818,#819,#820,#821,#822,#823,#824,
#825,#826,#827,#828,#829,#830,#831,#832,#833,#834,#835,#836,#837,#838,#839,
#840,#841,#842,#843,#844,#845,#846,#847,#848,#849,#850,#851,#852,#853));
#855=STYLED_ITEM('',(#856),#863);
#856=PRESENTATION_STYLE_ASSIGNMENT((#857));
#857=SURFACE_STYLE_USAGE(.BOTH.,#858);
#858=SURFACE_SIDE_STYLE('',(#859));
#859=SURFACE_STYLE_FILL_AREA(#860);
#860=FILL_AREA_STYLE('',(#861));
#861=FILL_AREA_STYLE_COLOUR('',#862);
#862=COLOUR_RGB('',0.615686274509804,0.811764705882353,0.929411764705882);
#863=MANIFOLD_SOLID_BREP('Part 1',#854);
#864=SHAPE_DEFINITION_REPRESENTATION(#1352,#865);
#865=SHAPE_REPRESENTATION('Part 1',(#866),#1347);
#866=AXIS2_PLACEMENT_3D('',#1106,#906,#907);
#867=AXIS2_PLACEMENT_3D('',#1107,#908,#909);
#868=AXIS2_PLACEMENT_3D('',#1132,#922,#923);
#869=AXIS2_PLACEMENT_3D('',#1138,#927,#928);
#870=AXIS2_PLACEMENT_3D('',#1144,#932,#933);
#871=AXIS2_PLACEMENT_3D('',#1147,#936,#937);
#872=AXIS2_PLACEMENT_3D('',#1148,#938,#939);
#873=AXIS2_PLACEMENT_3D('',#1215,#974,#975);
#874=AXIS2_PLACEMENT_3D('',#1231,#985,#986);
#875=AXIS2_PLACEMENT_3D('',#1235,#989,#990);
#876=AXIS2_PLACEMENT_3D('',#1249,#999,#1000);
#877=AXIS2_PLACEMENT_3D('',#1251,#1002,#1003);
#878=AXIS2_PLACEMENT_3D('',#1252,#1004,#1005);
#879=AXIS2_PLACEMENT_3D('',#1268,#1015,#1016);
#880=AXIS2_PLACEMENT_3D('',#1284,#1026,#1027);
#881=AXIS2_PLACEMENT_3D('',#1286,#1029,#1030);
#882=AXIS2_PLACEMENT_3D('',#1288,#1032,#1033);
#883=AXIS2_PLACEMENT_3D('',#1289,#1034,#1035);
#884=AXIS2_PLACEMENT_3D('',#1305,#1045,#1046);
#885=AXIS2_PLACEMENT_3D('',#1309,#1049,#1050);
#886=AXIS2_PLACEMENT_3D('',#1313,#1053,#1054);
#887=AXIS2_PLACEMENT_3D('',#1315,#1056,#1057);
#888=AXIS2_PLACEMENT_3D('',#1316,#1058,#1059);
#889=AXIS2_PLACEMENT_3D('',#1318,#1061,#1062);
#890=AXIS2_PLACEMENT_3D('',#1320,#1064,#1065);
#891=AXIS2_PLACEMENT_3D('',#1321,#1066,#1067);
#892=AXIS2_PLACEMENT_3D('',#1323,#1069,#1070);
#893=AXIS2_PLACEMENT_3D('',#1325,#1072,#1073);
#894=AXIS2_PLACEMENT_3D('',#1326,#1074,#1075);
#895=AXIS2_PLACEMENT_3D('',#1328,#1077,#1078);
#896=AXIS2_PLACEMENT_3D('',#1330,#1080,#1081);
#897=AXIS2_PLACEMENT_3D('',#1331,#1082,#1083);
#898=AXIS2_PLACEMENT_3D('',#1333,#1085,#1086);
#899=AXIS2_PLACEMENT_3D('',#1335,#1088,#1089);
#900=AXIS2_PLACEMENT_3D('',#1336,#1090,#1091);
#901=AXIS2_PLACEMENT_3D('',#1338,#1093,#1094);
#902=AXIS2_PLACEMENT_3D('',#1340,#1096,#1097);
#903=AXIS2_PLACEMENT_3D('',#1341,#1098,#1099);
#904=AXIS2_PLACEMENT_3D('',#1343,#1101,#1102);
#905=AXIS2_PLACEMENT_3D('',#1345,#1104,#1105);
#906=DIRECTION('',(0.,0.,1.));
#907=DIRECTION('',(1.,0.,0.));
#908=DIRECTION('',(1.,0.,0.));
#909=DIRECTION('',(0.,0.,-1.));
#910=DIRECTION('',(0.,0.,-1.));
#911=DIRECTION('',(0.,-1.,0.));
#912=DIRECTION('',(0.,0.,-1.));
#913=DIRECTION('',(0.,-1.,0.));
#914=DIRECTION('',(0.,0.,-1.));
#915=DIRECTION('',(0.,-1.,0.));
#916=DIRECTION('',(0.,0.,-1.));
#917=DIRECTION('',(0.,-1.,0.));
#918=DIRECTION('',(0.,0.,-1.));
#919=DIRECTION('',(0.,-1.,0.));
#920=DIRECTION('',(0.,0.,-1.));
#921=DIRECTION('',(0.,-1.,0.));
#922=DIRECTION('',(0.,1.,0.));
#923=DIRECTION('',(0.,0.,1.));
#924=DIRECTION('',(1.,0.,0.));
#925=DIRECTION('',(0.,0.,-1.));
#926=DIRECTION('',(1.,0.,0.));
#927=DIRECTION('',(1.,0.,0.));
#928=DIRECTION('',(0.,0.,-1.));
#929=DIRECTION('',(0.,-1.,0.));
#930=DIRECTION('',(0.,0.,-1.));
#931=DIRECTION('',(0.,-1.,0.));
#932=DIRECTION('',(0.,1.,0.));
#933=DIRECTION('',(0.,0.,1.));
#934=DIRECTION('',(1.,0.,0.));
#935=DIRECTION('',(1.,0.,0.));
#936=DIRECTION('',(0.,0.,1.));
#937=DIRECTION('',(1.,0.,0.));
#938=DIRECTION('',(0.,0.,1.));
#939=DIRECTION('',(1.,0.,0.));
#940=DIRECTION('',(1.,0.,0.));
#941=DIRECTION('',(1.,0.,0.));
#942=DIRECTION('',(0.,-1.,0.));
#943=DIRECTION('',(1.,0.,0.));
#944=DIRECTION('',(0.,-1.,0.));
#945=DIRECTION('',(1.,0.,0.));
#946=DIRECTION('',(0.,-1.,0.));
#947=DIRECTION('',(1.,0.,0.));
#948=DIRECTION('',(0.,-1.,0.));
#949=DIRECTION('',(1.,0.,0.));
#950=DIRECTION('',(0.,-1.,0.));
#951=DIRECTION('',(1.,0.,0.));
#952=DIRECTION('',(0.,-1.,0.));
#953=DIRECTION('',(1.,0.,0.));
#954=DIRECTION('',(0.,-1.,0.));
#955=DIRECTION('',(1.,0.,0.));
#956=DIRECTION('',(0.,-1.,0.));
#957=DIRECTION('',(1.,0.,0.));
#958=DIRECTION('',(0.,-1.,0.));
#959=DIRECTION('',(1.,0.,0.));
#960=DIRECTION('',(0.,-1.,0.));
#961=DIRECTION('',(1.,0.,0.));
#962=DIRECTION('',(0.,-1.,0.));
#963=DIRECTION('',(1.,0.,0.));
#964=DIRECTION('',(0.,-1.,0.));
#965=DIRECTION('',(1.,0.,0.));
#966=DIRECTION('',(1.,0.,0.));
#967=DIRECTION('',(0.,-1.,0.));
#968=DIRECTION('',(1.,0.,0.));
#969=DIRECTION('',(0.,-1.,0.));
#970=DIRECTION('',(1.,0.,0.));
#971=DIRECTION('',(0.,-1.,0.));
#972=DIRECTION('',(1.,0.,0.));
#973=DIRECTION('',(0.,-1.,0.));
#974=DIRECTION('',(1.,0.,0.));
#975=DIRECTION('',(0.,0.,-1.));
#976=DIRECTION('',(0.,0.,-1.));
#977=DIRECTION('',(0.,-1.,0.));
#978=DIRECTION('',(0.,0.,-1.));
#979=DIRECTION('',(0.,0.,-1.));
#980=DIRECTION('',(0.,-1.,0.));
#981=DIRECTION('',(0.,0.,-1.));
#982=DIRECTION('',(0.,0.,-1.));
#983=DIRECTION('',(0.,-1.,0.));
#984=DIRECTION('',(0.,0.,-1.));
#985=DIRECTION('',(0.,1.,0.));
#986=DIRECTION('',(0.,0.,1.));
#987=DIRECTION('',(0.,0.,-1.));
#988=DIRECTION('',(1.,0.,0.));
#989=DIRECTION('',(1.,0.,0.));
#990=DIRECTION('',(0.,0.,-1.));
#991=DIRECTION('',(0.,0.,-1.));
#992=DIRECTION('',(0.,-1.,0.));
#993=DIRECTION('',(0.,0.,-1.));
#994=DIRECTION('',(0.,0.,-1.));
#995=DIRECTION('',(0.,-1.,0.));
#996=DIRECTION('',(0.,0.,-1.));
#997=DIRECTION('',(0.,-1.,0.));
#998=DIRECTION('',(0.,0.,-1.));
#999=DIRECTION('',(0.,1.,0.));
#1000=DIRECTION('',(0.,0.,1.));
#1001=DIRECTION('',(1.,0.,0.));
#1002=DIRECTION('',(0.,0.,1.));
#1003=DIRECTION('',(1.,0.,0.));
#1004=DIRECTION('',(1.,0.,0.));
#1005=DIRECTION('',(0.,0.,-1.));
#1006=DIRECTION('',(0.,0.,-1.));
#1007=DIRECTION('',(0.,-1.,0.));
#1008=DIRECTION('',(0.,0.,-1.));
#1009=DIRECTION('',(0.,0.,-1.));
#1010=DIRECTION('',(0.,-1.,0.));
#1011=DIRECTION('',(0.,0.,-1.));
#1012=DIRECTION('',(0.,0.,-1.));
#1013=DIRECTION('',(0.,-1.,0.));
#1014=DIRECTION('',(0.,0.,-1.));
#1015=DIRECTION('',(1.,0.,0.));
#1016=DIRECTION('',(0.,0.,-1.));
#1017=DIRECTION('',(0.,0.,-1.));
#1018=DIRECTION('',(0.,-1.,0.));
#1019=DIRECTION('',(0.,0.,-1.));
#1020=DIRECTION('',(0.,0.,-1.));
#1021=DIRECTION('',(0.,-1.,0.));
#1022=DIRECTION('',(0.,0.,-1.));
#1023=DIRECTION('',(0.,0.,-1.));
#1024=DIRECTION('',(0.,-1.,0.));
#1025=DIRECTION('',(0.,0.,-1.));
#1026=DIRECTION('',(0.,1.,0.));
#1027=DIRECTION('',(0.,0.,1.));
#1028=DIRECTION('',(1.,0.,0.));
#1029=DIRECTION('',(0.,1.,0.));
#1030=DIRECTION('',(0.,0.,1.));
#1031=DIRECTION('',(1.,0.,0.));
#1032=DIRECTION('',(0.,0.,1.));
#1033=DIRECTION('',(1.,0.,0.));
#1034=DIRECTION('',(1.,0.,0.));
#1035=DIRECTION('',(0.,0.,-1.));
#1036=DIRECTION('',(0.,0.,-1.));
#1037=DIRECTION('',(0.,-1.,0.));
#1038=DIRECTION('',(0.,0.,-1.));
#1039=DIRECTION('',(0.,0.,-1.));
#1040=DIRECTION('',(0.,-1.,0.));
#1041=DIRECTION('',(0.,0.,-1.));
#1042=DIRECTION('',(0.,0.,-1.));
#1043=DIRECTION('',(0.,-1.,0.));
#1044=DIRECTION('',(0.,0.,-1.));
#1045=DIRECTION('',(0.,1.,0.));
#1046=DIRECTION('',(0.,0.,1.));
#1047=DIRECTION('',(0.,0.,-1.));
#1048=DIRECTION('',(1.,0.,0.));
#1049=DIRECTION('',(1.,0.,0.));
#1050=DIRECTION('',(0.,0.,-1.));
#1051=DIRECTION('',(0.,0.,-1.));
#1052=DIRECTION('',(0.,-1.,0.));
#1053=DIRECTION('',(0.,1.,0.));
#1054=DIRECTION('',(0.,0.,1.));
#1055=DIRECTION('',(1.,0.,0.));
#1056=DIRECTION('',(0.,0.,1.));
#1057=DIRECTION('',(1.,0.,0.));
#1058=DIRECTION('',(0.,1.,0.));
#1059=DIRECTION('',(0.,0.,1.));
#1060=DIRECTION('',(1.,0.,0.));
#1061=DIRECTION('',(0.,1.,0.));
#1062=DIRECTION('',(0.,0.,1.));
#1063=DIRECTION('',(1.,0.,0.));
#1064=DIRECTION('',(0.,0.,1.));
#1065=DIRECTION('',(1.,0.,0.));
#1066=DIRECTION('',(0.,1.,0.));
#1067=DIRECTION('',(0.,0.,1.));
#1068=DIRECTION('',(1.,0.,0.));
#1069=DIRECTION('',(0.,1.,0.));
#1070=DIRECTION('',(0.,0.,1.));
#1071=DIRECTION('',(1.,0.,0.));
#1072=DIRECTION('',(0.,0.,1.));
#1073=DIRECTION('',(1.,0.,0.));
#1074=DIRECTION('',(0.,1.,0.));
#1075=DIRECTION('',(0.,0.,1.));
#1076=DIRECTION('',(1.,0.,0.));
#1077=DIRECTION('',(0.,1.,0.));
#1078=DIRECTION('',(0.,0.,1.));
#1079=DIRECTION('',(1.,0.,0.));
#1080=DIRECTION('',(0.,0.,1.));
#1081=DIRECTION('',(1.,0.,0.));
#1082=DIRECTION('',(0.,1.,0.));
#1083=DIRECTION('',(0.,0.,1.));
#1084=DIRECTION('',(1.,0.,0.));
#1085=DIRECTION('',(0.,1.,0.));
#1086=DIRECTION('',(0.,0.,1.));
#1087=DIRECTION('',(1.,0.,0.));
#1088=DIRECTION('',(0.,0.,1.));
#1089=DIRECTION('',(1.,0.,0.));
#1090=DIRECTION('',(0.,1.,0.));
#1091=DIRECTION('',(0.,0.,1.));
#1092=DIRECTION('',(1.,0.,0.));
#1093=DIRECTION('',(0.,1.,0.));
#1094=DIRECTION('',(0.,0.,1.));
#1095=DIRECTION('',(1.,0.,0.));
#1096=DIRECTION('',(0.,0.,1.));
#1097=DIRECTION('',(1.,0.,0.));
#1098=DIRECTION('',(0.,1.,0.));
#1099=DIRECTION('',(0.,0.,1.));
#1100=DIRECTION('',(1.,0.,0.));
#1101=DIRECTION('',(0.,1.,0.));
#1102=DIRECTION('',(0.,0.,1.));
#1103=DIRECTION('',(1.,0.,0.));
#1104=DIRECTION('',(0.,0.,1.));
#1105=DIRECTION('',(1.,0.,0.));
#1106=CARTESIAN_POINT('',(0.,0.,0.));
#1107=CARTESIAN_POINT('',(-0.153774301409722,-0.417785550355912,0.005));
#1108=CARTESIAN_POINT('',(-0.153774301409722,-0.191338866949081,0.0005));
#1109=CARTESIAN_POINT('',(-0.153774301409722,-0.191338866949081,0.0005));
#1110=CARTESIAN_POINT('',(-0.153774301409722,-0.191338866949081,0.));
#1111=CARTESIAN_POINT('',(-0.153774301409722,-0.186338866949081,0.0005));
#1112=CARTESIAN_POINT('',(-0.153774301409722,-0.181338866949081,0.0005));
#1113=CARTESIAN_POINT('',(-0.153774301409722,-0.181338866949081,0.0005));
#1114=CARTESIAN_POINT('',(-0.153774301409722,-0.181338866949081,0.));
#1115=CARTESIAN_POINT('',(-0.153774301409722,-0.417785550355912,0.));
#1116=CARTESIAN_POINT('',(-0.153774301409722,-0.148266953229904,0.));
#1117=CARTESIAN_POINT('',(-0.153774301409722,-0.148266953229904,0.005));
#1118=CARTESIAN_POINT('',(-0.153774301409722,-0.148266953229904,0.005));
#1119=CARTESIAN_POINT('',(-0.153774301409722,-0.417785550355912,0.005));
#1120=CARTESIAN_POINT('',(-0.153774301409722,-0.448266953229904,0.005));
#1121=CARTESIAN_POINT('',(-0.153774301409722,-0.448266953229904,0.005));
#1122=CARTESIAN_POINT('',(-0.153774301409722,-0.448266953229904,0.));
#1123=CARTESIAN_POINT('',(-0.153774301409722,-0.417785550355912,0.));
#1124=CARTESIAN_POINT('',(-0.153774301409722,-0.422785550355912,0.));
#1125=CARTESIAN_POINT('',(-0.153774301409722,-0.422785550355912,0.0005));
#1126=CARTESIAN_POINT('',(-0.153774301409722,-0.422785550355912,0.0005));
#1127=CARTESIAN_POINT('',(-0.153774301409722,-0.417785550355912,0.0005));
#1128=CARTESIAN_POINT('',(-0.153774301409722,-0.412785550355912,0.0005));
#1129=CARTESIAN_POINT('',(-0.153774301409722,-0.412785550355912,0.0005));
#1130=CARTESIAN_POINT('',(-0.153774301409722,-0.412785550355912,0.));
#1131=CARTESIAN_POINT('',(-0.153774301409722,-0.417785550355912,0.));
#1132=CARTESIAN_POINT('',(-0.156274301409722,-0.148266953229904,0.005));
#1133=CARTESIAN_POINT('',(-0.156274301409722,-0.148266953229904,0.));
#1134=CARTESIAN_POINT('',(-0.158774301409722,-0.148266953229904,0.));
#1135=CARTESIAN_POINT('',(-0.158774301409722,-0.148266953229904,0.005));
#1136=CARTESIAN_POINT('',(-0.158774301409722,-0.148266953229904,0.005));
#1137=CARTESIAN_POINT('',(-0.156274301409722,-0.148266953229904,0.005));
#1138=CARTESIAN_POINT('',(-0.158774301409722,-0.164802910089493,0.005));
#1139=CARTESIAN_POINT('',(-0.158774301409722,-0.164802910089493,0.));
#1140=CARTESIAN_POINT('',(-0.158774301409722,-0.448266953229904,0.));
#1141=CARTESIAN_POINT('',(-0.158774301409722,-0.448266953229904,0.005));
#1142=CARTESIAN_POINT('',(-0.158774301409722,-0.448266953229904,0.005));
#1143=CARTESIAN_POINT('',(-0.158774301409722,-0.164802910089493,0.005));
#1144=CARTESIAN_POINT('',(-0.156274301409722,-0.448266953229904,0.005));
#1145=CARTESIAN_POINT('',(-0.156274301409722,-0.448266953229904,0.));
#1146=CARTESIAN_POINT('',(-0.156274301409722,-0.448266953229904,0.005));
#1147=CARTESIAN_POINT('',(-0.136774301409721,-0.298266953229904,0.005));
#1148=CARTESIAN_POINT('',(-0.136774301409721,-0.298266953229904,0.));
#1149=CARTESIAN_POINT('',(-0.149774301409721,-0.191338866949081,0.));
#1150=CARTESIAN_POINT('',(-0.145774301409721,-0.191338866949081,0.));
#1151=CARTESIAN_POINT('',(-0.149774301409721,-0.412785550355912,0.));
#1152=CARTESIAN_POINT('',(-0.145774301409721,-0.412785550355912,0.));
#1153=CARTESIAN_POINT('',(-0.145774301409721,-0.186338866949081,0.));
#1154=CARTESIAN_POINT('',(-0.149774301409721,-0.181338866949081,0.));
#1155=CARTESIAN_POINT('',(-0.145774301409721,-0.181338866949081,0.));
#1156=CARTESIAN_POINT('',(-0.145774301409721,-0.186338866949081,0.));
#1157=CARTESIAN_POINT('',(-0.145774301409721,-0.148266953229904,0.));
#1158=CARTESIAN_POINT('',(-0.143274301409721,-0.148266953229904,0.));
#1159=CARTESIAN_POINT('',(-0.140774301409721,-0.148266953229904,0.));
#1160=CARTESIAN_POINT('',(-0.140774301409721,-0.435526251792907,0.));
#1161=CARTESIAN_POINT('',(-0.140774301409721,-0.181338866949081,0.));
#1162=CARTESIAN_POINT('',(-0.136774301409721,-0.181338866949081,0.));
#1163=CARTESIAN_POINT('',(-0.132774301409722,-0.181338866949081,0.));
#1164=CARTESIAN_POINT('',(-0.132774301409722,-0.164802910089493,0.));
#1165=CARTESIAN_POINT('',(-0.132774301409722,-0.148266953229904,0.));
#1166=CARTESIAN_POINT('',(-0.130274301409722,-0.148266953229904,0.));
#1167=CARTESIAN_POINT('',(-0.127774301409722,-0.148266953229904,0.));
#1168=CARTESIAN_POINT('',(-0.127774301409722,-0.417785550355912,0.));
#1169=CARTESIAN_POINT('',(-0.127774301409722,-0.181338866949081,0.));
#1170=CARTESIAN_POINT('',(-0.123774301409722,-0.181338866949081,0.));
#1171=CARTESIAN_POINT('',(-0.119774301409722,-0.181338866949081,0.));
#1172=CARTESIAN_POINT('',(-0.119774301409722,-0.186338866949081,0.));
#1173=CARTESIAN_POINT('',(-0.119774301409722,-0.148266953229904,0.));
#1174=CARTESIAN_POINT('',(-0.117274301409722,-0.148266953229904,0.));
#1175=CARTESIAN_POINT('',(-0.114774301409722,-0.148266953229904,0.));
#1176=CARTESIAN_POINT('',(-0.114774301409722,-0.435526251792907,0.));
#1177=CARTESIAN_POINT('',(-0.114774301409722,-0.448266953229904,0.));
#1178=CARTESIAN_POINT('',(-0.117274301409722,-0.448266953229904,0.));
#1179=CARTESIAN_POINT('',(-0.119774301409722,-0.448266953229904,0.));
#1180=CARTESIAN_POINT('',(-0.119774301409722,-0.186338866949081,0.));
#1181=CARTESIAN_POINT('',(-0.119774301409722,-0.422785550355912,0.));
#1182=CARTESIAN_POINT('',(-0.123774301409722,-0.422785550355912,0.));
#1183=CARTESIAN_POINT('',(-0.127774301409722,-0.422785550355912,0.));
#1184=CARTESIAN_POINT('',(-0.127774301409722,-0.417785550355912,0.));
#1185=CARTESIAN_POINT('',(-0.127774301409722,-0.448266953229904,0.));
#1186=CARTESIAN_POINT('',(-0.130274301409721,-0.448266953229904,0.));
#1187=CARTESIAN_POINT('',(-0.132774301409721,-0.448266953229904,0.));
#1188=CARTESIAN_POINT('',(-0.132774301409722,-0.164802910089493,0.));
#1189=CARTESIAN_POINT('',(-0.132774301409721,-0.422785550355912,0.));
#1190=CARTESIAN_POINT('',(-0.136774301409721,-0.422785550355912,0.));
#1191=CARTESIAN_POINT('',(-0.140774301409721,-0.422785550355912,0.));
#1192=CARTESIAN_POINT('',(-0.140774301409721,-0.435526251792907,0.));
#1193=CARTESIAN_POINT('',(-0.140774301409721,-0.448266953229904,0.));
#1194=CARTESIAN_POINT('',(-0.143274301409721,-0.448266953229904,0.));
#1195=CARTESIAN_POINT('',(-0.145774301409721,-0.448266953229904,0.));
#1196=CARTESIAN_POINT('',(-0.145774301409721,-0.186338866949081,0.));
#1197=CARTESIAN_POINT('',(-0.145774301409721,-0.422785550355912,0.));
#1198=CARTESIAN_POINT('',(-0.149774301409721,-0.422785550355912,0.));
#1199=CARTESIAN_POINT('',(-0.136774301409721,-0.191338866949081,0.));
#1200=CARTESIAN_POINT('',(-0.140774301409721,-0.191338866949081,0.));
#1201=CARTESIAN_POINT('',(-0.132774301409722,-0.191338866949081,0.));
#1202=CARTESIAN_POINT('',(-0.140774301409721,-0.435526251792907,0.));
#1203=CARTESIAN_POINT('',(-0.140774301409721,-0.412785550355912,0.));
#1204=CARTESIAN_POINT('',(-0.136774301409721,-0.412785550355912,0.));
#1205=CARTESIAN_POINT('',(-0.132774301409721,-0.412785550355912,0.));
#1206=CARTESIAN_POINT('',(-0.132774301409722,-0.164802910089493,0.));
#1207=CARTESIAN_POINT('',(-0.123774301409722,-0.191338866949081,0.));
#1208=CARTESIAN_POINT('',(-0.127774301409722,-0.191338866949081,0.));
#1209=CARTESIAN_POINT('',(-0.119774301409722,-0.191338866949081,0.));
#1210=CARTESIAN_POINT('',(-0.127774301409722,-0.417785550355912,0.));
#1211=CARTESIAN_POINT('',(-0.127774301409722,-0.412785550355912,0.));
#1212=CARTESIAN_POINT('',(-0.123774301409722,-0.412785550355912,0.));
#1213=CARTESIAN_POINT('',(-0.119774301409722,-0.412785550355912,0.));
#1214=CARTESIAN_POINT('',(-0.119774301409722,-0.186338866949081,0.));
#1215=CARTESIAN_POINT('',(-0.145774301409721,-0.186338866949081,0.005));
#1216=CARTESIAN_POINT('',(-0.145774301409721,-0.412785550355912,0.0005));
#1217=CARTESIAN_POINT('',(-0.145774301409721,-0.412785550355912,0.0005));
#1218=CARTESIAN_POINT('',(-0.145774301409721,-0.417785550355912,0.0005));
#1219=CARTESIAN_POINT('',(-0.145774301409721,-0.422785550355912,0.0005));
#1220=CARTESIAN_POINT('',(-0.145774301409721,-0.422785550355912,0.0005));
#1221=CARTESIAN_POINT('',(-0.145774301409721,-0.448266953229904,0.005));
#1222=CARTESIAN_POINT('',(-0.145774301409721,-0.448266953229904,0.005));
#1223=CARTESIAN_POINT('',(-0.145774301409721,-0.186338866949081,0.005));
#1224=CARTESIAN_POINT('',(-0.145774301409721,-0.148266953229904,0.005));
#1225=CARTESIAN_POINT('',(-0.145774301409721,-0.148266953229904,0.005));
#1226=CARTESIAN_POINT('',(-0.145774301409721,-0.181338866949081,0.0005));
#1227=CARTESIAN_POINT('',(-0.145774301409721,-0.181338866949081,0.0005));
#1228=CARTESIAN_POINT('',(-0.145774301409721,-0.186338866949081,0.0005));
#1229=CARTESIAN_POINT('',(-0.145774301409721,-0.191338866949081,0.0005));
#1230=CARTESIAN_POINT('',(-0.145774301409721,-0.191338866949081,0.0005));
#1231=CARTESIAN_POINT('',(-0.143274301409721,-0.448266953229904,0.005));
#1232=CARTESIAN_POINT('',(-0.140774301409721,-0.448266953229904,0.005));
#1233=CARTESIAN_POINT('',(-0.140774301409721,-0.448266953229904,0.005));
#1234=CARTESIAN_POINT('',(-0.143274301409721,-0.448266953229904,0.005));
#1235=CARTESIAN_POINT('',(-0.140774301409721,-0.435526251792907,0.005));
#1236=CARTESIAN_POINT('',(-0.140774301409721,-0.191338866949081,0.0005));
#1237=CARTESIAN_POINT('',(-0.140774301409721,-0.191338866949081,0.0005));
#1238=CARTESIAN_POINT('',(-0.140774301409721,-0.186338866949081,0.0005));
#1239=CARTESIAN_POINT('',(-0.140774301409721,-0.181338866949081,0.0005));
#1240=CARTESIAN_POINT('',(-0.140774301409721,-0.181338866949081,0.0005));
#1241=CARTESIAN_POINT('',(-0.140774301409721,-0.148266953229904,0.005));
#1242=CARTESIAN_POINT('',(-0.140774301409721,-0.148266953229904,0.005));
#1243=CARTESIAN_POINT('',(-0.140774301409721,-0.435526251792907,0.005));
#1244=CARTESIAN_POINT('',(-0.140774301409721,-0.422785550355912,0.0005));
#1245=CARTESIAN_POINT('',(-0.140774301409721,-0.422785550355912,0.0005));
#1246=CARTESIAN_POINT('',(-0.140774301409721,-0.417785550355912,0.0005));
#1247=CARTESIAN_POINT('',(-0.140774301409721,-0.412785550355912,0.0005));
#1248=CARTESIAN_POINT('',(-0.140774301409721,-0.412785550355912,0.0005));
#1249=CARTESIAN_POINT('',(-0.143274301409721,-0.148266953229904,0.005));
#1250=CARTESIAN_POINT('',(-0.143274301409721,-0.148266953229904,0.005));
#1251=CARTESIAN_POINT('',(-0.136774301409721,-0.298266953229904,0.005));
#1252=CARTESIAN_POINT('',(-0.132774301409722,-0.164802910089493,0.005));
#1253=CARTESIAN_POINT('',(-0.132774301409721,-0.412785550355912,0.0005));
#1254=CARTESIAN_POINT('',(-0.132774301409721,-0.412785550355912,0.0005));
#1255=CARTESIAN_POINT('',(-0.132774301409721,-0.417785550355912,0.0005));
#1256=CARTESIAN_POINT('',(-0.132774301409722,-0.422785550355912,0.0005));
#1257=CARTESIAN_POINT('',(-0.132774301409721,-0.422785550355912,0.0005));
#1258=CARTESIAN_POINT('',(-0.132774301409721,-0.448266953229904,0.005));
#1259=CARTESIAN_POINT('',(-0.132774301409721,-0.448266953229904,0.005));
#1260=CARTESIAN_POINT('',(-0.132774301409722,-0.164802910089493,0.005));
#1261=CARTESIAN_POINT('',(-0.132774301409722,-0.148266953229904,0.005));
#1262=CARTESIAN_POINT('',(-0.132774301409722,-0.148266953229904,0.005));
#1263=CARTESIAN_POINT('',(-0.132774301409722,-0.181338866949081,0.0005));
#1264=CARTESIAN_POINT('',(-0.132774301409722,-0.181338866949081,0.0005));
#1265=CARTESIAN_POINT('',(-0.132774301409722,-0.186338866949081,0.0005));
#1266=CARTESIAN_POINT('',(-0.132774301409722,-0.191338866949081,0.0005));
#1267=CARTESIAN_POINT('',(-0.132774301409722,-0.191338866949081,0.0005));
#1268=CARTESIAN_POINT('',(-0.127774301409722,-0.417785550355912,0.005));
#1269=CARTESIAN_POINT('',(-0.127774301409722,-0.191338866949081,0.0005));
#1270=CARTESIAN_POINT('',(-0.127774301409722,-0.191338866949081,0.0005));
#1271=CARTESIAN_POINT('',(-0.127774301409722,-0.186338866949081,0.0005));
#1272=CARTESIAN_POINT('',(-0.127774301409722,-0.181338866949081,0.0005));
#1273=CARTESIAN_POINT('',(-0.127774301409722,-0.181338866949081,0.0005));
#1274=CARTESIAN_POINT('',(-0.127774301409722,-0.148266953229904,0.005));
#1275=CARTESIAN_POINT('',(-0.127774301409722,-0.148266953229904,0.005));
#1276=CARTESIAN_POINT('',(-0.127774301409722,-0.417785550355912,0.005));
#1277=CARTESIAN_POINT('',(-0.127774301409722,-0.448266953229904,0.005));
#1278=CARTESIAN_POINT('',(-0.127774301409722,-0.448266953229904,0.005));
#1279=CARTESIAN_POINT('',(-0.127774301409722,-0.422785550355912,0.0005));
#1280=CARTESIAN_POINT('',(-0.127774301409722,-0.422785550355912,0.0005));
#1281=CARTESIAN_POINT('',(-0.127774301409722,-0.417785550355912,0.0005));
#1282=CARTESIAN_POINT('',(-0.127774301409722,-0.412785550355912,0.0005));
#1283=CARTESIAN_POINT('',(-0.127774301409722,-0.412785550355912,0.0005));
#1284=CARTESIAN_POINT('',(-0.130274301409722,-0.148266953229904,0.005));
#1285=CARTESIAN_POINT('',(-0.130274301409722,-0.148266953229904,0.005));
#1286=CARTESIAN_POINT('',(-0.130274301409721,-0.448266953229904,0.005));
#1287=CARTESIAN_POINT('',(-0.130274301409721,-0.448266953229904,0.005));
#1288=CARTESIAN_POINT('',(-0.136774301409721,-0.298266953229904,0.005));
#1289=CARTESIAN_POINT('',(-0.119774301409722,-0.186338866949081,0.005));
#1290=CARTESIAN_POINT('',(-0.119774301409722,-0.412785550355912,0.0005));
#1291=CARTESIAN_POINT('',(-0.119774301409722,-0.412785550355912,0.0005));
#1292=CARTESIAN_POINT('',(-0.119774301409722,-0.417785550355912,0.0005));
#1293=CARTESIAN_POINT('',(-0.119774301409722,-0.422785550355912,0.0005));
#1294=CARTESIAN_POINT('',(-0.119774301409722,-0.422785550355912,0.0005));
#1295=CARTESIAN_POINT('',(-0.119774301409722,-0.448266953229904,0.005));
#1296=CARTESIAN_POINT('',(-0.119774301409722,-0.448266953229904,0.005));
#1297=CARTESIAN_POINT('',(-0.119774301409722,-0.186338866949081,0.005));
#1298=CARTESIAN_POINT('',(-0.119774301409722,-0.148266953229904,0.005));
#1299=CARTESIAN_POINT('',(-0.119774301409722,-0.148266953229904,0.005));
#1300=CARTESIAN_POINT('',(-0.119774301409722,-0.181338866949081,0.0005));
#1301=CARTESIAN_POINT('',(-0.119774301409722,-0.181338866949081,0.0005));
#1302=CARTESIAN_POINT('',(-0.119774301409722,-0.186338866949081,0.0005));
#1303=CARTESIAN_POINT('',(-0.119774301409722,-0.191338866949081,0.0005));
#1304=CARTESIAN_POINT('',(-0.119774301409722,-0.191338866949081,0.0005));
#1305=CARTESIAN_POINT('',(-0.117274301409722,-0.448266953229904,0.005));
#1306=CARTESIAN_POINT('',(-0.114774301409722,-0.448266953229904,0.005));
#1307=CARTESIAN_POINT('',(-0.114774301409722,-0.448266953229904,0.005));
#1308=CARTESIAN_POINT('',(-0.117274301409722,-0.448266953229904,0.005));
#1309=CARTESIAN_POINT('',(-0.114774301409722,-0.435526251792907,0.005));
#1310=CARTESIAN_POINT('',(-0.114774301409722,-0.148266953229904,0.005));
#1311=CARTESIAN_POINT('',(-0.114774301409722,-0.148266953229904,0.005));
#1312=CARTESIAN_POINT('',(-0.114774301409722,-0.435526251792907,0.005));
#1313=CARTESIAN_POINT('',(-0.117274301409722,-0.148266953229904,0.005));
#1314=CARTESIAN_POINT('',(-0.117274301409722,-0.148266953229904,0.005));
#1315=CARTESIAN_POINT('',(-0.136774301409721,-0.298266953229904,0.005));
#1316=CARTESIAN_POINT('',(-0.123774301409722,-0.181338866949081,0.0005));
#1317=CARTESIAN_POINT('',(-0.123774301409722,-0.181338866949081,0.0005));
#1318=CARTESIAN_POINT('',(-0.123774301409722,-0.191338866949081,0.0005));
#1319=CARTESIAN_POINT('',(-0.123774301409722,-0.191338866949081,0.0005));
#1320=CARTESIAN_POINT('',(-0.136774301409721,-0.298266953229904,0.0005));
#1321=CARTESIAN_POINT('',(-0.123774301409722,-0.412785550355912,0.0005));
#1322=CARTESIAN_POINT('',(-0.123774301409722,-0.412785550355912,0.0005));
#1323=CARTESIAN_POINT('',(-0.123774301409722,-0.422785550355912,0.0005));
#1324=CARTESIAN_POINT('',(-0.123774301409722,-0.422785550355912,0.0005));
#1325=CARTESIAN_POINT('',(-0.136774301409721,-0.298266953229904,0.0005));
#1326=CARTESIAN_POINT('',(-0.136774301409721,-0.181338866949081,0.0005));
#1327=CARTESIAN_POINT('',(-0.136774301409721,-0.181338866949081,0.0005));
#1328=CARTESIAN_POINT('',(-0.136774301409721,-0.191338866949081,0.0005));
#1329=CARTESIAN_POINT('',(-0.136774301409721,-0.191338866949081,0.0005));
#1330=CARTESIAN_POINT('',(-0.136774301409721,-0.298266953229904,0.0005));
#1331=CARTESIAN_POINT('',(-0.136774301409721,-0.412785550355912,0.0005));
#1332=CARTESIAN_POINT('',(-0.136774301409721,-0.412785550355912,0.0005));
#1333=CARTESIAN_POINT('',(-0.136774301409721,-0.422785550355912,0.0005));
#1334=CARTESIAN_POINT('',(-0.136774301409721,-0.422785550355912,0.0005));
#1335=CARTESIAN_POINT('',(-0.136774301409721,-0.298266953229904,0.0005));
#1336=CARTESIAN_POINT('',(-0.149774301409721,-0.181338866949081,0.0005));
#1337=CARTESIAN_POINT('',(-0.149774301409721,-0.181338866949081,0.0005));
#1338=CARTESIAN_POINT('',(-0.149774301409721,-0.191338866949081,0.0005));
#1339=CARTESIAN_POINT('',(-0.149774301409721,-0.191338866949081,0.0005));
#1340=CARTESIAN_POINT('',(-0.136774301409721,-0.298266953229904,0.0005));
#1341=CARTESIAN_POINT('',(-0.149774301409721,-0.412785550355912,0.0005));
#1342=CARTESIAN_POINT('',(-0.149774301409721,-0.412785550355912,0.0005));
#1343=CARTESIAN_POINT('',(-0.149774301409721,-0.422785550355912,0.0005));
#1344=CARTESIAN_POINT('',(-0.149774301409721,-0.422785550355912,0.0005));
#1345=CARTESIAN_POINT('',(-0.136774301409721,-0.298266953229904,0.0005));
#1346=MECHANICAL_DESIGN_GEOMETRIC_PRESENTATION_REPRESENTATION('',(#855),
#1347);
#1347=(
GEOMETRIC_REPRESENTATION_CONTEXT(3)
GLOBAL_UNCERTAINTY_ASSIGNED_CONTEXT((#1348))
GLOBAL_UNIT_ASSIGNED_CONTEXT((#1351,#1350,#1349))
REPRESENTATION_CONTEXT('Part 1','TOP_LEVEL_ASSEMBLY_PART')
);
#1348=UNCERTAINTY_MEASURE_WITH_UNIT(LENGTH_MEASURE(1.E-8),#1351,
'DISTANCE_ACCURACY_VALUE','Maximum Tolerance applied to model');
#1349=(
NAMED_UNIT(*)
SI_UNIT($,.STERADIAN.)
SOLID_ANGLE_UNIT()
);
#1350=(
NAMED_UNIT(*)
PLANE_ANGLE_UNIT()
SI_UNIT($,.RADIAN.)
);
#1351=(
LENGTH_UNIT()
NAMED_UNIT(*)
SI_UNIT($,.METRE.)
);
#1352=PRODUCT_DEFINITION_SHAPE('','',#1353);
#1353=PRODUCT_DEFINITION('','',#1355,#1354);
#1354=PRODUCT_DEFINITION_CONTEXT('',#1361,'design');
#1355=PRODUCT_DEFINITION_FORMATION_WITH_SPECIFIED_SOURCE('','',#1357,
 .NOT_KNOWN.);
#1356=PRODUCT_RELATED_PRODUCT_CATEGORY('','',(#1357));
#1357=PRODUCT('Part 1','Part 1','Part 1',(#1359));
#1358=PRODUCT_CATEGORY('','');
#1359=PRODUCT_CONTEXT('',#1361,'mechanical');
#1360=APPLICATION_PROTOCOL_DEFINITION('international standard',
'ap242_managed_model_based_3d_engineering',2020,#1361);
#1361=APPLICATION_CONTEXT('managed model based 3d engineering');
ENDSEC;
END-ISO-10303-21;
