ISO-10303-21;
HEADER;
/* Generated by software containing ST-Developer
 * from STEP Tools, Inc. (www.steptools.com) 
 */
/* OPTION: using custom renumber hook */

FILE_DESCRIPTION(
/* description */ ('STEP AP242 Edition 2',
'CAx-IF Rec.Pracs.---Representation and Presentation of Product Manufa
cturing Information (PMI)---4.0---2014-10-13',
'CAx-IF Rec.Pracs.---3D Tessellated Geometry---0.4---2014-09-14','2;1',
'CAx-IF Rec.Pracs.---User Defined Attributes---1.5---2016-08-15'),
/* implementation_level */ '2;1');

FILE_NAME(
/* name */ 'Part Studio 4',
/* time_stamp */ '2026-09-09T15:03:30Z',
/* author */ (''),
/* organization */ (''),
/* preprocessor_version */ 'ST-DEVELOPER v20',
/* originating_system */ 'ONSHAPE BY PTC INC, 1.220',
/* authorisation */ '  ');

FILE_SCHEMA (('AP242_MANAGED_MODEL_BASED_3D_ENGINEERING_MIM_LF { 1 0 10303 442 3 1 4 }'));
ENDSEC;

DATA;
#10=SHAPE_REPRESENTATION_RELATIONSHIP('','',#957,#11);
#11=ADVANCED_BREP_SHAPE_REPRESENTATION('',(#955),#1573);
#12=CYLINDRICAL_SURFACE('',#965,0.002);
#13=CYLINDRICAL_SURFACE('',#969,0.002);
#14=CYLINDRICAL_SURFACE('',#975,0.002);
#15=CYLINDRICAL_SURFACE('',#979,0.002);
#16=CYLINDRICAL_SURFACE('',#984,0.0023);
#17=CYLINDRICAL_SURFACE('',#987,0.0023);
#18=CYLINDRICAL_SURFACE('',#995,0.002);
#19=CYLINDRICAL_SURFACE('',#998,0.002);
#20=CYLINDRICAL_SURFACE('',#1002,0.00200000000000004);
#21=CYLINDRICAL_SURFACE('',#1013,0.002);
#22=CYLINDRICAL_SURFACE('',#1018,0.00233);
#23=CYLINDRICAL_SURFACE('',#1021,0.00233);
#24=CYLINDRICAL_SURFACE('',#1022,0.0021);
#25=CYLINDRICAL_SURFACE('',#1027,0.005);
#26=CYLINDRICAL_SURFACE('',#1034,0.005);
#27=CIRCLE('',#961,0.0023);
#28=CIRCLE('',#964,0.0023);
#29=CIRCLE('',#966,0.002);
#30=CIRCLE('',#967,0.002);
#31=CIRCLE('',#970,0.002);
#32=CIRCLE('',#971,0.002);
#33=CIRCLE('',#973,0.005);
#34=CIRCLE('',#974,0.005);
#35=CIRCLE('',#976,0.002);
#36=CIRCLE('',#977,0.002);
#37=CIRCLE('',#980,0.002);
#38=CIRCLE('',#981,0.002);
#39=CIRCLE('',#983,0.0023);
#40=CIRCLE('',#985,0.0023);
#41=CIRCLE('',#991,0.00233);
#42=CIRCLE('',#993,0.00233);
#43=CIRCLE('',#996,0.002);
#44=CIRCLE('',#997,0.002);
#45=CIRCLE('',#999,0.002);
#46=CIRCLE('',#1000,0.002);
#47=CIRCLE('',#1003,0.00200000000000004);
#48=CIRCLE('',#1004,0.00200000000000004);
#49=CIRCLE('',#1006,0.00233);
#50=CIRCLE('',#1009,0.00233);
#51=CIRCLE('',#1012,0.0021);
#52=CIRCLE('',#1014,0.002);
#53=CIRCLE('',#1015,0.002);
#54=CIRCLE('',#1023,0.0021);
#55=CIRCLE('',#1028,0.005);
#56=CIRCLE('',#1035,0.005);
#57=ORIENTED_EDGE('',*,*,#321,.T.);
#58=ORIENTED_EDGE('',*,*,#322,.T.);
#59=ORIENTED_EDGE('',*,*,#323,.F.);
#60=ORIENTED_EDGE('',*,*,#324,.F.);
#61=ORIENTED_EDGE('',*,*,#325,.T.);
#62=ORIENTED_EDGE('',*,*,#323,.T.);
#63=ORIENTED_EDGE('',*,*,#326,.T.);
#64=ORIENTED_EDGE('',*,*,#327,.F.);
#65=ORIENTED_EDGE('',*,*,#328,.F.);
#66=ORIENTED_EDGE('',*,*,#327,.T.);
#67=ORIENTED_EDGE('',*,*,#329,.T.);
#68=ORIENTED_EDGE('',*,*,#330,.F.);
#69=ORIENTED_EDGE('',*,*,#331,.F.);
#70=ORIENTED_EDGE('',*,*,#332,.F.);
#71=ORIENTED_EDGE('',*,*,#333,.T.);
#72=ORIENTED_EDGE('',*,*,#334,.F.);
#73=ORIENTED_EDGE('',*,*,#335,.F.);
#74=ORIENTED_EDGE('',*,*,#336,.T.);
#75=ORIENTED_EDGE('',*,*,#335,.T.);
#76=ORIENTED_EDGE('',*,*,#337,.T.);
#77=ORIENTED_EDGE('',*,*,#338,.F.);
#78=ORIENTED_EDGE('',*,*,#339,.F.);
#79=ORIENTED_EDGE('',*,*,#338,.T.);
#80=ORIENTED_EDGE('',*,*,#340,.F.);
#81=ORIENTED_EDGE('',*,*,#341,.F.);
#82=ORIENTED_EDGE('',*,*,#342,.T.);
#83=ORIENTED_EDGE('',*,*,#341,.T.);
#84=ORIENTED_EDGE('',*,*,#343,.T.);
#85=ORIENTED_EDGE('',*,*,#344,.F.);
#86=ORIENTED_EDGE('',*,*,#345,.F.);
#87=ORIENTED_EDGE('',*,*,#344,.T.);
#88=ORIENTED_EDGE('',*,*,#346,.F.);
#89=ORIENTED_EDGE('',*,*,#347,.F.);
#90=ORIENTED_EDGE('',*,*,#348,.T.);
#91=ORIENTED_EDGE('',*,*,#349,.F.);
#92=ORIENTED_EDGE('',*,*,#350,.T.);
#93=ORIENTED_EDGE('',*,*,#351,.T.);
#94=ORIENTED_EDGE('',*,*,#352,.T.);
#95=ORIENTED_EDGE('',*,*,#353,.T.);
#96=ORIENTED_EDGE('',*,*,#354,.F.);
#97=ORIENTED_EDGE('',*,*,#355,.F.);
#98=ORIENTED_EDGE('',*,*,#356,.T.);
#99=ORIENTED_EDGE('',*,*,#357,.F.);
#100=ORIENTED_EDGE('',*,*,#358,.T.);
#101=ORIENTED_EDGE('',*,*,#359,.F.);
#102=ORIENTED_EDGE('',*,*,#360,.T.);
#103=ORIENTED_EDGE('',*,*,#361,.T.);
#104=ORIENTED_EDGE('',*,*,#362,.T.);
#105=ORIENTED_EDGE('',*,*,#347,.T.);
#106=ORIENTED_EDGE('',*,*,#363,.T.);
#107=ORIENTED_EDGE('',*,*,#364,.F.);
#108=ORIENTED_EDGE('',*,*,#365,.F.);
#109=ORIENTED_EDGE('',*,*,#364,.T.);
#110=ORIENTED_EDGE('',*,*,#366,.F.);
#111=ORIENTED_EDGE('',*,*,#367,.F.);
#112=ORIENTED_EDGE('',*,*,#368,.T.);
#113=ORIENTED_EDGE('',*,*,#367,.T.);
#114=ORIENTED_EDGE('',*,*,#369,.T.);
#115=ORIENTED_EDGE('',*,*,#333,.F.);
#116=ORIENTED_EDGE('',*,*,#370,.F.);
#117=ORIENTED_EDGE('',*,*,#371,.T.);
#118=ORIENTED_EDGE('',*,*,#330,.T.);
#119=ORIENTED_EDGE('',*,*,#372,.T.);
#120=ORIENTED_EDGE('',*,*,#321,.F.);
#121=ORIENTED_EDGE('',*,*,#373,.F.);
#122=ORIENTED_EDGE('',*,*,#374,.F.);
#123=ORIENTED_EDGE('',*,*,#332,.T.);
#124=ORIENTED_EDGE('',*,*,#374,.T.);
#125=ORIENTED_EDGE('',*,*,#371,.F.);
#126=ORIENTED_EDGE('',*,*,#325,.F.);
#127=ORIENTED_EDGE('',*,*,#375,.F.);
#128=ORIENTED_EDGE('',*,*,#376,.F.);
#129=ORIENTED_EDGE('',*,*,#377,.T.);
#130=ORIENTED_EDGE('',*,*,#348,.F.);
#131=ORIENTED_EDGE('',*,*,#365,.T.);
#132=ORIENTED_EDGE('',*,*,#368,.F.);
#133=ORIENTED_EDGE('',*,*,#370,.T.);
#134=ORIENTED_EDGE('',*,*,#336,.F.);
#135=ORIENTED_EDGE('',*,*,#339,.T.);
#136=ORIENTED_EDGE('',*,*,#342,.F.);
#137=ORIENTED_EDGE('',*,*,#345,.T.);
#138=ORIENTED_EDGE('',*,*,#362,.F.);
#139=ORIENTED_EDGE('',*,*,#324,.T.);
#140=ORIENTED_EDGE('',*,*,#328,.T.);
#141=ORIENTED_EDGE('',*,*,#331,.T.);
#142=ORIENTED_EDGE('',*,*,#373,.T.);
#143=ORIENTED_EDGE('',*,*,#334,.T.);
#144=ORIENTED_EDGE('',*,*,#369,.F.);
#145=ORIENTED_EDGE('',*,*,#366,.T.);
#146=ORIENTED_EDGE('',*,*,#363,.F.);
#147=ORIENTED_EDGE('',*,*,#346,.T.);
#148=ORIENTED_EDGE('',*,*,#343,.F.);
#149=ORIENTED_EDGE('',*,*,#340,.T.);
#150=ORIENTED_EDGE('',*,*,#337,.F.);
#151=ORIENTED_EDGE('',*,*,#322,.F.);
#152=ORIENTED_EDGE('',*,*,#372,.F.);
#153=ORIENTED_EDGE('',*,*,#329,.F.);
#154=ORIENTED_EDGE('',*,*,#326,.F.);
#155=ORIENTED_EDGE('',*,*,#378,.F.);
#156=ORIENTED_EDGE('',*,*,#379,.T.);
#157=ORIENTED_EDGE('',*,*,#380,.T.);
#158=ORIENTED_EDGE('',*,*,#381,.T.);
#159=ORIENTED_EDGE('',*,*,#382,.F.);
#160=ORIENTED_EDGE('',*,*,#383,.T.);
#161=ORIENTED_EDGE('',*,*,#384,.F.);
#162=ORIENTED_EDGE('',*,*,#385,.T.);
#163=ORIENTED_EDGE('',*,*,#386,.F.);
#164=ORIENTED_EDGE('',*,*,#387,.T.);
#165=ORIENTED_EDGE('',*,*,#388,.F.);
#166=ORIENTED_EDGE('',*,*,#389,.F.);
#167=ORIENTED_EDGE('',*,*,#390,.T.);
#168=ORIENTED_EDGE('',*,*,#391,.F.);
#169=ORIENTED_EDGE('',*,*,#392,.F.);
#170=ORIENTED_EDGE('',*,*,#393,.T.);
#171=ORIENTED_EDGE('',*,*,#392,.T.);
#172=ORIENTED_EDGE('',*,*,#394,.T.);
#173=ORIENTED_EDGE('',*,*,#353,.F.);
#174=ORIENTED_EDGE('',*,*,#395,.F.);
#175=ORIENTED_EDGE('',*,*,#355,.T.);
#176=ORIENTED_EDGE('',*,*,#396,.T.);
#177=ORIENTED_EDGE('',*,*,#397,.F.);
#178=ORIENTED_EDGE('',*,*,#398,.F.);
#179=ORIENTED_EDGE('',*,*,#397,.T.);
#180=ORIENTED_EDGE('',*,*,#399,.F.);
#181=ORIENTED_EDGE('',*,*,#400,.F.);
#182=ORIENTED_EDGE('',*,*,#401,.T.);
#183=ORIENTED_EDGE('',*,*,#400,.T.);
#184=ORIENTED_EDGE('',*,*,#402,.T.);
#185=ORIENTED_EDGE('',*,*,#381,.F.);
#186=ORIENTED_EDGE('',*,*,#403,.F.);
#187=ORIENTED_EDGE('',*,*,#404,.F.);
#188=ORIENTED_EDGE('',*,*,#405,.F.);
#189=ORIENTED_EDGE('',*,*,#406,.F.);
#190=ORIENTED_EDGE('',*,*,#407,.T.);
#191=ORIENTED_EDGE('',*,*,#408,.F.);
#192=ORIENTED_EDGE('',*,*,#409,.F.);
#193=ORIENTED_EDGE('',*,*,#410,.T.);
#194=ORIENTED_EDGE('',*,*,#411,.T.);
#195=ORIENTED_EDGE('',*,*,#412,.F.);
#196=ORIENTED_EDGE('',*,*,#413,.F.);
#197=ORIENTED_EDGE('',*,*,#412,.T.);
#198=ORIENTED_EDGE('',*,*,#414,.T.);
#199=ORIENTED_EDGE('',*,*,#415,.T.);
#200=ORIENTED_EDGE('',*,*,#416,.T.);
#201=ORIENTED_EDGE('',*,*,#417,.T.);
#202=ORIENTED_EDGE('',*,*,#418,.F.);
#203=ORIENTED_EDGE('',*,*,#388,.T.);
#204=ORIENTED_EDGE('',*,*,#419,.T.);
#205=ORIENTED_EDGE('',*,*,#420,.F.);
#206=ORIENTED_EDGE('',*,*,#421,.F.);
#207=ORIENTED_EDGE('',*,*,#422,.T.);
#208=ORIENTED_EDGE('',*,*,#420,.T.);
#209=ORIENTED_EDGE('',*,*,#423,.T.);
#210=ORIENTED_EDGE('',*,*,#410,.F.);
#211=ORIENTED_EDGE('',*,*,#424,.F.);
#212=ORIENTED_EDGE('',*,*,#406,.T.);
#213=ORIENTED_EDGE('',*,*,#425,.T.);
#214=ORIENTED_EDGE('',*,*,#390,.F.);
#215=ORIENTED_EDGE('',*,*,#426,.F.);
#216=ORIENTED_EDGE('',*,*,#427,.T.);
#217=ORIENTED_EDGE('',*,*,#408,.T.);
#218=ORIENTED_EDGE('',*,*,#428,.T.);
#219=ORIENTED_EDGE('',*,*,#417,.F.);
#220=ORIENTED_EDGE('',*,*,#415,.F.);
#221=ORIENTED_EDGE('',*,*,#429,.F.);
#222=ORIENTED_EDGE('',*,*,#404,.T.);
#223=ORIENTED_EDGE('',*,*,#430,.F.);
#224=ORIENTED_EDGE('',*,*,#430,.T.);
#225=ORIENTED_EDGE('',*,*,#409,.T.);
#226=ORIENTED_EDGE('',*,*,#427,.F.);
#227=ORIENTED_EDGE('',*,*,#416,.F.);
#228=ORIENTED_EDGE('',*,*,#386,.T.);
#229=ORIENTED_EDGE('',*,*,#431,.T.);
#230=ORIENTED_EDGE('',*,*,#383,.F.);
#231=ORIENTED_EDGE('',*,*,#432,.T.);
#232=ORIENTED_EDGE('',*,*,#384,.T.);
#233=ORIENTED_EDGE('',*,*,#433,.F.);
#234=ORIENTED_EDGE('',*,*,#379,.F.);
#235=ORIENTED_EDGE('',*,*,#434,.F.);
#236=ORIENTED_EDGE('',*,*,#434,.T.);
#237=ORIENTED_EDGE('',*,*,#378,.T.);
#238=ORIENTED_EDGE('',*,*,#431,.F.);
#239=ORIENTED_EDGE('',*,*,#385,.F.);
#240=ORIENTED_EDGE('',*,*,#435,.F.);
#241=ORIENTED_EDGE('',*,*,#422,.F.);
#242=ORIENTED_EDGE('',*,*,#435,.T.);
#243=ORIENTED_EDGE('',*,*,#436,.F.);
#244=ORIENTED_EDGE('',*,*,#437,.T.);
#245=ORIENTED_EDGE('',*,*,#438,.T.);
#246=ORIENTED_EDGE('',*,*,#356,.F.);
#247=ORIENTED_EDGE('',*,*,#398,.T.);
#248=ORIENTED_EDGE('',*,*,#401,.F.);
#249=ORIENTED_EDGE('',*,*,#403,.T.);
#250=ORIENTED_EDGE('',*,*,#380,.F.);
#251=ORIENTED_EDGE('',*,*,#433,.T.);
#252=ORIENTED_EDGE('',*,*,#389,.T.);
#253=ORIENTED_EDGE('',*,*,#421,.T.);
#254=ORIENTED_EDGE('',*,*,#424,.T.);
#255=ORIENTED_EDGE('',*,*,#413,.T.);
#256=ORIENTED_EDGE('',*,*,#418,.T.);
#257=ORIENTED_EDGE('',*,*,#428,.F.);
#258=ORIENTED_EDGE('',*,*,#407,.F.);
#259=ORIENTED_EDGE('',*,*,#426,.T.);
#260=ORIENTED_EDGE('',*,*,#393,.F.);
#261=ORIENTED_EDGE('',*,*,#395,.T.);
#262=ORIENTED_EDGE('',*,*,#352,.F.);
#263=ORIENTED_EDGE('',*,*,#432,.F.);
#264=ORIENTED_EDGE('',*,*,#382,.T.);
#265=ORIENTED_EDGE('',*,*,#402,.F.);
#266=ORIENTED_EDGE('',*,*,#399,.T.);
#267=ORIENTED_EDGE('',*,*,#396,.F.);
#268=ORIENTED_EDGE('',*,*,#354,.T.);
#269=ORIENTED_EDGE('',*,*,#394,.F.);
#270=ORIENTED_EDGE('',*,*,#391,.T.);
#271=ORIENTED_EDGE('',*,*,#425,.F.);
#272=ORIENTED_EDGE('',*,*,#405,.T.);
#273=ORIENTED_EDGE('',*,*,#429,.T.);
#274=ORIENTED_EDGE('',*,*,#414,.F.);
#275=ORIENTED_EDGE('',*,*,#411,.F.);
#276=ORIENTED_EDGE('',*,*,#423,.F.);
#277=ORIENTED_EDGE('',*,*,#419,.F.);
#278=ORIENTED_EDGE('',*,*,#387,.F.);
#279=ORIENTED_EDGE('',*,*,#360,.F.);
#280=ORIENTED_EDGE('',*,*,#439,.F.);
#281=ORIENTED_EDGE('',*,*,#440,.T.);
#282=ORIENTED_EDGE('',*,*,#441,.T.);
#283=ORIENTED_EDGE('',*,*,#361,.F.);
#284=ORIENTED_EDGE('',*,*,#441,.F.);
#285=ORIENTED_EDGE('',*,*,#442,.T.);
#286=ORIENTED_EDGE('',*,*,#375,.T.);
#287=ORIENTED_EDGE('',*,*,#349,.T.);
#288=ORIENTED_EDGE('',*,*,#377,.F.);
#289=ORIENTED_EDGE('',*,*,#443,.F.);
#290=ORIENTED_EDGE('',*,*,#444,.T.);
#291=ORIENTED_EDGE('',*,*,#350,.F.);
#292=ORIENTED_EDGE('',*,*,#444,.F.);
#293=ORIENTED_EDGE('',*,*,#445,.T.);
#294=ORIENTED_EDGE('',*,*,#446,.T.);
#295=ORIENTED_EDGE('',*,*,#447,.T.);
#296=ORIENTED_EDGE('',*,*,#436,.T.);
#297=ORIENTED_EDGE('',*,*,#351,.F.);
#298=ORIENTED_EDGE('',*,*,#446,.F.);
#299=ORIENTED_EDGE('',*,*,#438,.F.);
#300=ORIENTED_EDGE('',*,*,#448,.F.);
#301=ORIENTED_EDGE('',*,*,#449,.T.);
#302=ORIENTED_EDGE('',*,*,#357,.T.);
#303=ORIENTED_EDGE('',*,*,#358,.F.);
#304=ORIENTED_EDGE('',*,*,#449,.F.);
#305=ORIENTED_EDGE('',*,*,#450,.T.);
#306=ORIENTED_EDGE('',*,*,#451,.T.);
#307=ORIENTED_EDGE('',*,*,#359,.T.);
#308=ORIENTED_EDGE('',*,*,#451,.F.);
#309=ORIENTED_EDGE('',*,*,#452,.F.);
#310=ORIENTED_EDGE('',*,*,#439,.T.);
#311=ORIENTED_EDGE('',*,*,#437,.F.);
#312=ORIENTED_EDGE('',*,*,#447,.F.);
#313=ORIENTED_EDGE('',*,*,#445,.F.);
#314=ORIENTED_EDGE('',*,*,#443,.T.);
#315=ORIENTED_EDGE('',*,*,#376,.T.);
#316=ORIENTED_EDGE('',*,*,#442,.F.);
#317=ORIENTED_EDGE('',*,*,#440,.F.);
#318=ORIENTED_EDGE('',*,*,#452,.T.);
#319=ORIENTED_EDGE('',*,*,#450,.F.);
#320=ORIENTED_EDGE('',*,*,#448,.T.);
#321=EDGE_CURVE('',#453,#454,#543,.T.);
#322=EDGE_CURVE('',#454,#455,#544,.T.);
#323=EDGE_CURVE('',#456,#455,#545,.T.);
#324=EDGE_CURVE('',#453,#456,#546,.T.);
#325=EDGE_CURVE('',#457,#457,#27,.T.);
#326=EDGE_CURVE('',#455,#458,#547,.T.);
#327=EDGE_CURVE('',#459,#458,#548,.T.);
#328=EDGE_CURVE('',#456,#459,#549,.T.);
#329=EDGE_CURVE('',#458,#460,#550,.T.);
#330=EDGE_CURVE('',#461,#460,#551,.T.);
#331=EDGE_CURVE('',#459,#461,#552,.T.);
#332=EDGE_CURVE('',#462,#462,#28,.T.);
#333=EDGE_CURVE('',#463,#464,#553,.T.);
#334=EDGE_CURVE('',#465,#464,#554,.T.);
#335=EDGE_CURVE('',#466,#465,#555,.T.);
#336=EDGE_CURVE('',#466,#463,#556,.T.);
#337=EDGE_CURVE('',#465,#467,#29,.T.);
#338=EDGE_CURVE('',#468,#467,#557,.T.);
#339=EDGE_CURVE('',#466,#468,#30,.T.);
#340=EDGE_CURVE('',#469,#467,#558,.T.);
#341=EDGE_CURVE('',#470,#469,#559,.T.);
#342=EDGE_CURVE('',#470,#468,#560,.T.);
#343=EDGE_CURVE('',#469,#471,#31,.T.);
#344=EDGE_CURVE('',#472,#471,#561,.T.);
#345=EDGE_CURVE('',#470,#472,#32,.T.);
#346=EDGE_CURVE('',#473,#471,#562,.T.);
#347=EDGE_CURVE('',#474,#473,#563,.T.);
#348=EDGE_CURVE('',#474,#475,#564,.T.);
#349=EDGE_CURVE('',#476,#475,#565,.T.);
#350=EDGE_CURVE('',#476,#477,#566,.T.);
#351=EDGE_CURVE('',#477,#478,#567,.T.);
#352=EDGE_CURVE('',#478,#479,#568,.T.);
#353=EDGE_CURVE('',#479,#480,#569,.T.);
#354=EDGE_CURVE('',#481,#480,#570,.T.);
#355=EDGE_CURVE('',#482,#481,#571,.T.);
#356=EDGE_CURVE('',#482,#483,#572,.T.);
#357=EDGE_CURVE('',#484,#483,#573,.T.);
#358=EDGE_CURVE('',#484,#485,#33,.T.);
#359=EDGE_CURVE('',#486,#485,#574,.T.);
#360=EDGE_CURVE('',#486,#487,#34,.T.);
#361=EDGE_CURVE('',#487,#488,#575,.T.);
#362=EDGE_CURVE('',#488,#472,#576,.T.);
#363=EDGE_CURVE('',#473,#489,#35,.T.);
#364=EDGE_CURVE('',#490,#489,#577,.T.);
#365=EDGE_CURVE('',#474,#490,#36,.T.);
#366=EDGE_CURVE('',#491,#489,#578,.T.);
#367=EDGE_CURVE('',#492,#491,#579,.T.);
#368=EDGE_CURVE('',#492,#490,#580,.T.);
#369=EDGE_CURVE('',#491,#464,#37,.T.);
#370=EDGE_CURVE('',#492,#463,#38,.T.);
#371=EDGE_CURVE('',#493,#493,#39,.T.);
#372=EDGE_CURVE('',#460,#454,#581,.T.);
#373=EDGE_CURVE('',#461,#453,#582,.T.);
#374=EDGE_CURVE('',#494,#494,#40,.T.);
#375=EDGE_CURVE('',#495,#488,#583,.T.);
#376=EDGE_CURVE('',#496,#495,#584,.T.);
#377=EDGE_CURVE('',#496,#475,#585,.T.);
#378=EDGE_CURVE('',#497,#498,#41,.T.);
#379=EDGE_CURVE('',#497,#499,#586,.T.);
#380=EDGE_CURVE('',#499,#500,#587,.T.);
#381=EDGE_CURVE('',#500,#501,#588,.T.);
#382=EDGE_CURVE('',#502,#501,#589,.T.);
#383=EDGE_CURVE('',#502,#498,#590,.T.);
#384=EDGE_CURVE('',#503,#504,#591,.T.);
#385=EDGE_CURVE('',#503,#505,#42,.T.);
#386=EDGE_CURVE('',#506,#505,#592,.T.);
#387=EDGE_CURVE('',#506,#507,#593,.T.);
#388=EDGE_CURVE('',#508,#507,#594,.T.);
#389=EDGE_CURVE('',#504,#508,#595,.T.);
#390=EDGE_CURVE('',#509,#510,#596,.T.);
#391=EDGE_CURVE('',#511,#510,#597,.T.);
#392=EDGE_CURVE('',#512,#511,#598,.T.);
#393=EDGE_CURVE('',#512,#509,#599,.T.);
#394=EDGE_CURVE('',#511,#480,#43,.T.);
#395=EDGE_CURVE('',#512,#479,#44,.T.);
#396=EDGE_CURVE('',#481,#513,#45,.T.);
#397=EDGE_CURVE('',#514,#513,#600,.T.);
#398=EDGE_CURVE('',#482,#514,#46,.T.);
#399=EDGE_CURVE('',#515,#513,#601,.T.);
#400=EDGE_CURVE('',#516,#515,#602,.T.);
#401=EDGE_CURVE('',#516,#514,#603,.T.);
#402=EDGE_CURVE('',#515,#501,#47,.T.);
#403=EDGE_CURVE('',#516,#500,#48,.T.);
#404=EDGE_CURVE('',#517,#518,#604,.T.);
#405=EDGE_CURVE('',#519,#517,#605,.T.);
#406=EDGE_CURVE('',#520,#519,#606,.T.);
#407=EDGE_CURVE('',#520,#521,#607,.T.);
#408=EDGE_CURVE('',#522,#521,#608,.T.);
#409=EDGE_CURVE('',#518,#522,#49,.T.);
#410=EDGE_CURVE('',#523,#524,#609,.T.);
#411=EDGE_CURVE('',#524,#525,#610,.T.);
#412=EDGE_CURVE('',#526,#525,#611,.T.);
#413=EDGE_CURVE('',#523,#526,#612,.T.);
#414=EDGE_CURVE('',#525,#527,#613,.T.);
#415=EDGE_CURVE('',#527,#528,#614,.T.);
#416=EDGE_CURVE('',#528,#529,#50,.T.);
#417=EDGE_CURVE('',#529,#530,#615,.T.);
#418=EDGE_CURVE('',#526,#530,#616,.T.);
#419=EDGE_CURVE('',#507,#531,#617,.T.);
#420=EDGE_CURVE('',#532,#531,#618,.T.);
#421=EDGE_CURVE('',#508,#532,#619,.T.);
#422=EDGE_CURVE('',#533,#533,#51,.T.);
#423=EDGE_CURVE('',#531,#524,#620,.T.);
#424=EDGE_CURVE('',#532,#523,#621,.T.);
#425=EDGE_CURVE('',#519,#510,#52,.T.);
#426=EDGE_CURVE('',#520,#509,#53,.T.);
#427=EDGE_CURVE('',#529,#522,#622,.T.);
#428=EDGE_CURVE('',#521,#530,#623,.T.);
#429=EDGE_CURVE('',#517,#527,#624,.T.);
#430=EDGE_CURVE('',#528,#518,#625,.T.);
#431=EDGE_CURVE('',#505,#498,#626,.T.);
#432=EDGE_CURVE('',#502,#506,#627,.T.);
#433=EDGE_CURVE('',#499,#504,#628,.T.);
#434=EDGE_CURVE('',#503,#497,#629,.T.);
#435=EDGE_CURVE('',#534,#534,#54,.T.);
#436=EDGE_CURVE('',#535,#478,#630,.T.);
#437=EDGE_CURVE('',#535,#536,#631,.T.);
#438=EDGE_CURVE('',#536,#483,#632,.T.);
#439=EDGE_CURVE('',#537,#486,#633,.T.);
#440=EDGE_CURVE('',#537,#538,#55,.T.);
#441=EDGE_CURVE('',#538,#487,#634,.T.);
#442=EDGE_CURVE('',#538,#495,#635,.T.);
#443=EDGE_CURVE('',#539,#496,#636,.T.);
#444=EDGE_CURVE('',#539,#476,#637,.T.);
#445=EDGE_CURVE('',#539,#540,#638,.T.);
#446=EDGE_CURVE('',#540,#477,#639,.T.);
#447=EDGE_CURVE('',#540,#535,#640,.T.);
#448=EDGE_CURVE('',#541,#536,#641,.T.);
#449=EDGE_CURVE('',#541,#484,#642,.T.);
#450=EDGE_CURVE('',#541,#542,#56,.T.);
#451=EDGE_CURVE('',#542,#485,#643,.T.);
#452=EDGE_CURVE('',#537,#542,#644,.T.);
#453=VERTEX_POINT('',#1303);
#454=VERTEX_POINT('',#1304);
#455=VERTEX_POINT('',#1306);
#456=VERTEX_POINT('',#1308);
#457=VERTEX_POINT('',#1312);
#458=VERTEX_POINT('',#1314);
#459=VERTEX_POINT('',#1316);
#460=VERTEX_POINT('',#1320);
#461=VERTEX_POINT('',#1322);
#462=VERTEX_POINT('',#1326);
#463=VERTEX_POINT('',#1328);
#464=VERTEX_POINT('',#1329);
#465=VERTEX_POINT('',#1331);
#466=VERTEX_POINT('',#1333);
#467=VERTEX_POINT('',#1337);
#468=VERTEX_POINT('',#1339);
#469=VERTEX_POINT('',#1343);
#470=VERTEX_POINT('',#1345);
#471=VERTEX_POINT('',#1349);
#472=VERTEX_POINT('',#1351);
#473=VERTEX_POINT('',#1355);
#474=VERTEX_POINT('',#1357);
#475=VERTEX_POINT('',#1359);
#476=VERTEX_POINT('',#1361);
#477=VERTEX_POINT('',#1363);
#478=VERTEX_POINT('',#1365);
#479=VERTEX_POINT('',#1367);
#480=VERTEX_POINT('',#1369);
#481=VERTEX_POINT('',#1371);
#482=VERTEX_POINT('',#1373);
#483=VERTEX_POINT('',#1375);
#484=VERTEX_POINT('',#1377);
#485=VERTEX_POINT('',#1379);
#486=VERTEX_POINT('',#1381);
#487=VERTEX_POINT('',#1383);
#488=VERTEX_POINT('',#1385);
#489=VERTEX_POINT('',#1389);
#490=VERTEX_POINT('',#1391);
#491=VERTEX_POINT('',#1395);
#492=VERTEX_POINT('',#1397);
#493=VERTEX_POINT('',#1404);
#494=VERTEX_POINT('',#1409);
#495=VERTEX_POINT('',#1414);
#496=VERTEX_POINT('',#1416);
#497=VERTEX_POINT('',#1421);
#498=VERTEX_POINT('',#1422);
#499=VERTEX_POINT('',#1424);
#500=VERTEX_POINT('',#1426);
#501=VERTEX_POINT('',#1428);
#502=VERTEX_POINT('',#1430);
#503=VERTEX_POINT('',#1434);
#504=VERTEX_POINT('',#1435);
#505=VERTEX_POINT('',#1437);
#506=VERTEX_POINT('',#1439);
#507=VERTEX_POINT('',#1441);
#508=VERTEX_POINT('',#1443);
#509=VERTEX_POINT('',#1447);
#510=VERTEX_POINT('',#1448);
#511=VERTEX_POINT('',#1450);
#512=VERTEX_POINT('',#1452);
#513=VERTEX_POINT('',#1459);
#514=VERTEX_POINT('',#1461);
#515=VERTEX_POINT('',#1465);
#516=VERTEX_POINT('',#1467);
#517=VERTEX_POINT('',#1474);
#518=VERTEX_POINT('',#1475);
#519=VERTEX_POINT('',#1477);
#520=VERTEX_POINT('',#1479);
#521=VERTEX_POINT('',#1481);
#522=VERTEX_POINT('',#1483);
#523=VERTEX_POINT('',#1487);
#524=VERTEX_POINT('',#1488);
#525=VERTEX_POINT('',#1490);
#526=VERTEX_POINT('',#1492);
#527=VERTEX_POINT('',#1496);
#528=VERTEX_POINT('',#1498);
#529=VERTEX_POINT('',#1500);
#530=VERTEX_POINT('',#1502);
#531=VERTEX_POINT('',#1506);
#532=VERTEX_POINT('',#1508);
#533=VERTEX_POINT('',#1512);
#534=VERTEX_POINT('',#1534);
#535=VERTEX_POINT('',#1538);
#536=VERTEX_POINT('',#1540);
#537=VERTEX_POINT('',#1545);
#538=VERTEX_POINT('',#1547);
#539=VERTEX_POINT('',#1553);
#540=VERTEX_POINT('',#1557);
#541=VERTEX_POINT('',#1563);
#542=VERTEX_POINT('',#1567);
#543=LINE('',#1302,#645);
#544=LINE('',#1305,#646);
#545=LINE('',#1307,#647);
#546=LINE('',#1309,#648);
#547=LINE('',#1313,#649);
#548=LINE('',#1315,#650);
#549=LINE('',#1317,#651);
#550=LINE('',#1319,#652);
#551=LINE('',#1321,#653);
#552=LINE('',#1323,#654);
#553=LINE('',#1327,#655);
#554=LINE('',#1330,#656);
#555=LINE('',#1332,#657);
#556=LINE('',#1334,#658);
#557=LINE('',#1338,#659);
#558=LINE('',#1342,#660);
#559=LINE('',#1344,#661);
#560=LINE('',#1346,#662);
#561=LINE('',#1350,#663);
#562=LINE('',#1354,#664);
#563=LINE('',#1356,#665);
#564=LINE('',#1358,#666);
#565=LINE('',#1360,#667);
#566=LINE('',#1362,#668);
#567=LINE('',#1364,#669);
#568=LINE('',#1366,#670);
#569=LINE('',#1368,#671);
#570=LINE('',#1370,#672);
#571=LINE('',#1372,#673);
#572=LINE('',#1374,#674);
#573=LINE('',#1376,#675);
#574=LINE('',#1380,#676);
#575=LINE('',#1384,#677);
#576=LINE('',#1386,#678);
#577=LINE('',#1390,#679);
#578=LINE('',#1394,#680);
#579=LINE('',#1396,#681);
#580=LINE('',#1398,#682);
#581=LINE('',#1405,#683);
#582=LINE('',#1406,#684);
#583=LINE('',#1413,#685);
#584=LINE('',#1415,#686);
#585=LINE('',#1417,#687);
#586=LINE('',#1423,#688);
#587=LINE('',#1425,#689);
#588=LINE('',#1427,#690);
#589=LINE('',#1429,#691);
#590=LINE('',#1431,#692);
#591=LINE('',#1433,#693);
#592=LINE('',#1438,#694);
#593=LINE('',#1440,#695);
#594=LINE('',#1442,#696);
#595=LINE('',#1444,#697);
#596=LINE('',#1446,#698);
#597=LINE('',#1449,#699);
#598=LINE('',#1451,#700);
#599=LINE('',#1453,#701);
#600=LINE('',#1460,#702);
#601=LINE('',#1464,#703);
#602=LINE('',#1466,#704);
#603=LINE('',#1468,#705);
#604=LINE('',#1473,#706);
#605=LINE('',#1476,#707);
#606=LINE('',#1478,#708);
#607=LINE('',#1480,#709);
#608=LINE('',#1482,#710);
#609=LINE('',#1486,#711);
#610=LINE('',#1489,#712);
#611=LINE('',#1491,#713);
#612=LINE('',#1493,#714);
#613=LINE('',#1495,#715);
#614=LINE('',#1497,#716);
#615=LINE('',#1501,#717);
#616=LINE('',#1503,#718);
#617=LINE('',#1505,#719);
#618=LINE('',#1507,#720);
#619=LINE('',#1509,#721);
#620=LINE('',#1513,#722);
#621=LINE('',#1514,#723);
#622=LINE('',#1519,#724);
#623=LINE('',#1520,#725);
#624=LINE('',#1522,#726);
#625=LINE('',#1523,#727);
#626=LINE('',#1526,#728);
#627=LINE('',#1527,#729);
#628=LINE('',#1529,#730);
#629=LINE('',#1530,#731);
#630=LINE('',#1537,#732);
#631=LINE('',#1539,#733);
#632=LINE('',#1541,#734);
#633=LINE('',#1544,#735);
#634=LINE('',#1548,#736);
#635=LINE('',#1550,#737);
#636=LINE('',#1552,#738);
#637=LINE('',#1554,#739);
#638=LINE('',#1556,#740);
#639=LINE('',#1558,#741);
#640=LINE('',#1560,#742);
#641=LINE('',#1562,#743);
#642=LINE('',#1564,#744);
#643=LINE('',#1568,#745);
#644=LINE('',#1570,#746);
#645=VECTOR('',#1042,1.);
#646=VECTOR('',#1043,1.);
#647=VECTOR('',#1044,1.);
#648=VECTOR('',#1045,1.);
#649=VECTOR('',#1050,1.);
#650=VECTOR('',#1051,1.);
#651=VECTOR('',#1052,1.);
#652=VECTOR('',#1055,1.);
#653=VECTOR('',#1056,1.);
#654=VECTOR('',#1057,1.);
#655=VECTOR('',#1062,1.);
#656=VECTOR('',#1063,1.);
#657=VECTOR('',#1064,1.);
#658=VECTOR('',#1065,1.);
#659=VECTOR('',#1070,1.);
#660=VECTOR('',#1075,1.);
#661=VECTOR('',#1076,1.);
#662=VECTOR('',#1077,1.);
#663=VECTOR('',#1082,1.);
#664=VECTOR('',#1087,1.);
#665=VECTOR('',#1088,1.);
#666=VECTOR('',#1089,1.);
#667=VECTOR('',#1090,1.);
#668=VECTOR('',#1091,1.);
#669=VECTOR('',#1092,1.);
#670=VECTOR('',#1093,1.);
#671=VECTOR('',#1094,1.);
#672=VECTOR('',#1095,1.);
#673=VECTOR('',#1096,1.);
#674=VECTOR('',#1097,1.);
#675=VECTOR('',#1098,1.);
#676=VECTOR('',#1101,1.);
#677=VECTOR('',#1104,1.);
#678=VECTOR('',#1105,1.);
#679=VECTOR('',#1110,1.);
#680=VECTOR('',#1115,1.);
#681=VECTOR('',#1116,1.);
#682=VECTOR('',#1117,1.);
#683=VECTOR('',#1128,1.);
#684=VECTOR('',#1129,1.);
#685=VECTOR('',#1140,1.);
#686=VECTOR('',#1141,1.);
#687=VECTOR('',#1142,1.);
#688=VECTOR('',#1149,1.);
#689=VECTOR('',#1150,1.);
#690=VECTOR('',#1151,1.);
#691=VECTOR('',#1152,1.);
#692=VECTOR('',#1153,1.);
#693=VECTOR('',#1156,1.);
#694=VECTOR('',#1159,1.);
#695=VECTOR('',#1160,1.);
#696=VECTOR('',#1161,1.);
#697=VECTOR('',#1162,1.);
#698=VECTOR('',#1165,1.);
#699=VECTOR('',#1166,1.);
#700=VECTOR('',#1167,1.);
#701=VECTOR('',#1168,1.);
#702=VECTOR('',#1179,1.);
#703=VECTOR('',#1184,1.);
#704=VECTOR('',#1185,1.);
#705=VECTOR('',#1186,1.);
#706=VECTOR('',#1195,1.);
#707=VECTOR('',#1196,1.);
#708=VECTOR('',#1197,1.);
#709=VECTOR('',#1198,1.);
#710=VECTOR('',#1199,1.);
#711=VECTOR('',#1204,1.);
#712=VECTOR('',#1205,1.);
#713=VECTOR('',#1206,1.);
#714=VECTOR('',#1207,1.);
#715=VECTOR('',#1210,1.);
#716=VECTOR('',#1211,1.);
#717=VECTOR('',#1214,1.);
#718=VECTOR('',#1215,1.);
#719=VECTOR('',#1218,1.);
#720=VECTOR('',#1219,1.);
#721=VECTOR('',#1220,1.);
#722=VECTOR('',#1225,1.);
#723=VECTOR('',#1226,1.);
#724=VECTOR('',#1235,1.);
#725=VECTOR('',#1236,1.);
#726=VECTOR('',#1239,1.);
#727=VECTOR('',#1240,1.);
#728=VECTOR('',#1245,1.);
#729=VECTOR('',#1246,1.);
#730=VECTOR('',#1249,1.);
#731=VECTOR('',#1250,1.);
#732=VECTOR('',#1261,1.);
#733=VECTOR('',#1262,1.);
#734=VECTOR('',#1263,1.);
#735=VECTOR('',#1268,1.);
#736=VECTOR('',#1271,1.);
#737=VECTOR('',#1274,1.);
#738=VECTOR('',#1277,1.);
#739=VECTOR('',#1278,1.);
#740=VECTOR('',#1281,1.);
#741=VECTOR('',#1282,1.);
#742=VECTOR('',#1285,1.);
#743=VECTOR('',#1288,1.);
#744=VECTOR('',#1289,1.);
#745=VECTOR('',#1294,1.);
#746=VECTOR('',#1297,1.);
#747=EDGE_LOOP('',(#57,#58,#59,#60));
#748=EDGE_LOOP('',(#61));
#749=EDGE_LOOP('',(#62,#63,#64,#65));
#750=EDGE_LOOP('',(#66,#67,#68,#69));
#751=EDGE_LOOP('',(#70));
#752=EDGE_LOOP('',(#71,#72,#73,#74));
#753=EDGE_LOOP('',(#75,#76,#77,#78));
#754=EDGE_LOOP('',(#79,#80,#81,#82));
#755=EDGE_LOOP('',(#83,#84,#85,#86));
#756=EDGE_LOOP('',(#87,#88,#89,#90,#91,#92,#93,#94,#95,#96,#97,#98,#99,
#100,#101,#102,#103,#104));
#757=EDGE_LOOP('',(#105,#106,#107,#108));
#758=EDGE_LOOP('',(#109,#110,#111,#112));
#759=EDGE_LOOP('',(#113,#114,#115,#116));
#760=EDGE_LOOP('',(#117));
#761=EDGE_LOOP('',(#118,#119,#120,#121));
#762=EDGE_LOOP('',(#122));
#763=EDGE_LOOP('',(#123));
#764=EDGE_LOOP('',(#124));
#765=EDGE_LOOP('',(#125));
#766=EDGE_LOOP('',(#126));
#767=EDGE_LOOP('',(#127,#128,#129,#130,#131,#132,#133,#134,#135,#136,#137,
#138));
#768=EDGE_LOOP('',(#139,#140,#141,#142));
#769=EDGE_LOOP('',(#143,#144,#145,#146,#147,#148,#149,#150));
#770=EDGE_LOOP('',(#151,#152,#153,#154));
#771=EDGE_LOOP('',(#155,#156,#157,#158,#159,#160));
#772=EDGE_LOOP('',(#161,#162,#163,#164,#165,#166));
#773=EDGE_LOOP('',(#167,#168,#169,#170));
#774=EDGE_LOOP('',(#171,#172,#173,#174));
#775=EDGE_LOOP('',(#175,#176,#177,#178));
#776=EDGE_LOOP('',(#179,#180,#181,#182));
#777=EDGE_LOOP('',(#183,#184,#185,#186));
#778=EDGE_LOOP('',(#187,#188,#189,#190,#191,#192));
#779=EDGE_LOOP('',(#193,#194,#195,#196));
#780=EDGE_LOOP('',(#197,#198,#199,#200,#201,#202));
#781=EDGE_LOOP('',(#203,#204,#205,#206));
#782=EDGE_LOOP('',(#207));
#783=EDGE_LOOP('',(#208,#209,#210,#211));
#784=EDGE_LOOP('',(#212,#213,#214,#215));
#785=EDGE_LOOP('',(#216,#217,#218,#219));
#786=EDGE_LOOP('',(#220,#221,#222,#223));
#787=EDGE_LOOP('',(#224,#225,#226,#227));
#788=EDGE_LOOP('',(#228,#229,#230,#231));
#789=EDGE_LOOP('',(#232,#233,#234,#235));
#790=EDGE_LOOP('',(#236,#237,#238,#239));
#791=EDGE_LOOP('',(#240));
#792=EDGE_LOOP('',(#241));
#793=EDGE_LOOP('',(#242));
#794=EDGE_LOOP('',(#243,#244,#245,#246,#247,#248,#249,#250,#251,#252,#253,
#254,#255,#256,#257,#258,#259,#260,#261,#262));
#795=EDGE_LOOP('',(#263,#264,#265,#266,#267,#268,#269,#270,#271,#272,#273,
#274,#275,#276,#277,#278));
#796=EDGE_LOOP('',(#279,#280,#281,#282));
#797=EDGE_LOOP('',(#283,#284,#285,#286));
#798=EDGE_LOOP('',(#287,#288,#289,#290));
#799=EDGE_LOOP('',(#291,#292,#293,#294));
#800=EDGE_LOOP('',(#295,#296,#297,#298));
#801=EDGE_LOOP('',(#299,#300,#301,#302));
#802=EDGE_LOOP('',(#303,#304,#305,#306));
#803=EDGE_LOOP('',(#307,#308,#309,#310));
#804=EDGE_LOOP('',(#311,#312,#313,#314,#315,#316,#317,#318,#319,#320));
#805=FACE_BOUND('',#747,.T.);
#806=FACE_BOUND('',#748,.T.);
#807=FACE_BOUND('',#749,.T.);
#808=FACE_BOUND('',#750,.T.);
#809=FACE_BOUND('',#751,.T.);
#810=FACE_BOUND('',#752,.T.);
#811=FACE_BOUND('',#753,.T.);
#812=FACE_BOUND('',#754,.T.);
#813=FACE_BOUND('',#755,.T.);
#814=FACE_BOUND('',#756,.T.);
#815=FACE_BOUND('',#757,.T.);
#816=FACE_BOUND('',#758,.T.);
#817=FACE_BOUND('',#759,.T.);
#818=FACE_BOUND('',#760,.T.);
#819=FACE_BOUND('',#761,.T.);
#820=FACE_BOUND('',#762,.T.);
#821=FACE_BOUND('',#763,.T.);
#822=FACE_BOUND('',#764,.T.);
#823=FACE_BOUND('',#765,.T.);
#824=FACE_BOUND('',#766,.T.);
#825=FACE_BOUND('',#767,.T.);
#826=FACE_BOUND('',#768,.T.);
#827=FACE_BOUND('',#769,.T.);
#828=FACE_BOUND('',#770,.T.);
#829=FACE_BOUND('',#771,.T.);
#830=FACE_BOUND('',#772,.T.);
#831=FACE_BOUND('',#773,.T.);
#832=FACE_BOUND('',#774,.T.);
#833=FACE_BOUND('',#775,.T.);
#834=FACE_BOUND('',#776,.T.);
#835=FACE_BOUND('',#777,.T.);
#836=FACE_BOUND('',#778,.T.);
#837=FACE_BOUND('',#779,.T.);
#838=FACE_BOUND('',#780,.T.);
#839=FACE_BOUND('',#781,.T.);
#840=FACE_BOUND('',#782,.T.);
#841=FACE_BOUND('',#783,.T.);
#842=FACE_BOUND('',#784,.T.);
#843=FACE_BOUND('',#785,.T.);
#844=FACE_BOUND('',#786,.T.);
#845=FACE_BOUND('',#787,.T.);
#846=FACE_BOUND('',#788,.T.);
#847=FACE_BOUND('',#789,.T.);
#848=FACE_BOUND('',#790,.T.);
#849=FACE_BOUND('',#791,.T.);
#850=FACE_BOUND('',#792,.T.);
#851=FACE_BOUND('',#793,.T.);
#852=FACE_BOUND('',#794,.T.);
#853=FACE_BOUND('',#795,.T.);
#854=FACE_BOUND('',#796,.T.);
#855=FACE_BOUND('',#797,.T.);
#856=FACE_BOUND('',#798,.T.);
#857=FACE_BOUND('',#799,.T.);
#858=FACE_BOUND('',#800,.T.);
#859=FACE_BOUND('',#801,.T.);
#860=FACE_BOUND('',#802,.T.);
#861=FACE_BOUND('',#803,.T.);
#862=FACE_BOUND('',#804,.T.);
#863=PLANE('',#959);
#864=PLANE('',#960);
#865=PLANE('',#962);
#866=PLANE('',#963);
#867=PLANE('',#968);
#868=PLANE('',#972);
#869=PLANE('',#978);
#870=PLANE('',#982);
#871=PLANE('',#986);
#872=PLANE('',#988);
#873=PLANE('',#989);
#874=PLANE('',#990);
#875=PLANE('',#992);
#876=PLANE('',#994);
#877=PLANE('',#1001);
#878=PLANE('',#1005);
#879=PLANE('',#1007);
#880=PLANE('',#1008);
#881=PLANE('',#1010);
#882=PLANE('',#1011);
#883=PLANE('',#1016);
#884=PLANE('',#1017);
#885=PLANE('',#1019);
#886=PLANE('',#1020);
#887=PLANE('',#1024);
#888=PLANE('',#1025);
#889=PLANE('',#1026);
#890=PLANE('',#1029);
#891=PLANE('',#1030);
#892=PLANE('',#1031);
#893=PLANE('',#1032);
#894=PLANE('',#1033);
#895=PLANE('',#1036);
#896=PLANE('',#1037);
#897=ADVANCED_FACE('',(#805),#863,.F.);
#898=ADVANCED_FACE('',(#806,#807),#864,.F.);
#899=ADVANCED_FACE('',(#808),#865,.F.);
#900=ADVANCED_FACE('',(#809,#810),#866,.T.);
#901=ADVANCED_FACE('',(#811),#12,.T.);
#902=ADVANCED_FACE('',(#812),#867,.T.);
#903=ADVANCED_FACE('',(#813),#13,.T.);
#904=ADVANCED_FACE('',(#814),#868,.T.);
#905=ADVANCED_FACE('',(#815),#14,.T.);
#906=ADVANCED_FACE('',(#816),#869,.T.);
#907=ADVANCED_FACE('',(#817),#15,.T.);
#908=ADVANCED_FACE('',(#818,#819),#870,.F.);
#909=ADVANCED_FACE('',(#820,#821),#16,.T.);
#910=ADVANCED_FACE('',(#822),#871,.T.);
#911=ADVANCED_FACE('',(#823,#824),#17,.T.);
#912=ADVANCED_FACE('',(#825,#826),#872,.T.);
#913=ADVANCED_FACE('',(#827,#828),#873,.F.);
#914=ADVANCED_FACE('',(#829),#874,.T.);
#915=ADVANCED_FACE('',(#830),#875,.F.);
#916=ADVANCED_FACE('',(#831),#876,.T.);
#917=ADVANCED_FACE('',(#832),#18,.T.);
#918=ADVANCED_FACE('',(#833),#19,.T.);
#919=ADVANCED_FACE('',(#834),#877,.T.);
#920=ADVANCED_FACE('',(#835),#20,.T.);
#921=ADVANCED_FACE('',(#836),#878,.T.);
#922=ADVANCED_FACE('',(#837),#879,.F.);
#923=ADVANCED_FACE('',(#838),#880,.F.);
#924=ADVANCED_FACE('',(#839),#881,.F.);
#925=ADVANCED_FACE('',(#840,#841),#882,.F.);
#926=ADVANCED_FACE('',(#842),#21,.T.);
#927=ADVANCED_FACE('',(#843),#883,.F.);
#928=ADVANCED_FACE('',(#844),#884,.F.);
#929=ADVANCED_FACE('',(#845),#22,.F.);
#930=ADVANCED_FACE('',(#846),#885,.T.);
#931=ADVANCED_FACE('',(#847),#886,.T.);
#932=ADVANCED_FACE('',(#848),#23,.F.);
#933=ADVANCED_FACE('',(#849,#850),#24,.F.);
#934=ADVANCED_FACE('',(#851),#887,.T.);
#935=ADVANCED_FACE('',(#852),#888,.T.);
#936=ADVANCED_FACE('',(#853),#889,.F.);
#937=ADVANCED_FACE('',(#854),#25,.T.);
#938=ADVANCED_FACE('',(#855),#890,.T.);
#939=ADVANCED_FACE('',(#856),#891,.F.);
#940=ADVANCED_FACE('',(#857),#892,.T.);
#941=ADVANCED_FACE('',(#858),#893,.T.);
#942=ADVANCED_FACE('',(#859),#894,.F.);
#943=ADVANCED_FACE('',(#860),#26,.T.);
#944=ADVANCED_FACE('',(#861),#895,.F.);
#945=ADVANCED_FACE('',(#862),#896,.F.);
#946=CLOSED_SHELL('',(#897,#898,#899,#900,#901,#902,#903,#904,#905,#906,
#907,#908,#909,#910,#911,#912,#913,#914,#915,#916,#917,#918,#919,#920,#921,
#922,#923,#924,#925,#926,#927,#928,#929,#930,#931,#932,#933,#934,#935,#936,
#937,#938,#939,#940,#941,#942,#943,#944,#945));
#947=STYLED_ITEM('',(#948),#955);
#948=PRESENTATION_STYLE_ASSIGNMENT((#949));
#949=SURFACE_STYLE_USAGE(.BOTH.,#950);
#950=SURFACE_SIDE_STYLE('',(#951));
#951=SURFACE_STYLE_FILL_AREA(#952);
#952=FILL_AREA_STYLE('',(#953));
#953=FILL_AREA_STYLE_COLOUR('',#954);
#954=COLOUR_RGB('',0.615686274509804,0.811764705882353,0.929411764705882);
#955=MANIFOLD_SOLID_BREP('Part 1',#946);
#956=SHAPE_DEFINITION_REPRESENTATION(#1578,#957);
#957=SHAPE_REPRESENTATION('Part 1',(#958),#1573);
#958=AXIS2_PLACEMENT_3D('',#1300,#1038,#1039);
#959=AXIS2_PLACEMENT_3D('',#1301,#1040,#1041);
#960=AXIS2_PLACEMENT_3D('',#1310,#1046,#1047);
#961=AXIS2_PLACEMENT_3D('',#1311,#1048,#1049);
#962=AXIS2_PLACEMENT_3D('',#1318,#1053,#1054);
#963=AXIS2_PLACEMENT_3D('',#1324,#1058,#1059);
#964=AXIS2_PLACEMENT_3D('',#1325,#1060,#1061);
#965=AXIS2_PLACEMENT_3D('',#1335,#1066,#1067);
#966=AXIS2_PLACEMENT_3D('',#1336,#1068,#1069);
#967=AXIS2_PLACEMENT_3D('',#1340,#1071,#1072);
#968=AXIS2_PLACEMENT_3D('',#1341,#1073,#1074);
#969=AXIS2_PLACEMENT_3D('',#1347,#1078,#1079);
#970=AXIS2_PLACEMENT_3D('',#1348,#1080,#1081);
#971=AXIS2_PLACEMENT_3D('',#1352,#1083,#1084);
#972=AXIS2_PLACEMENT_3D('',#1353,#1085,#1086);
#973=AXIS2_PLACEMENT_3D('',#1378,#1099,#1100);
#974=AXIS2_PLACEMENT_3D('',#1382,#1102,#1103);
#975=AXIS2_PLACEMENT_3D('',#1387,#1106,#1107);
#976=AXIS2_PLACEMENT_3D('',#1388,#1108,#1109);
#977=AXIS2_PLACEMENT_3D('',#1392,#1111,#1112);
#978=AXIS2_PLACEMENT_3D('',#1393,#1113,#1114);
#979=AXIS2_PLACEMENT_3D('',#1399,#1118,#1119);
#980=AXIS2_PLACEMENT_3D('',#1400,#1120,#1121);
#981=AXIS2_PLACEMENT_3D('',#1401,#1122,#1123);
#982=AXIS2_PLACEMENT_3D('',#1402,#1124,#1125);
#983=AXIS2_PLACEMENT_3D('',#1403,#1126,#1127);
#984=AXIS2_PLACEMENT_3D('',#1407,#1130,#1131);
#985=AXIS2_PLACEMENT_3D('',#1408,#1132,#1133);
#986=AXIS2_PLACEMENT_3D('',#1410,#1134,#1135);
#987=AXIS2_PLACEMENT_3D('',#1411,#1136,#1137);
#988=AXIS2_PLACEMENT_3D('',#1412,#1138,#1139);
#989=AXIS2_PLACEMENT_3D('',#1418,#1143,#1144);
#990=AXIS2_PLACEMENT_3D('',#1419,#1145,#1146);
#991=AXIS2_PLACEMENT_3D('',#1420,#1147,#1148);
#992=AXIS2_PLACEMENT_3D('',#1432,#1154,#1155);
#993=AXIS2_PLACEMENT_3D('',#1436,#1157,#1158);
#994=AXIS2_PLACEMENT_3D('',#1445,#1163,#1164);
#995=AXIS2_PLACEMENT_3D('',#1454,#1169,#1170);
#996=AXIS2_PLACEMENT_3D('',#1455,#1171,#1172);
#997=AXIS2_PLACEMENT_3D('',#1456,#1173,#1174);
#998=AXIS2_PLACEMENT_3D('',#1457,#1175,#1176);
#999=AXIS2_PLACEMENT_3D('',#1458,#1177,#1178);
#1000=AXIS2_PLACEMENT_3D('',#1462,#1180,#1181);
#1001=AXIS2_PLACEMENT_3D('',#1463,#1182,#1183);
#1002=AXIS2_PLACEMENT_3D('',#1469,#1187,#1188);
#1003=AXIS2_PLACEMENT_3D('',#1470,#1189,#1190);
#1004=AXIS2_PLACEMENT_3D('',#1471,#1191,#1192);
#1005=AXIS2_PLACEMENT_3D('',#1472,#1193,#1194);
#1006=AXIS2_PLACEMENT_3D('',#1484,#1200,#1201);
#1007=AXIS2_PLACEMENT_3D('',#1485,#1202,#1203);
#1008=AXIS2_PLACEMENT_3D('',#1494,#1208,#1209);
#1009=AXIS2_PLACEMENT_3D('',#1499,#1212,#1213);
#1010=AXIS2_PLACEMENT_3D('',#1504,#1216,#1217);
#1011=AXIS2_PLACEMENT_3D('',#1510,#1221,#1222);
#1012=AXIS2_PLACEMENT_3D('',#1511,#1223,#1224);
#1013=AXIS2_PLACEMENT_3D('',#1515,#1227,#1228);
#1014=AXIS2_PLACEMENT_3D('',#1516,#1229,#1230);
#1015=AXIS2_PLACEMENT_3D('',#1517,#1231,#1232);
#1016=AXIS2_PLACEMENT_3D('',#1518,#1233,#1234);
#1017=AXIS2_PLACEMENT_3D('',#1521,#1237,#1238);
#1018=AXIS2_PLACEMENT_3D('',#1524,#1241,#1242);
#1019=AXIS2_PLACEMENT_3D('',#1525,#1243,#1244);
#1020=AXIS2_PLACEMENT_3D('',#1528,#1247,#1248);
#1021=AXIS2_PLACEMENT_3D('',#1531,#1251,#1252);
#1022=AXIS2_PLACEMENT_3D('',#1532,#1253,#1254);
#1023=AXIS2_PLACEMENT_3D('',#1533,#1255,#1256);
#1024=AXIS2_PLACEMENT_3D('',#1535,#1257,#1258);
#1025=AXIS2_PLACEMENT_3D('',#1536,#1259,#1260);
#1026=AXIS2_PLACEMENT_3D('',#1542,#1264,#1265);
#1027=AXIS2_PLACEMENT_3D('',#1543,#1266,#1267);
#1028=AXIS2_PLACEMENT_3D('',#1546,#1269,#1270);
#1029=AXIS2_PLACEMENT_3D('',#1549,#1272,#1273);
#1030=AXIS2_PLACEMENT_3D('',#1551,#1275,#1276);
#1031=AXIS2_PLACEMENT_3D('',#1555,#1279,#1280);
#1032=AXIS2_PLACEMENT_3D('',#1559,#1283,#1284);
#1033=AXIS2_PLACEMENT_3D('',#1561,#1286,#1287);
#1034=AXIS2_PLACEMENT_3D('',#1565,#1290,#1291);
#1035=AXIS2_PLACEMENT_3D('',#1566,#1292,#1293);
#1036=AXIS2_PLACEMENT_3D('',#1569,#1295,#1296);
#1037=AXIS2_PLACEMENT_3D('',#1571,#1298,#1299);
#1038=DIRECTION('',(0.,0.,1.));
#1039=DIRECTION('',(1.,0.,0.));
#1040=DIRECTION('',(-0.707106781186548,4.32978028117746E-17,0.707106781186548));
#1041=DIRECTION('',(-0.707106781186548,-4.32978028117747E-17,-0.707106781186548));
#1042=DIRECTION('',(0.,1.,-6.12323399573677E-17));
#1043=DIRECTION('',(0.707106781186548,4.32978028117747E-17,0.707106781186548));
#1044=DIRECTION('',(0.,1.,-6.12323399573677E-17));
#1045=DIRECTION('',(0.707106781186548,4.32978028117747E-17,0.707106781186548));
#1046=DIRECTION('',(0.,6.12323399573677E-17,1.));
#1047=DIRECTION('',(0.,-1.,6.12323399573677E-17));
#1048=DIRECTION('',(0.,6.12323399573677E-17,1.));
#1049=DIRECTION('',(0.,-1.,6.12323399573677E-17));
#1050=DIRECTION('',(1.,0.,0.));
#1051=DIRECTION('',(0.,1.,-6.12323399573677E-17));
#1052=DIRECTION('',(1.,0.,0.));
#1053=DIRECTION('',(0.707106781186548,4.32978028117746E-17,0.707106781186548));
#1054=DIRECTION('',(-0.707106781186548,4.32978028117747E-17,0.707106781186548));
#1055=DIRECTION('',(0.707106781186548,-4.32978028117747E-17,-0.707106781186548));
#1056=DIRECTION('',(0.,1.,-6.12323399573677E-17));
#1057=DIRECTION('',(0.707106781186548,-4.32978028117747E-17,-0.707106781186548));
#1058=DIRECTION('',(0.,6.12323399573677E-17,1.));
#1059=DIRECTION('',(0.,-1.,6.12323399573677E-17));
#1060=DIRECTION('',(0.,6.12323399573677E-17,1.));
#1061=DIRECTION('',(0.,-1.,6.12323399573677E-17));
#1062=DIRECTION('',(0.,1.,-6.12323399573677E-17));
#1063=DIRECTION('',(1.,0.,0.));
#1064=DIRECTION('',(0.,1.,-6.12323399573677E-17));
#1065=DIRECTION('',(1.,0.,0.));
#1066=DIRECTION('',(0.,1.,-6.12323399573677E-17));
#1067=DIRECTION('',(-1.,0.,0.));
#1068=DIRECTION('',(0.,-1.,6.12323399573677E-17));
#1069=DIRECTION('',(1.,0.,0.));
#1070=DIRECTION('',(0.,1.,-6.12323399573677E-17));
#1071=DIRECTION('',(0.,-1.,6.12323399573677E-17));
#1072=DIRECTION('',(1.,0.,0.));
#1073=DIRECTION('',(-0.707106781186548,4.32978028117746E-17,0.707106781186547));
#1074=DIRECTION('',(-0.707106781186547,-4.32978028117747E-17,-0.707106781186548));
#1075=DIRECTION('',(0.707106781186547,4.32978028117747E-17,0.707106781186548));
#1076=DIRECTION('',(0.,1.,-6.12323399573677E-17));
#1077=DIRECTION('',(0.707106781186547,4.32978028117747E-17,0.707106781186548));
#1078=DIRECTION('',(0.,1.,-6.12323399573677E-17));
#1079=DIRECTION('',(-1.,0.,0.));
#1080=DIRECTION('',(0.,-1.,6.12323399573677E-17));
#1081=DIRECTION('',(1.,0.,0.));
#1082=DIRECTION('',(0.,1.,-6.12323399573677E-17));
#1083=DIRECTION('',(0.,-1.,6.12323399573677E-17));
#1084=DIRECTION('',(1.,0.,0.));
#1085=DIRECTION('',(1.27909677582695E-16,-6.12323399573677E-17,-1.));
#1086=DIRECTION('',(1.,7.8322088615809E-33,1.27909677582695E-16));
#1087=DIRECTION('',(-1.,-7.8322088615809E-33,-1.27909677582695E-16));
#1088=DIRECTION('',(0.,1.,-6.12323399573677E-17));
#1089=DIRECTION('',(-1.,-7.8322088615809E-33,-1.27909677582695E-16));
#1090=DIRECTION('',(7.8322088615809E-33,1.,-6.12323399573677E-17));
#1091=DIRECTION('',(1.,-4.69821071952176E-16,1.27909677582695E-16));
#1092=DIRECTION('',(7.8322088615809E-33,1.,-6.12323399573677E-17));
#1093=DIRECTION('',(-1.,-7.8322088615809E-33,-1.27909677582695E-16));
#1094=DIRECTION('',(0.,1.,-6.12323399573677E-17));
#1095=DIRECTION('',(-1.,-7.8322088615809E-33,-1.27909677582695E-16));
#1096=DIRECTION('',(0.,1.,-6.12323399573677E-17));
#1097=DIRECTION('',(-1.,-7.8322088615809E-33,-1.27909677582695E-16));
#1098=DIRECTION('',(7.8322088615809E-33,1.,-6.12323399573677E-17));
#1099=DIRECTION('',(1.27909677582695E-16,-6.12323399573677E-17,-1.));
#1100=DIRECTION('',(-1.,0.,-1.27909677582695E-16));
#1101=DIRECTION('',(1.,-2.34910535976088E-16,1.27909677582695E-16));
#1102=DIRECTION('',(1.27909677582695E-16,-6.12323399573677E-17,-1.));
#1103=DIRECTION('',(-1.,0.,-1.27909677582695E-16));
#1104=DIRECTION('',(7.8322088615809E-33,1.,-6.12323399573677E-17));
#1105=DIRECTION('',(-1.,-7.8322088615809E-33,-1.27909677582695E-16));
#1106=DIRECTION('',(0.,1.,-6.12323399573677E-17));
#1107=DIRECTION('',(-1.,0.,0.));
#1108=DIRECTION('',(0.,-1.,6.12323399573677E-17));
#1109=DIRECTION('',(1.,0.,0.));
#1110=DIRECTION('',(0.,1.,-6.12323399573677E-17));
#1111=DIRECTION('',(0.,-1.,6.12323399573677E-17));
#1112=DIRECTION('',(1.,0.,0.));
#1113=DIRECTION('',(0.707106781186548,4.32978028117746E-17,0.707106781186547));
#1114=DIRECTION('',(-0.707106781186547,4.32978028117747E-17,0.707106781186548));
#1115=DIRECTION('',(0.707106781186547,-4.32978028117747E-17,-0.707106781186548));
#1116=DIRECTION('',(0.,1.,-6.12323399573677E-17));
#1117=DIRECTION('',(0.707106781186547,-4.32978028117747E-17,-0.707106781186548));
#1118=DIRECTION('',(0.,1.,-6.12323399573677E-17));
#1119=DIRECTION('',(-1.,0.,0.));
#1120=DIRECTION('',(0.,-1.,6.12323399573677E-17));
#1121=DIRECTION('',(1.,0.,0.));
#1122=DIRECTION('',(0.,-1.,6.12323399573677E-17));
#1123=DIRECTION('',(1.,0.,0.));
#1124=DIRECTION('',(1.39764335872033E-16,-6.12323399573677E-17,-1.));
#1125=DIRECTION('',(1.,8.55809732803205E-33,1.39764335872033E-16));
#1126=DIRECTION('',(1.39764335872033E-16,-6.12323399573677E-17,-1.));
#1127=DIRECTION('',(1.,8.55809732803205E-33,1.39764335872033E-16));
#1128=DIRECTION('',(-1.,-8.55809732803205E-33,-1.39764335872033E-16));
#1129=DIRECTION('',(-1.,-8.55809732803205E-33,-1.39764335872033E-16));
#1130=DIRECTION('',(0.,-6.12323399573677E-17,-1.));
#1131=DIRECTION('',(0.,1.,-6.12323399573677E-17));
#1132=DIRECTION('',(0.,6.12323399573677E-17,1.));
#1133=DIRECTION('',(0.,-1.,6.12323399573677E-17));
#1134=DIRECTION('',(0.,6.12323399573677E-17,1.));
#1135=DIRECTION('',(-1.,0.,0.));
#1136=DIRECTION('',(0.,6.12323399573677E-17,1.));
#1137=DIRECTION('',(0.,-1.,6.12323399573677E-17));
#1138=DIRECTION('',(0.,-1.,6.12323399573677E-17));
#1139=DIRECTION('',(1.,0.,0.));
#1140=DIRECTION('',(1.27909677582695E-16,-6.12323399573677E-17,-1.));
#1141=DIRECTION('',(-1.,-7.8322088615809E-33,-1.27909677582695E-16));
#1142=DIRECTION('',(1.27909677582695E-16,-6.12323399573677E-17,-1.));
#1143=DIRECTION('',(0.,-1.,6.12323399573677E-17));
#1144=DIRECTION('',(1.,0.,0.));
#1145=DIRECTION('',(0.,6.12323399573677E-17,1.));
#1146=DIRECTION('',(0.,-1.,6.12323399573677E-17));
#1147=DIRECTION('',(0.,6.12323399573677E-17,1.));
#1148=DIRECTION('',(0.,-1.,6.12323399573677E-17));
#1149=DIRECTION('',(0.,-1.,6.12323399573677E-17));
#1150=DIRECTION('',(1.,0.,0.));
#1151=DIRECTION('',(0.,1.,-6.12323399573677E-17));
#1152=DIRECTION('',(1.,0.,0.));
#1153=DIRECTION('',(0.,-1.,6.12323399573677E-17));
#1154=DIRECTION('',(0.,6.12323399573677E-17,1.));
#1155=DIRECTION('',(0.,-1.,6.12323399573677E-17));
#1156=DIRECTION('',(0.,-1.,6.12323399573677E-17));
#1157=DIRECTION('',(0.,6.12323399573677E-17,1.));
#1158=DIRECTION('',(0.,-1.,6.12323399573677E-17));
#1159=DIRECTION('',(0.,-1.,6.12323399573677E-17));
#1160=DIRECTION('',(1.,0.,0.));
#1161=DIRECTION('',(0.,1.,-6.12323399573677E-17));
#1162=DIRECTION('',(1.,0.,0.));
#1163=DIRECTION('',(-0.707106781186548,4.32978028117746E-17,0.707106781186548));
#1164=DIRECTION('',(-0.707106781186548,-4.32978028117747E-17,-0.707106781186548));
#1165=DIRECTION('',(0.,1.,-6.12323399573677E-17));
#1166=DIRECTION('',(0.707106781186548,4.32978028117747E-17,0.707106781186548));
#1167=DIRECTION('',(0.,1.,-6.12323399573677E-17));
#1168=DIRECTION('',(0.707106781186548,4.32978028117747E-17,0.707106781186548));
#1169=DIRECTION('',(0.,1.,-6.12323399573677E-17));
#1170=DIRECTION('',(-1.,0.,0.));
#1171=DIRECTION('',(0.,-1.,6.12323399573677E-17));
#1172=DIRECTION('',(1.,0.,0.));
#1173=DIRECTION('',(0.,-1.,6.12323399573677E-17));
#1174=DIRECTION('',(1.,0.,0.));
#1175=DIRECTION('',(0.,1.,-6.12323399573677E-17));
#1176=DIRECTION('',(-1.,0.,0.));
#1177=DIRECTION('',(0.,-1.,6.12323399573677E-17));
#1178=DIRECTION('',(1.,0.,0.));
#1179=DIRECTION('',(0.,1.,-6.12323399573677E-17));
#1180=DIRECTION('',(0.,-1.,6.12323399573677E-17));
#1181=DIRECTION('',(1.,0.,0.));
#1182=DIRECTION('',(0.707106781186548,4.32978028117746E-17,0.707106781186547));
#1183=DIRECTION('',(-0.707106781186547,4.32978028117747E-17,0.707106781186548));
#1184=DIRECTION('',(0.707106781186547,-4.32978028117747E-17,-0.707106781186548));
#1185=DIRECTION('',(0.,1.,-6.12323399573677E-17));
#1186=DIRECTION('',(0.707106781186547,-4.32978028117747E-17,-0.707106781186548));
#1187=DIRECTION('',(0.,1.,-6.12323399573677E-17));
#1188=DIRECTION('',(-1.,0.,0.));
#1189=DIRECTION('',(0.,-1.,6.12323399573677E-17));
#1190=DIRECTION('',(1.,0.,0.));
#1191=DIRECTION('',(0.,-1.,6.12323399573677E-17));
#1192=DIRECTION('',(1.,0.,0.));
#1193=DIRECTION('',(0.,6.12323399573677E-17,1.));
#1194=DIRECTION('',(0.,-1.,6.12323399573677E-17));
#1195=DIRECTION('',(0.,-1.,6.12323399573677E-17));
#1196=DIRECTION('',(1.,0.,0.));
#1197=DIRECTION('',(0.,1.,-6.12323399573677E-17));
#1198=DIRECTION('',(1.,0.,0.));
#1199=DIRECTION('',(0.,-1.,6.12323399573677E-17));
#1200=DIRECTION('',(0.,6.12323399573677E-17,1.));
#1201=DIRECTION('',(0.,-1.,6.12323399573677E-17));
#1202=DIRECTION('',(-0.707106781186548,4.32978028117746E-17,0.707106781186547));
#1203=DIRECTION('',(-0.707106781186547,-4.32978028117747E-17,-0.707106781186548));
#1204=DIRECTION('',(0.,1.,-6.12323399573677E-17));
#1205=DIRECTION('',(0.707106781186547,4.32978028117747E-17,0.707106781186548));
#1206=DIRECTION('',(0.,1.,-6.12323399573677E-17));
#1207=DIRECTION('',(0.707106781186547,4.32978028117747E-17,0.707106781186548));
#1208=DIRECTION('',(0.,6.12323399573677E-17,1.));
#1209=DIRECTION('',(0.,-1.,6.12323399573677E-17));
#1210=DIRECTION('',(1.,0.,0.));
#1211=DIRECTION('',(0.,-1.,6.12323399573677E-17));
#1212=DIRECTION('',(0.,6.12323399573677E-17,1.));
#1213=DIRECTION('',(0.,-1.,6.12323399573677E-17));
#1214=DIRECTION('',(0.,-1.,6.12323399573677E-17));
#1215=DIRECTION('',(1.,0.,0.));
#1216=DIRECTION('',(0.707106781186548,4.32978028117746E-17,0.707106781186547));
#1217=DIRECTION('',(-0.707106781186547,4.32978028117747E-17,0.707106781186548));
#1218=DIRECTION('',(0.707106781186547,-4.32978028117747E-17,-0.707106781186548));
#1219=DIRECTION('',(0.,1.,-6.12323399573677E-17));
#1220=DIRECTION('',(0.707106781186547,-4.32978028117747E-17,-0.707106781186548));
#1221=DIRECTION('',(1.39764335872033E-16,-6.12323399573677E-17,-1.));
#1222=DIRECTION('',(1.,8.55809732803205E-33,1.39764335872033E-16));
#1223=DIRECTION('',(1.39764335872033E-16,-6.12323399573677E-17,-1.));
#1224=DIRECTION('',(-1.,0.,-1.39764335872033E-16));
#1225=DIRECTION('',(-1.,-8.55809732803205E-33,-1.39764335872033E-16));
#1226=DIRECTION('',(-1.,-8.55809732803205E-33,-1.39764335872033E-16));
#1227=DIRECTION('',(0.,1.,-6.12323399573677E-17));
#1228=DIRECTION('',(-1.,0.,0.));
#1229=DIRECTION('',(0.,-1.,6.12323399573677E-17));
#1230=DIRECTION('',(1.,0.,0.));
#1231=DIRECTION('',(0.,-1.,6.12323399573677E-17));
#1232=DIRECTION('',(1.,0.,0.));
#1233=DIRECTION('',(-1.,0.,0.));
#1234=DIRECTION('',(0.,0.,1.));
#1235=DIRECTION('',(0.,6.12323399573677E-17,1.));
#1236=DIRECTION('',(0.,-6.12323399573677E-17,-1.));
#1237=DIRECTION('',(-1.,0.,0.));
#1238=DIRECTION('',(0.,0.,1.));
#1239=DIRECTION('',(0.,-6.12323399573677E-17,-1.));
#1240=DIRECTION('',(0.,6.12323399573677E-17,1.));
#1241=DIRECTION('',(0.,6.12323399573677E-17,1.));
#1242=DIRECTION('',(0.,-1.,6.12323399573677E-17));
#1243=DIRECTION('',(-1.,0.,0.));
#1244=DIRECTION('',(0.,0.,1.));
#1245=DIRECTION('',(0.,6.12323399573677E-17,1.));
#1246=DIRECTION('',(0.,-6.12323399573677E-17,-1.));
#1247=DIRECTION('',(-1.,0.,0.));
#1248=DIRECTION('',(0.,0.,1.));
#1249=DIRECTION('',(0.,-6.12323399573677E-17,-1.));
#1250=DIRECTION('',(0.,6.12323399573677E-17,1.));
#1251=DIRECTION('',(0.,6.12323399573677E-17,1.));
#1252=DIRECTION('',(0.,-1.,6.12323399573677E-17));
#1253=DIRECTION('',(0.,6.12323399573677E-17,1.));
#1254=DIRECTION('',(0.,-1.,6.12323399573677E-17));
#1255=DIRECTION('',(0.,6.12323399573677E-17,1.));
#1256=DIRECTION('',(0.,-1.,6.12323399573677E-17));
#1257=DIRECTION('',(0.,6.12323399573677E-17,1.));
#1258=DIRECTION('',(0.,-1.,6.12323399573677E-17));
#1259=DIRECTION('',(0.,-1.,6.12323399573677E-17));
#1260=DIRECTION('',(1.,0.,0.));
#1261=DIRECTION('',(1.27909677582695E-16,-6.12323399573677E-17,-1.));
#1262=DIRECTION('',(1.,7.8322088615809E-33,1.27909677582695E-16));
#1263=DIRECTION('',(1.27909677582695E-16,-6.12323399573677E-17,-1.));
#1264=DIRECTION('',(0.,-1.,6.12323399573677E-17));
#1265=DIRECTION('',(1.,0.,0.));
#1266=DIRECTION('',(1.27909677582695E-16,-6.12323399573677E-17,-1.));
#1267=DIRECTION('',(-1.,0.,-1.27909677582695E-16));
#1268=DIRECTION('',(1.27909677582695E-16,-6.12323399573677E-17,-1.));
#1269=DIRECTION('',(1.27909677582695E-16,-6.12323399573677E-17,-1.));
#1270=DIRECTION('',(-1.,0.,-1.27909677582695E-16));
#1271=DIRECTION('',(1.27909677582695E-16,-6.12323399573677E-17,-1.));
#1272=DIRECTION('',(-1.,0.,-1.27909677582695E-16));
#1273=DIRECTION('',(-1.27909677582695E-16,0.,1.));
#1274=DIRECTION('',(7.8322088615809E-33,1.,-6.12323399573677E-17));
#1275=DIRECTION('',(-1.,0.,-1.27909677582695E-16));
#1276=DIRECTION('',(-1.27909677582695E-16,0.,1.));
#1277=DIRECTION('',(7.8322088615809E-33,1.,-6.12323399573677E-17));
#1278=DIRECTION('',(1.27909677582695E-16,-6.12323399573677E-17,-1.));
#1279=DIRECTION('',(4.69821071952176E-16,1.,-6.12323399573676E-17));
#1280=DIRECTION('',(-1.,4.69821071952176E-16,0.));
#1281=DIRECTION('',(1.,-4.69821071952176E-16,1.27909677582695E-16));
#1282=DIRECTION('',(1.27909677582695E-16,-6.12323399573677E-17,-1.));
#1283=DIRECTION('',(-1.,0.,-1.27909677582695E-16));
#1284=DIRECTION('',(-1.27909677582695E-16,0.,1.));
#1285=DIRECTION('',(7.8322088615809E-33,1.,-6.12323399573677E-17));
#1286=DIRECTION('',(-1.,0.,-1.27909677582695E-16));
#1287=DIRECTION('',(-1.27909677582695E-16,0.,1.));
#1288=DIRECTION('',(7.8322088615809E-33,1.,-6.12323399573677E-17));
#1289=DIRECTION('',(1.27909677582695E-16,-6.12323399573677E-17,-1.));
#1290=DIRECTION('',(1.27909677582695E-16,-6.12323399573677E-17,-1.));
#1291=DIRECTION('',(-1.,0.,-1.27909677582695E-16));
#1292=DIRECTION('',(1.27909677582695E-16,-6.12323399573677E-17,-1.));
#1293=DIRECTION('',(-1.,0.,-1.27909677582695E-16));
#1294=DIRECTION('',(1.27909677582695E-16,-6.12323399573677E-17,-1.));
#1295=DIRECTION('',(2.34910535976088E-16,1.,-6.12323399573676E-17));
#1296=DIRECTION('',(-1.,2.34910535976088E-16,0.));
#1297=DIRECTION('',(1.,-2.34910535976088E-16,1.27909677582695E-16));
#1298=DIRECTION('',(1.27909677582695E-16,-6.12323399573677E-17,-1.));
#1299=DIRECTION('',(1.,7.8322088615809E-33,1.27909677582695E-16));
#1300=CARTESIAN_POINT('',(0.,0.,0.));
#1301=CARTESIAN_POINT('',(-0.00193715059102339,0.0136933171935379,-0.00476451472745483));
#1302=CARTESIAN_POINT('',(-0.00393715059102339,0.0136933171935379,-0.00676451472745483));
#1303=CARTESIAN_POINT('',(-0.00393715059102339,0.0118933171935379,-0.00676451472745483));
#1304=CARTESIAN_POINT('',(-0.00393715059102339,0.020493317193538,-0.00676451472745483));
#1305=CARTESIAN_POINT('',(-0.00193715059102339,0.020493317193538,-0.00476451472745483));
#1306=CARTESIAN_POINT('',(6.28494089766072E-5,0.020493317193538,-0.00276451472745483));
#1307=CARTESIAN_POINT('',(6.28494089766072E-5,0.0136933171935379,-0.00276451472745483));
#1308=CARTESIAN_POINT('',(6.28494089766072E-5,0.0118933171935379,-0.00276451472745483));
#1309=CARTESIAN_POINT('',(-0.00193715059102339,0.0118933171935379,-0.00476451472745483));
#1310=CARTESIAN_POINT('',(0.00382020872185732,0.0136933171935379,-0.00276451472745483));
#1311=CARTESIAN_POINT('',(0.00382020872185732,0.016193317193538,-0.00276451472745483));
#1312=CARTESIAN_POINT('',(0.00382020872185732,0.013893317193538,-0.00276451472745483));
#1313=CARTESIAN_POINT('',(0.00382020872185732,0.020493317193538,-0.00276451472745483));
#1314=CARTESIAN_POINT('',(0.00757756803473803,0.020493317193538,-0.00276451472745483));
#1315=CARTESIAN_POINT('',(0.00757756803473803,0.0136933171935379,-0.00276451472745483));
#1316=CARTESIAN_POINT('',(0.00757756803473803,0.0118933171935379,-0.00276451472745483));
#1317=CARTESIAN_POINT('',(0.00382020872185732,0.0118933171935379,-0.00276451472745483));
#1318=CARTESIAN_POINT('',(0.00957756803473804,0.0136933171935379,-0.00476451472745484));
#1319=CARTESIAN_POINT('',(0.00957756803473804,0.020493317193538,-0.00476451472745484));
#1320=CARTESIAN_POINT('',(0.011577568034738,0.020493317193538,-0.00676451472745484));
#1321=CARTESIAN_POINT('',(0.011577568034738,0.0136933171935379,-0.00676451472745483));
#1322=CARTESIAN_POINT('',(0.011577568034738,0.0118933171935379,-0.00676451472745483));
#1323=CARTESIAN_POINT('',(0.00957756803473804,0.0118933171935379,-0.00476451472745484));
#1324=CARTESIAN_POINT('',(0.00382020872185732,0.0136933171935379,0.000235485272545169));
#1325=CARTESIAN_POINT('',(0.00382020872185732,0.016193317193538,0.000235485272545169));
#1326=CARTESIAN_POINT('',(0.00382020872185732,0.013893317193538,0.000235485272545169));
#1327=CARTESIAN_POINT('',(0.00799178159711113,0.0136933171935379,0.000235485272545169));
#1328=CARTESIAN_POINT('',(0.00799178159711113,0.0118933171935379,0.000235485272545169));
#1329=CARTESIAN_POINT('',(0.00799178159711113,0.020493317193538,0.000235485272545169));
#1330=CARTESIAN_POINT('',(0.00382020872185732,0.020493317193538,0.000235485272545169));
#1331=CARTESIAN_POINT('',(-0.000351364153396491,0.020493317193538,0.000235485272545169));
#1332=CARTESIAN_POINT('',(-0.000351364153396491,0.0136933171935379,0.000235485272545169));
#1333=CARTESIAN_POINT('',(-0.000351364153396491,0.0118933171935379,0.000235485272545169));
#1334=CARTESIAN_POINT('',(0.00382020872185732,0.0118933171935379,0.000235485272545169));
#1335=CARTESIAN_POINT('',(-0.00035136415339649,0.0136933171935379,-0.00176451472745484));
#1336=CARTESIAN_POINT('',(-0.00035136415339649,0.020493317193538,-0.00176451472745484));
#1337=CARTESIAN_POINT('',(-0.00176557771576958,0.020493317193538,-0.000350301165081736));
#1338=CARTESIAN_POINT('',(-0.00176557771576958,0.0136933171935379,-0.000350301165081736));
#1339=CARTESIAN_POINT('',(-0.00176557771576958,0.0118933171935379,-0.000350301165081736));
#1340=CARTESIAN_POINT('',(-0.00035136415339649,0.0118933171935379,-0.00176451472745484));
#1341=CARTESIAN_POINT('',(-0.00476557771576959,0.0136933171935379,-0.00335030116508174));
#1342=CARTESIAN_POINT('',(-0.00476557771576959,0.020493317193538,-0.00335030116508174));
#1343=CARTESIAN_POINT('',(-0.00776557771576959,0.020493317193538,-0.00635030116508174));
#1344=CARTESIAN_POINT('',(-0.00776557771576959,0.0136933171935379,-0.00635030116508174));
#1345=CARTESIAN_POINT('',(-0.00776557771576959,0.0118933171935379,-0.00635030116508174));
#1346=CARTESIAN_POINT('',(-0.00476557771576959,0.0118933171935379,-0.00335030116508174));
#1347=CARTESIAN_POINT('',(-0.00635136415339649,0.0136933171935379,-0.00776451472745484));
#1348=CARTESIAN_POINT('',(-0.00635136415339649,0.020493317193538,-0.00776451472745484));
#1349=CARTESIAN_POINT('',(-0.0063513641533965,0.020493317193538,-0.00976451472745484));
#1350=CARTESIAN_POINT('',(-0.0063513641533965,0.0136933171935379,-0.00976451472745484));
#1351=CARTESIAN_POINT('',(-0.0063513641533965,0.0118933171935379,-0.00976451472745484));
#1352=CARTESIAN_POINT('',(-0.00635136415339649,0.0118933171935379,-0.00776451472745484));
#1353=CARTESIAN_POINT('',(0.00382020872185732,0.0136933171935379,-0.00976451472745484));
#1354=CARTESIAN_POINT('',(0.00382020872185732,0.020493317193538,-0.00976451472745484));
#1355=CARTESIAN_POINT('',(0.0139917815971111,0.020493317193538,-0.00976451472745484));
#1356=CARTESIAN_POINT('',(0.0139917815971111,0.0136933171935379,-0.00976451472745484));
#1357=CARTESIAN_POINT('',(0.0139917815971111,0.0118933171935379,-0.00976451472745484));
#1358=CARTESIAN_POINT('',(0.00382020872185732,0.0118933171935379,-0.00976451472745484));
#1359=CARTESIAN_POINT('',(0.0139331004838902,0.0118933171935379,-0.00976451472745483));
#1360=CARTESIAN_POINT('',(0.0139331004838902,0.0122583921429784,-0.00976451472745484));
#1361=CARTESIAN_POINT('',(0.0139331004838902,0.0104100403169336,-0.00976451472745484));
#1362=CARTESIAN_POINT('',(0.0176254071502744,0.0104100403169336,-0.00976451472745483));
#1363=CARTESIAN_POINT('',(0.0213177138166586,0.0104100403169336,-0.00976451472745483));
#1364=CARTESIAN_POINT('',(0.0213177138166586,0.0122583921429784,-0.00976451472745483));
#1365=CARTESIAN_POINT('',(0.0213177138166586,0.0118933171935379,-0.00976451472745483));
#1366=CARTESIAN_POINT('',(0.0314059951594843,0.0118933171935379,-0.00976451472745484));
#1367=CARTESIAN_POINT('',(0.0212344222842305,0.0118933171935379,-0.00976451472745484));
#1368=CARTESIAN_POINT('',(0.0212344222842305,0.0136933171935379,-0.00976451472745484));
#1369=CARTESIAN_POINT('',(0.0212344222842305,0.020493317193538,-0.00976451472745484));
#1370=CARTESIAN_POINT('',(0.0314059951594843,0.020493317193538,-0.00976451472745484));
#1371=CARTESIAN_POINT('',(0.0415775680347381,0.020493317193538,-0.00976451472745484));
#1372=CARTESIAN_POINT('',(0.0415775680347381,0.0136933171935379,-0.00976451472745484));
#1373=CARTESIAN_POINT('',(0.0415775680347381,0.0118933171935379,-0.00976451472745484));
#1374=CARTESIAN_POINT('',(0.0314059951594843,0.0118933171935379,-0.00976451472745484));
#1375=CARTESIAN_POINT('',(0.0263177138166586,0.0118933171935379,-0.00976451472745483));
#1376=CARTESIAN_POINT('',(0.0263177138166586,0.0122583921429784,-0.00976451472745483));
#1377=CARTESIAN_POINT('',(0.0263177138166586,0.0104100403169336,-0.00976451472745483));
#1378=CARTESIAN_POINT('',(0.0213177138166586,0.0104100403169336,-0.00976451472745483));
#1379=CARTESIAN_POINT('',(0.0213177138166586,0.00541004031693358,-0.00976451472745483));
#1380=CARTESIAN_POINT('',(0.0176254071502744,0.00541004031693358,-0.00976451472745483));
#1381=CARTESIAN_POINT('',(0.0139331004838902,0.00541004031693358,-0.00976451472745483));
#1382=CARTESIAN_POINT('',(0.0139331004838902,0.0104100403169336,-0.00976451472745484));
#1383=CARTESIAN_POINT('',(0.00893310048389017,0.0104100403169336,-0.00976451472745484));
#1384=CARTESIAN_POINT('',(0.00893310048389018,0.0122583921429784,-0.00976451472745484));
#1385=CARTESIAN_POINT('',(0.00893310048389018,0.0118933171935379,-0.00976451472745484));
#1386=CARTESIAN_POINT('',(0.00382020872185732,0.0118933171935379,-0.00976451472745484));
#1387=CARTESIAN_POINT('',(0.0139917815971111,0.0136933171935379,-0.00776451472745484));
#1388=CARTESIAN_POINT('',(0.0139917815971111,0.020493317193538,-0.00776451472745484));
#1389=CARTESIAN_POINT('',(0.0154059951594843,0.020493317193538,-0.00635030116508175));
#1390=CARTESIAN_POINT('',(0.0154059951594843,0.0136933171935379,-0.00635030116508175));
#1391=CARTESIAN_POINT('',(0.0154059951594843,0.0118933171935379,-0.00635030116508175));
#1392=CARTESIAN_POINT('',(0.0139917815971111,0.0118933171935379,-0.00776451472745484));
#1393=CARTESIAN_POINT('',(0.0124059951594842,0.0136933171935379,-0.00335030116508175));
#1394=CARTESIAN_POINT('',(0.0124059951594842,0.020493317193538,-0.00335030116508175));
#1395=CARTESIAN_POINT('',(0.00940599515948422,0.020493317193538,-0.000350301165081736));
#1396=CARTESIAN_POINT('',(0.00940599515948422,0.0136933171935379,-0.000350301165081736));
#1397=CARTESIAN_POINT('',(0.00940599515948422,0.0118933171935379,-0.000350301165081736));
#1398=CARTESIAN_POINT('',(0.0124059951594842,0.0118933171935379,-0.00335030116508175));
#1399=CARTESIAN_POINT('',(0.00799178159711113,0.0136933171935379,-0.00176451472745484));
#1400=CARTESIAN_POINT('',(0.00799178159711113,0.020493317193538,-0.00176451472745485));
#1401=CARTESIAN_POINT('',(0.00799178159711113,0.0118933171935379,-0.00176451472745484));
#1402=CARTESIAN_POINT('',(0.00382020872185732,0.0136933171935379,-0.00676451472745484));
#1403=CARTESIAN_POINT('',(0.00382020872185732,0.016193317193538,-0.00676451472745484));
#1404=CARTESIAN_POINT('',(0.00612020872185732,0.016193317193538,-0.00676451472745484));
#1405=CARTESIAN_POINT('',(0.00382020872185732,0.020493317193538,-0.00676451472745484));
#1406=CARTESIAN_POINT('',(0.00382020872185732,0.0118933171935379,-0.00676451472745484));
#1407=CARTESIAN_POINT('',(0.00382020872185732,0.016193317193538,0.0368354852725451));
#1408=CARTESIAN_POINT('',(0.00382020872185732,0.016193317193538,0.0368354852725451));
#1409=CARTESIAN_POINT('',(0.00382020872185732,0.013893317193538,0.0368354852725451));
#1410=CARTESIAN_POINT('',(0.00382020872185732,0.016193317193538,0.0368354852725451));
#1411=CARTESIAN_POINT('',(0.00382020872185732,0.016193317193538,-0.00876451472745483));
#1412=CARTESIAN_POINT('',(0.0176131019406708,0.0118933171935379,0.00773548527254516));
#1413=CARTESIAN_POINT('',(0.00893310048389018,0.0118933171935379,-0.00926451472745484));
#1414=CARTESIAN_POINT('',(0.00893310048389018,0.0118933171935379,-0.00926451472745484));
#1415=CARTESIAN_POINT('',(0.00382020872185732,0.0118933171935379,-0.00926451472745484));
#1416=CARTESIAN_POINT('',(0.0139331004838902,0.0118933171935379,-0.00926451472745484));
#1417=CARTESIAN_POINT('',(0.0139331004838902,0.0118933171935379,-0.00926451472745483));
#1418=CARTESIAN_POINT('',(0.0176131019406708,0.020493317193538,0.00773548527254516));
#1419=CARTESIAN_POINT('',(0.0314059951594843,0.0136933171935379,0.000235485272545168));
#1420=CARTESIAN_POINT('',(0.0314059951594843,0.016193317193538,0.000235485272545168));
#1421=CARTESIAN_POINT('',(0.0324059951594843,0.0140888220046625,0.000235485272545168));
#1422=CARTESIAN_POINT('',(0.0324059951594843,0.0182978123824134,0.000235485272545168));
#1423=CARTESIAN_POINT('',(0.0324059951594843,0.0135907178918354,0.000235485272545168));
#1424=CARTESIAN_POINT('',(0.0324059951594843,0.0118933171935379,0.000235485272545168));
#1425=CARTESIAN_POINT('',(0.0314059951594843,0.0118933171935379,0.000235485272545168));
#1426=CARTESIAN_POINT('',(0.035577568034738,0.0118933171935379,0.000235485272545168));
#1427=CARTESIAN_POINT('',(0.035577568034738,0.0136933171935379,0.000235485272545168));
#1428=CARTESIAN_POINT('',(0.035577568034738,0.020493317193538,0.000235485272545167));
#1429=CARTESIAN_POINT('',(0.0314059951594843,0.020493317193538,0.000235485272545167));
#1430=CARTESIAN_POINT('',(0.0324059951594843,0.020493317193538,0.000235485272545167));
#1431=CARTESIAN_POINT('',(0.0324059951594843,0.0188591296052106,0.000235485272545167));
#1432=CARTESIAN_POINT('',(0.0314059951594843,0.0136933171935379,-0.00276451472745484));
#1433=CARTESIAN_POINT('',(0.0324059951594843,0.0136933171935379,-0.00276451472745484));
#1434=CARTESIAN_POINT('',(0.0324059951594843,0.0140888220046625,-0.00276451472745484));
#1435=CARTESIAN_POINT('',(0.0324059951594843,0.0118933171935379,-0.00276451472745483));
#1436=CARTESIAN_POINT('',(0.0314059951594843,0.016193317193538,-0.00276451472745484));
#1437=CARTESIAN_POINT('',(0.0324059951594843,0.0182978123824134,-0.00276451472745484));
#1438=CARTESIAN_POINT('',(0.0324059951594843,0.0136933171935379,-0.00276451472745484));
#1439=CARTESIAN_POINT('',(0.0324059951594843,0.020493317193538,-0.00276451472745483));
#1440=CARTESIAN_POINT('',(0.0314059951594843,0.020493317193538,-0.00276451472745484));
#1441=CARTESIAN_POINT('',(0.0351633544723649,0.020493317193538,-0.00276451472745483));
#1442=CARTESIAN_POINT('',(0.0351633544723649,0.0136933171935379,-0.00276451472745483));
#1443=CARTESIAN_POINT('',(0.0351633544723649,0.0118933171935379,-0.00276451472745483));
#1444=CARTESIAN_POINT('',(0.0314059951594843,0.0118933171935379,-0.00276451472745484));
#1445=CARTESIAN_POINT('',(0.0228202087218573,0.0136933171935379,-0.00335030116508174));
#1446=CARTESIAN_POINT('',(0.0258202087218573,0.0136933171935379,-0.000350301165081737));
#1447=CARTESIAN_POINT('',(0.0258202087218573,0.0118933171935379,-0.000350301165081736));
#1448=CARTESIAN_POINT('',(0.0258202087218573,0.020493317193538,-0.000350301165081738));
#1449=CARTESIAN_POINT('',(0.0228202087218573,0.020493317193538,-0.00335030116508174));
#1450=CARTESIAN_POINT('',(0.0198202087218574,0.020493317193538,-0.00635030116508175));
#1451=CARTESIAN_POINT('',(0.0198202087218574,0.0136933171935379,-0.00635030116508174));
#1452=CARTESIAN_POINT('',(0.0198202087218574,0.0118933171935379,-0.00635030116508174));
#1453=CARTESIAN_POINT('',(0.0228202087218573,0.0118933171935379,-0.00335030116508174));
#1454=CARTESIAN_POINT('',(0.0212344222842305,0.0136933171935379,-0.00776451472745484));
#1455=CARTESIAN_POINT('',(0.0212344222842305,0.020493317193538,-0.00776451472745484));
#1456=CARTESIAN_POINT('',(0.0212344222842305,0.0118933171935379,-0.00776451472745484));
#1457=CARTESIAN_POINT('',(0.0415775680347381,0.0136933171935379,-0.00776451472745484));
#1458=CARTESIAN_POINT('',(0.0415775680347381,0.020493317193538,-0.00776451472745484));
#1459=CARTESIAN_POINT('',(0.0429917815971112,0.020493317193538,-0.00635030116508176));
#1460=CARTESIAN_POINT('',(0.0429917815971112,0.0136933171935379,-0.00635030116508176));
#1461=CARTESIAN_POINT('',(0.0429917815971112,0.0118933171935379,-0.00635030116508176));
#1462=CARTESIAN_POINT('',(0.0415775680347381,0.0118933171935379,-0.00776451472745484));
#1463=CARTESIAN_POINT('',(0.0399917815971111,0.0136933171935379,-0.00335030116508175));
#1464=CARTESIAN_POINT('',(0.0399917815971111,0.020493317193538,-0.00335030116508175));
#1465=CARTESIAN_POINT('',(0.0369917815971112,0.020493317193538,-0.000350301165081738));
#1466=CARTESIAN_POINT('',(0.0369917815971112,0.0136933171935379,-0.000350301165081738));
#1467=CARTESIAN_POINT('',(0.0369917815971112,0.0118933171935379,-0.000350301165081737));
#1468=CARTESIAN_POINT('',(0.0399917815971111,0.0118933171935379,-0.00335030116508175));
#1469=CARTESIAN_POINT('',(0.035577568034738,0.0136933171935379,-0.00176451472745487));
#1470=CARTESIAN_POINT('',(0.035577568034738,0.020493317193538,-0.00176451472745487));
#1471=CARTESIAN_POINT('',(0.035577568034738,0.0118933171935379,-0.00176451472745487));
#1472=CARTESIAN_POINT('',(0.0314059951594843,0.0136933171935379,0.000235485272545168));
#1473=CARTESIAN_POINT('',(0.0304059951594843,0.0188591296052106,0.000235485272545167));
#1474=CARTESIAN_POINT('',(0.0304059951594843,0.020493317193538,0.000235485272545167));
#1475=CARTESIAN_POINT('',(0.0304059951594843,0.0182978123824134,0.000235485272545168));
#1476=CARTESIAN_POINT('',(0.0314059951594843,0.020493317193538,0.000235485272545167));
#1477=CARTESIAN_POINT('',(0.0272344222842304,0.020493317193538,0.000235485272545167));
#1478=CARTESIAN_POINT('',(0.0272344222842304,0.0136933171935379,0.000235485272545168));
#1479=CARTESIAN_POINT('',(0.0272344222842304,0.0118933171935379,0.000235485272545168));
#1480=CARTESIAN_POINT('',(0.0314059951594843,0.0118933171935379,0.000235485272545168));
#1481=CARTESIAN_POINT('',(0.0304059951594843,0.0118933171935379,0.000235485272545168));
#1482=CARTESIAN_POINT('',(0.0304059951594843,0.0135907178918354,0.000235485272545168));
#1483=CARTESIAN_POINT('',(0.0304059951594843,0.0140888220046625,0.000235485272545168));
#1484=CARTESIAN_POINT('',(0.0314059951594843,0.016193317193538,0.000235485272545168));
#1485=CARTESIAN_POINT('',(0.0256486358466036,0.0136933171935379,-0.00476451472745483));
#1486=CARTESIAN_POINT('',(0.0236486358466036,0.0136933171935379,-0.00676451472745483));
#1487=CARTESIAN_POINT('',(0.0236486358466036,0.0118933171935379,-0.00676451472745483));
#1488=CARTESIAN_POINT('',(0.0236486358466036,0.020493317193538,-0.00676451472745483));
#1489=CARTESIAN_POINT('',(0.0256486358466036,0.020493317193538,-0.00476451472745483));
#1490=CARTESIAN_POINT('',(0.0276486358466036,0.020493317193538,-0.00276451472745483));
#1491=CARTESIAN_POINT('',(0.0276486358466036,0.0136933171935379,-0.00276451472745483));
#1492=CARTESIAN_POINT('',(0.0276486358466036,0.0118933171935379,-0.00276451472745483));
#1493=CARTESIAN_POINT('',(0.0256486358466036,0.0118933171935379,-0.00476451472745483));
#1494=CARTESIAN_POINT('',(0.0314059951594843,0.0136933171935379,-0.00276451472745484));
#1495=CARTESIAN_POINT('',(0.0314059951594843,0.020493317193538,-0.00276451472745484));
#1496=CARTESIAN_POINT('',(0.0304059951594843,0.020493317193538,-0.00276451472745484));
#1497=CARTESIAN_POINT('',(0.0304059951594843,0.0136933171935379,-0.00276451472745484));
#1498=CARTESIAN_POINT('',(0.0304059951594843,0.0182978123824134,-0.00276451472745484));
#1499=CARTESIAN_POINT('',(0.0314059951594843,0.016193317193538,-0.00276451472745484));
#1500=CARTESIAN_POINT('',(0.0304059951594843,0.0140888220046625,-0.00276451472745484));
#1501=CARTESIAN_POINT('',(0.0304059951594843,0.0136933171935379,-0.00276451472745484));
#1502=CARTESIAN_POINT('',(0.0304059951594843,0.0118933171935379,-0.00276451472745483));
#1503=CARTESIAN_POINT('',(0.0314059951594843,0.0118933171935379,-0.00276451472745484));
#1504=CARTESIAN_POINT('',(0.0371633544723649,0.0136933171935379,-0.00476451472745484));
#1505=CARTESIAN_POINT('',(0.0371633544723649,0.020493317193538,-0.00476451472745484));
#1506=CARTESIAN_POINT('',(0.039163354472365,0.020493317193538,-0.00676451472745484));
#1507=CARTESIAN_POINT('',(0.039163354472365,0.0136933171935379,-0.00676451472745484));
#1508=CARTESIAN_POINT('',(0.039163354472365,0.0118933171935379,-0.00676451472745484));
#1509=CARTESIAN_POINT('',(0.0371633544723649,0.0118933171935379,-0.00476451472745484));
#1510=CARTESIAN_POINT('',(0.0314059951594843,0.0136933171935379,-0.00676451472745484));
#1511=CARTESIAN_POINT('',(0.0314059951594843,0.016193317193538,-0.00676451472745484));
#1512=CARTESIAN_POINT('',(0.0293059951594843,0.016193317193538,-0.00676451472745484));
#1513=CARTESIAN_POINT('',(0.0314059951594843,0.020493317193538,-0.00676451472745484));
#1514=CARTESIAN_POINT('',(0.0314059951594843,0.0118933171935379,-0.00676451472745484));
#1515=CARTESIAN_POINT('',(0.0272344222842304,0.0136933171935379,-0.00176451472745482));
#1516=CARTESIAN_POINT('',(0.0272344222842304,0.020493317193538,-0.00176451472745482));
#1517=CARTESIAN_POINT('',(0.0272344222842304,0.0118933171935379,-0.00176451472745482));
#1518=CARTESIAN_POINT('',(0.0304059951594843,0.0135907178918354,-0.00576451472745483));
#1519=CARTESIAN_POINT('',(0.0304059951594843,0.0140888220046625,-0.00576451472745483));
#1520=CARTESIAN_POINT('',(0.0304059951594843,0.0118933171935379,0.00773548527254516));
#1521=CARTESIAN_POINT('',(0.0304059951594843,0.0188591296052106,-0.00576451472745483));
#1522=CARTESIAN_POINT('',(0.0304059951594843,0.020493317193538,0.00773548527254516));
#1523=CARTESIAN_POINT('',(0.0304059951594843,0.0182978123824134,-0.00576451472745483));
#1524=CARTESIAN_POINT('',(0.0314059951594843,0.016193317193538,-0.00576451472745483));
#1525=CARTESIAN_POINT('',(0.0324059951594843,0.0188591296052106,-0.00576451472745483));
#1526=CARTESIAN_POINT('',(0.0324059951594843,0.0182978123824134,-0.00576451472745483));
#1527=CARTESIAN_POINT('',(0.0324059951594843,0.020493317193538,0.00773548527254516));
#1528=CARTESIAN_POINT('',(0.0324059951594843,0.0135907178918354,-0.00576451472745483));
#1529=CARTESIAN_POINT('',(0.0324059951594843,0.0118933171935379,0.00773548527254516));
#1530=CARTESIAN_POINT('',(0.0324059951594843,0.0140888220046625,-0.00576451472745483));
#1531=CARTESIAN_POINT('',(0.0314059951594843,0.016193317193538,-0.00576451472745483));
#1532=CARTESIAN_POINT('',(0.0314059951594843,0.016193317193538,-0.00756451472745483));
#1533=CARTESIAN_POINT('',(0.0314059951594843,0.016193317193538,-0.00756451472745483));
#1534=CARTESIAN_POINT('',(0.0314059951594843,0.014093317193538,-0.00756451472745483));
#1535=CARTESIAN_POINT('',(0.0314059951594843,0.0136933171935379,-0.00756451472745483));
#1536=CARTESIAN_POINT('',(0.0176131019406708,0.0118933171935379,0.00773548527254516));
#1537=CARTESIAN_POINT('',(0.0213177138166586,0.0118933171935379,0.00773548527254517));
#1538=CARTESIAN_POINT('',(0.0213177138166586,0.0118933171935379,-0.00926451472745483));
#1539=CARTESIAN_POINT('',(0.0176131019406708,0.0118933171935379,-0.00926451472745484));
#1540=CARTESIAN_POINT('',(0.0263177138166586,0.0118933171935379,-0.00926451472745484));
#1541=CARTESIAN_POINT('',(0.0263177138166586,0.0118933171935379,0.00773548527254517));
#1542=CARTESIAN_POINT('',(0.0176131019406708,0.020493317193538,0.00773548527254516));
#1543=CARTESIAN_POINT('',(0.0139331004838902,0.0104100403169336,-0.00926451472745484));
#1544=CARTESIAN_POINT('',(0.0139331004838902,0.00541004031693358,-0.00926451472745483));
#1545=CARTESIAN_POINT('',(0.0139331004838902,0.00541004031693358,-0.00926451472745483));
#1546=CARTESIAN_POINT('',(0.0139331004838902,0.0104100403169336,-0.00926451472745484));
#1547=CARTESIAN_POINT('',(0.00893310048389017,0.0104100403169336,-0.00926451472745484));
#1548=CARTESIAN_POINT('',(0.00893310048389017,0.0104100403169336,-0.00926451472745484));
#1549=CARTESIAN_POINT('',(0.00893310048389018,0.0122583921429784,-0.00926451472745484));
#1550=CARTESIAN_POINT('',(0.00893310048389018,0.0122583921429784,-0.00926451472745484));
#1551=CARTESIAN_POINT('',(0.0139331004838902,0.0122583921429784,-0.00926451472745484));
#1552=CARTESIAN_POINT('',(0.0139331004838902,0.0122583921429784,-0.00926451472745484));
#1553=CARTESIAN_POINT('',(0.0139331004838902,0.0104100403169336,-0.00926451472745484));
#1554=CARTESIAN_POINT('',(0.0139331004838902,0.0104100403169336,-0.00926451472745484));
#1555=CARTESIAN_POINT('',(0.0176254071502744,0.0104100403169336,-0.00926451472745483));
#1556=CARTESIAN_POINT('',(0.0176254071502744,0.0104100403169336,-0.00926451472745483));
#1557=CARTESIAN_POINT('',(0.0213177138166586,0.0104100403169336,-0.00926451472745483));
#1558=CARTESIAN_POINT('',(0.0213177138166586,0.0104100403169336,-0.00926451472745483));
#1559=CARTESIAN_POINT('',(0.0213177138166586,0.0122583921429784,-0.00926451472745483));
#1560=CARTESIAN_POINT('',(0.0213177138166586,0.0122583921429784,-0.00926451472745483));
#1561=CARTESIAN_POINT('',(0.0263177138166586,0.0122583921429784,-0.00926451472745483));
#1562=CARTESIAN_POINT('',(0.0263177138166586,0.0122583921429784,-0.00926451472745483));
#1563=CARTESIAN_POINT('',(0.0263177138166586,0.0104100403169336,-0.00926451472745483));
#1564=CARTESIAN_POINT('',(0.0263177138166586,0.0104100403169336,-0.00926451472745483));
#1565=CARTESIAN_POINT('',(0.0213177138166586,0.0104100403169336,-0.00926451472745483));
#1566=CARTESIAN_POINT('',(0.0213177138166586,0.0104100403169336,-0.00926451472745483));
#1567=CARTESIAN_POINT('',(0.0213177138166586,0.00541004031693358,-0.00926451472745483));
#1568=CARTESIAN_POINT('',(0.0213177138166586,0.00541004031693358,-0.00926451472745483));
#1569=CARTESIAN_POINT('',(0.0176254071502744,0.00541004031693358,-0.00926451472745483));
#1570=CARTESIAN_POINT('',(0.0176254071502744,0.00541004031693358,-0.00926451472745483));
#1571=CARTESIAN_POINT('',(0.00998317483163108,0.0129516787552358,-0.00926451472745484));
#1572=MECHANICAL_DESIGN_GEOMETRIC_PRESENTATION_REPRESENTATION('',(#947),
#1573);
#1573=(
GEOMETRIC_REPRESENTATION_CONTEXT(3)
GLOBAL_UNCERTAINTY_ASSIGNED_CONTEXT((#1574))
GLOBAL_UNIT_ASSIGNED_CONTEXT((#1577,#1576,#1575))
REPRESENTATION_CONTEXT('Part 1','TOP_LEVEL_ASSEMBLY_PART')
);
#1574=UNCERTAINTY_MEASURE_WITH_UNIT(LENGTH_MEASURE(1.E-8),#1577,
'DISTANCE_ACCURACY_VALUE','Maximum Tolerance applied to model');
#1575=(
NAMED_UNIT(*)
SI_UNIT($,.STERADIAN.)
SOLID_ANGLE_UNIT()
);
#1576=(
NAMED_UNIT(*)
PLANE_ANGLE_UNIT()
SI_UNIT($,.RADIAN.)
);
#1577=(
LENGTH_UNIT()
NAMED_UNIT(*)
SI_UNIT($,.METRE.)
);
#1578=PRODUCT_DEFINITION_SHAPE('','',#1579);
#1579=PRODUCT_DEFINITION('','',#1581,#1580);
#1580=PRODUCT_DEFINITION_CONTEXT('',#1587,'design');
#1581=PRODUCT_DEFINITION_FORMATION_WITH_SPECIFIED_SOURCE('','',#1583,
 .NOT_KNOWN.);
#1582=PRODUCT_RELATED_PRODUCT_CATEGORY('','',(#1583));
#1583=PRODUCT('Part 1','Part 1','Part 1',(#1585));
#1584=PRODUCT_CATEGORY('','');
#1585=PRODUCT_CONTEXT('',#1587,'mechanical');
#1586=APPLICATION_PROTOCOL_DEFINITION('international standard',
'ap242_managed_model_based_3d_engineering',2020,#1587);
#1587=APPLICATION_CONTEXT('managed model based 3d engineering');
ENDSEC;
END-ISO-10303-21;
